<?xml version="1.0" encoding="UTF-8"?>
<mxfile host="app.diagrams.net" modified="2023-12-21T00:39:35.598Z" agent="Mozilla/5.0 (Windows NT 10.0; Win64; x64) AppleWebKit/537.36 (KHTML, like Gecko) Chrome/120.0.0.0 Safari/537.36" etag="PPS26gk2bBpNPzOJWV6W" version="22.1.11" type="google">
  <diagram name="Side-1" id="2I4t4xXIw3ZidHj5bYd9">
    <mxGraphModel dx="1050" dy="530" grid="1" gridSize="10" guides="1" tooltips="1" connect="1" arrows="1" fold="1" page="1" pageScale="1" pageWidth="827" pageHeight="1169" math="0" shadow="0">
      <root>
        <mxCell id="0" />
        <mxCell id="1" parent="0" />
        <mxCell id="6Mg8I2pt4XMy21u9XQKC-2" value="" style="ellipse;whiteSpace=wrap;html=1;fillColor=#dae8fc;strokeColor=#6c8ebf;movable=0;resizable=0;rotatable=0;deletable=0;editable=0;locked=1;connectable=0;" parent="1" vertex="1">
          <mxGeometry x="70" y="10" width="534.45" height="520" as="geometry" />
        </mxCell>
        <mxCell id="6Mg8I2pt4XMy21u9XQKC-4" value="" style="ellipse;whiteSpace=wrap;html=1;fillColor=#d5e8d4;strokeColor=#82b366;movable=0;resizable=0;rotatable=0;deletable=0;editable=0;locked=1;connectable=0;" parent="1" vertex="1">
          <mxGeometry x="149.66" y="87.5" width="375.14" height="365" as="geometry" />
        </mxCell>
        <mxCell id="6Mg8I2pt4XMy21u9XQKC-5" value="" style="ellipse;whiteSpace=wrap;html=1;fillColor=#ffe6cc;strokeColor=#d79b00;movable=0;resizable=0;rotatable=0;deletable=0;editable=0;locked=1;connectable=0;" parent="1" vertex="1">
          <mxGeometry x="215.82999999999998" y="151.88" width="242.81" height="236.25" as="geometry" />
        </mxCell>
        <mxCell id="6Mg8I2pt4XMy21u9XQKC-6" value="&lt;font style=&quot;font-size: 20px;&quot;&gt;Interface repositories&lt;br&gt;DTOs&lt;/font&gt;" style="text;html=1;align=center;verticalAlign=middle;resizable=0;points=[];autosize=1;" parent="1" vertex="1">
          <mxGeometry x="232.23" y="240" width="210" height="60" as="geometry" />
        </mxCell>
        <mxCell id="6Mg8I2pt4XMy21u9XQKC-7" value="&lt;div style=&quot;&quot;&gt;&lt;span style=&quot;background-color: initial; font-size: 20px;&quot;&gt;ChirpContext&lt;/span&gt;&lt;/div&gt;" style="text;whiteSpace=wrap;html=1;align=center;" parent="1" vertex="1">
          <mxGeometry x="232.23" y="400" width="220" height="40" as="geometry" />
        </mxCell>
        <mxCell id="6Mg8I2pt4XMy21u9XQKC-9" value="&lt;span style=&quot;font-size: 20px;&quot;&gt;Entities/repositories&lt;/span&gt;" style="text;html=1;align=center;verticalAlign=middle;resizable=0;points=[];autosize=1;" parent="1" vertex="1">
          <mxGeometry x="242.23" y="111.88" width="200" height="40" as="geometry" />
        </mxCell>
        <mxCell id="6Mg8I2pt4XMy21u9XQKC-10" value="&lt;span style=&quot;font-size: 20px;&quot;&gt;Razor pages&lt;/span&gt;" style="text;html=1;align=center;verticalAlign=middle;resizable=0;points=[];autosize=1;" parent="1" vertex="1">
          <mxGeometry x="272.23" y="30" width="140" height="40" as="geometry" />
        </mxCell>
        <mxCell id="6Mg8I2pt4XMy21u9XQKC-11" value="&lt;span style=&quot;font-size: 20px;&quot;&gt;Page models&lt;/span&gt;" style="text;html=1;align=center;verticalAlign=middle;resizable=0;points=[];autosize=1;" parent="1" vertex="1">
          <mxGeometry x="267.22" y="470" width="140" height="40" as="geometry" />
        </mxCell>
        <mxCell id="6Mg8I2pt4XMy21u9XQKC-13" value="" style="shape=cube;whiteSpace=wrap;html=1;boundedLbl=1;backgroundOutline=1;darkOpacity=0.05;darkOpacity2=0.1;fillColor=#ffe6cc;strokeColor=#d79b00;size=0;" parent="1" vertex="1">
          <mxGeometry x="650" y="160" width="40" height="40" as="geometry" />
        </mxCell>
        <mxCell id="6Mg8I2pt4XMy21u9XQKC-14" value="" style="shape=cube;whiteSpace=wrap;html=1;boundedLbl=1;backgroundOutline=1;darkOpacity=0.05;darkOpacity2=0.1;fillColor=#d5e8d4;strokeColor=#82b366;size=0;" parent="1" vertex="1">
          <mxGeometry x="650" y="220" width="40" height="40" as="geometry" />
        </mxCell>
        <mxCell id="6Mg8I2pt4XMy21u9XQKC-15" value="" style="shape=cube;whiteSpace=wrap;html=1;boundedLbl=1;backgroundOutline=1;darkOpacity=0.05;darkOpacity2=0.1;fillColor=#dae8fc;strokeColor=#6c8ebf;size=0;" parent="1" vertex="1">
          <mxGeometry x="650" y="280" width="40" height="40" as="geometry" />
        </mxCell>
        <mxCell id="6Mg8I2pt4XMy21u9XQKC-17" value="" style="endArrow=none;html=1;rounded=0;entryX=0;entryY=0;entryDx=0;entryDy=20;entryPerimeter=0;exitX=1.01;exitY=0.5;exitDx=0;exitDy=0;exitPerimeter=0;startArrow=oval;startFill=1;" parent="1" source="6Mg8I2pt4XMy21u9XQKC-6" target="6Mg8I2pt4XMy21u9XQKC-13" edge="1">
          <mxGeometry width="50" height="50" relative="1" as="geometry">
            <mxPoint x="460" y="260" as="sourcePoint" />
            <mxPoint x="310" y="290" as="targetPoint" />
          </mxGeometry>
        </mxCell>
        <mxCell id="6Mg8I2pt4XMy21u9XQKC-18" value="" style="endArrow=none;html=1;rounded=0;entryX=0;entryY=0;entryDx=0;entryDy=20;entryPerimeter=0;startArrow=oval;startFill=1;" parent="1" target="6Mg8I2pt4XMy21u9XQKC-14" edge="1">
          <mxGeometry width="50" height="50" relative="1" as="geometry">
            <mxPoint x="480" y="320" as="sourcePoint" />
            <mxPoint x="310" y="290" as="targetPoint" />
          </mxGeometry>
        </mxCell>
        <mxCell id="6Mg8I2pt4XMy21u9XQKC-19" value="" style="endArrow=none;html=1;rounded=0;entryX=0;entryY=0;entryDx=0;entryDy=20;entryPerimeter=0;startArrow=oval;startFill=1;" parent="1" target="6Mg8I2pt4XMy21u9XQKC-15" edge="1">
          <mxGeometry width="50" height="50" relative="1" as="geometry">
            <mxPoint x="510" y="380" as="sourcePoint" />
            <mxPoint x="310" y="290" as="targetPoint" />
          </mxGeometry>
        </mxCell>
        <mxCell id="6Mg8I2pt4XMy21u9XQKC-20" value="&lt;span style=&quot;font-size: 20px;&quot;&gt;Chirp.Core&lt;/span&gt;" style="text;html=1;align=center;verticalAlign=middle;resizable=0;points=[];autosize=1;" parent="1" vertex="1">
          <mxGeometry x="690" y="160" width="120" height="40" as="geometry" />
        </mxCell>
        <mxCell id="6Mg8I2pt4XMy21u9XQKC-22" value="&lt;span style=&quot;font-size: 20px;&quot;&gt;Chirp.Infrastructure&lt;/span&gt;" style="text;html=1;align=center;verticalAlign=middle;resizable=0;points=[];autosize=1;" parent="1" vertex="1">
          <mxGeometry x="690" y="220" width="190" height="40" as="geometry" />
        </mxCell>
        <mxCell id="6Mg8I2pt4XMy21u9XQKC-23" value="&lt;span style=&quot;font-size: 20px;&quot;&gt;Chirp.Web&lt;/span&gt;" style="text;html=1;align=center;verticalAlign=middle;resizable=0;points=[];autosize=1;" parent="1" vertex="1">
          <mxGeometry x="690" y="280" width="120" height="40" as="geometry" />
        </mxCell>
        <mxCell id="6Mg8I2pt4XMy21u9XQKC-24" value="&lt;div style=&quot;text-align: left; font-size: 18px;&quot;&gt;&lt;span style=&quot;background-color: initial;&quot;&gt;&lt;font style=&quot;font-size: 18px;&quot;&gt;DTOs:&lt;/font&gt;&lt;/span&gt;&lt;/div&gt;&lt;font style=&quot;font-size: 18px;&quot;&gt;&lt;span style=&quot;&quot; data-buffer=&quot;&lt;!--(figma)ZmlnLWtpd2kwAAAAnkMAALWde5zrSVXgq36/pB+372PeL4bhjYqI82J4iEg6+XUn9+Y1+SXdc0edkO6kb4ebTtr80j23WddFREBEfCEiIiKLiOgioiKi4oiIiIiIiIiIiMi6LMu6ruuyLuvu91TV75G+d9j9Z+fzmVunTp06VXXq1KlTpyq//iWvNoii3oVB+2h/oNT1ZxuVejdsF1ptxX/1RinoFsuF+noQktWdMGhl8p6hDuolYD+srNcLVaBc2D5fDQDyBuiGgfBaMLSGczc8V2l2W0G1UZCai/VGu7J2vhuWG51qqdtprrcKJam/5MBuqVGX/HKcbwVrrSAsgzoRFoN60AXdLHfv7QSt8yBXsshW0KwK8mSpsrZGeqpYrQT1dne1RevFQih9O53p29lGp8U4AunZmbDdCgo1W0L+Kpe3I766Um8HrUKxXdlgkNUKHbOioeyaVlBs1OtBkcFmOhP38NorF8d9va5waRgh3vuAlSB0YXubaQJF+6Vuo27IlMlstiptaVLXJ/1Bc7cXDSArUtQ2Y4Co1tgwoN4cjvvD8YXWwUho6o36/UGrQYFqlEy5cLB68AQKA1Cq1Ch2asgLUBcL9Y1CCOSttxqdJoC/1irUhC632mhUg0K922giknalUQeZ32CAjRbQgkiQdLFaMWyXgmq10gwFXEYUbaRmNOZEK1jvVAutbrNRPb9umKzQVL0UlBBOSneyHdwnXTqF2IuCOB2er602RPvOVOo0VjdY5qtSPCeiujosF5pBd7PSLndd3WvcDJgOXlsUTV+tNornyF23WSmtG629Hl41GekNtaBUKQDcWK6sl6v8L8U3hTCwg73ZgV2E3aoWpNFbNgthudJt0zK5R2wUWpXCqun/rW0HPNIA3SLyIHdbTOLWzKMYnlkJjy6EYSVkQrtwbnSk7DGXa19QDdxUPTZhJL1pUQjycbVGqWNafXy429sfbA5nu+3BpZmd8dvCezuFVkCpojNucjRjrjWMtnttOIr4WaBk/SRbamzK+HNXmqd8s9AqVKusdBS81m05sS3Mo6vBmmAXg/p6t1RAIgXT+JLkWTEdySxLZq1iuJ4wcKNaCmTqVtqsneD+RkV6ebLZCkrBGlpW6jZbjWIQir6eYhqCqpSfjvW5G1ZcH88kqFqn2q40DfKqWqHeKVS7lXrTSPvqcnBfwSrkNcVysNEy4LVNqjn0dQ2GbUFRGunZDc1qR5q/sdBqNTbjYd5kc7Esbg47tRp96Z7t1JlMw+AWo5OPCJtBUCx3VzurzCSIW82UY5wwSI1WwRiaR66OBuN+jYUr3UFNuu0yM7EuxhHz3aoZk6xLhda5QFh7bpCin76sRhbbKhaPbK7YqDaSXN7ouKmzEGJODGTWLzVKDdYH+SVbJc4ui7ahoYAnwsZau2t4kFspF1rorssZUxy0ArtITwX3FZGTHfnpspntM2Gh3UnsyFWmFYCrqx1E1QgrbWnimmZvOHbauxQ2WAIgFRpVqjAttCZdBaMTlKRGHhgwQEGhqWJwwPkJDiKn9LlKzYo5jxE9WwFY2GAxic1crOyxa4bbvdHASp9trxW0i0bwaxUZp0ZfTWttq7d+sLMz2HY9zlWwPi02vQILiEJVajWaaVavNbCFzGS9hFnqSAe91ULx3DzKl/VbNCZ/oYFGVVAO0KrTxAyT6mpj0wB0oW37EKIR1W6x0BTNzKU5FlSraLaJvDAtDbYn095sOBlTJ94MaJn5Ra7AmuFWzgWptnnVQU92l/Z0uEcurgPvbjlwM6/rB3tbg2lnPJxF8G0VZKiqWbkvqIYAml6zHQqlV5yMo9k0neFFZh68knIzJF0ryP7o0Q8ndj8ssnED5NbgWOraGnmXMdQL4Ww6uTgojIYXxlRImCl2DSYWQGNeHehZ4mJvH42Mx8NwjWroxF56dkGLXGQQvs0G93YqVfZgDB3InNMpMWHWt8gjPpQPA5qgFrJby2K6eXTvIL+Uyd9JfjmTv4v8iUz+bvIrmfxTyZ/M5O8hf6pYaRWzrZ+2oz07GYpkajgVLbBqNdgIZAQ6Hri3OpmMBr1xY38QK0iuU7crFTFSTXZCYB12VrHNBvbuMwvY6KsRfnkyHT5/Mp71RlR3ljEzt+iykYJ3tsMevlYxPUxrbwymsyFLT3CNJkWZqquNdrtRA/Jqk4NoUDyYRpMp8mFbKGD7KFDFViNkpVVawDo4H8jSQ/XIeThwpqlmgaFgC4uoOPkclp4kT1KsVIEWamJRpcoiU4xbDLSUzJ/JLm+w2CfT2nA6lQ4kq8jMOqk2ABYIy8iO1hYV9kq9aNfaE6/ILgxKpQqujc2x6yHXrK+DUmebgaQ63JDEa5bEyfWDS/uT6ez4GvJxeTDpbH5uoagYgcNj2tcxIlmyXrV3NDmYrU+HfcskZ5dVRuJpBz27yvy0TrM3mw2mY4qgqjTNCsFGG1utzXwezCatQTR8PqwTEZnuGMkk/dAJ5Em19vRgvO3UzytVQnF2hKfCN2c3BdDh7Gg0CAdu7ExdK2w4+9jGiyfRRbTL6goHClyNelE2Fr8d1JpssMZVz8VsEOZskEjysv0GUMe7BYajt33RTmMypjIG+n6ka3qg2SjxTQ1sqY1e09xl0rUi9VZRMjExwL6pUJwc0KGpq7fwcPUQu5scv9Bpy86Vy7DKG1ZnD6LZcOeI7MNyaRaKOJgbgT15+Da/GrQ3rWOAlOAT2lk0BhckR4+wcn/QbTewMkZAcwiUjkmu1Jr48OSkBBorjeYkGsrksp+Ach1XhVXE3rGnHUO2ORXbzF7DKajQBK1caouzInLTB3XM7fgYNCRjlizN2kleiqcOU2D9LjkPk9edlpm4VTZkUr9YbRiPNYfb3o1db/L5ThN/Nuias0O31am3K+a0tMAqK1XEuzEKsFiha9NepuWrOEew/A13VVij9a5UZWsir2sNzuG4psCehW2BT62yuGDAOVuAMyFkeZsznvsCVHjJxjHm6G1GuFTCnSRdpuxccD6udoLsRsOesFaA7TjKZi5PJnlWHPlTtolYcU7bLGfCDal9pj3tje2U2hHewobLMaHdZYdg6xVZQKZYyUyxqaLXOOqTevZws9ZqJCcFP4OKd4pcBmf3hHwGk2wKC81OWLY4x2wxxcS8llKUZbWcIhJOJ+RYbXGO00qKiTmdTFGWE2KKEQmn07ajTCJEMbMzc8iY31VzWMvy6jlcwvUa05LDOqbXZnExz+uySMvy+iwq4XgD5q1S7EoZuRvxHYmXFOpYPbMkb+KY0MCbTDE3B72IFWxn/DQhlmJntVKkQAnrOKNx6TNZT0yT9cipIUssKcoJ3Rwmb+vO4RasVU/yi2GzZbeEpXXUky03QSw70gRxwkJmgbCW7epYmUe2N8V8nDyGLHNEAn0q3J5ORqPScGotCZ12a+wrbABI2BhoWxczNBNrMOhjxGYDyoP7muyF1qYW4SBOlcnp9Q67kPYigkM0Bryo9GiCZ2RArzgZ4Xro3FQtK32Bf7wt/vF7/JOz3gmVL5HTR/zjtUBBnSIe5B9/l39yhlM4m+xTYVtg9Vyl952VhsCr9WbT4SWlF/Zuv5283rv9DhJv7/Y7Sfy9OwSZ27tDkPm9OwS50OxNsciVcX9APe/CwbCvHsgwXVGePS5QeNgbHQyoow/M0eFW5a0hpXpvb6C0v9PbG46OoNeR7NUAHkxm0fZ0uD8j5wvtRm867FHlYG8wHW6vDS8cTBEtu7M7IivUjvkE0EQWTOQS2DQzXzXc722j1HN1CTXgMIgRM3lNDMOdKq/AYE0mVwaY5YAhJXhgYPwp1NnMb7Z2sbcfocxpFdafOV5qkm6c8ZoBRz3pug+im+TERSfaKWAeFINdB1zI8G/Gcs92Cxeef/Hk8Z4ATH9CI2QmJ6GqoNNmqelwsAer4fbmYHhhdzZHRHhOhpSQVPD9h9tzJCkfDhdmo1gb9GZmov5WNzlJUqSKdzYNiRuNV2yGgvdlVKRmoKR5F9tcINAjLvFio1Wqky4V1lpSvlyqG6N2ot6pydBWcNwlvneSfVdEc6pk09Pi0ZOe4eAr6VWFgjlEXF206TWcoiS9NrT561obJn5yvSxw0hvCTROpvrEYbkp6E5Ms+JuLRRNYvCW03tkjygT4SG91ftAjG6269O82EQrpo9gnRX6PLrXNWfkxa9WCjOOxtfWWuAmPC9FZ0sdzKpH2n7CGE036xLJNv6ps2/3qts1/zb02fVLTpl8rJy3SJ1fXViX/dY2mSZ/Sapv065u2/u3Nc3WR0x1VzBDpnaTSz7ta7ark7yaV/FMLq60N0nsKqxuSfxqp9PvpG5bPMzboEOkzV6ubMj/fQCp0zyIVum8snCvLOJ5dPGtOkN9UXDML6jnFpskXip2W0K3iMki+iJGUtLRm+QcEAaU/a6R3kq6T3kVapllpr0Iq/M+W7XhobV36Uy03zore4AkbP6dewSEhbZxtPu3ppM2zzacLn3vPNp9xO2nrbPP2u0nD6tma1GsTQxb6DrujzMuGOEmkm6TSj/tq52qCP1+vGvfu/nrnXJv0m9lIpF/fQhqSfusGAid9oBm2Bd8lFfxzW+daku+1mmVJt1qdVZn37RBHmrTftv0YtOvmjLPDNMn8XdggpEa6u2HLhxt23M/bOGf05eJGq90iHZHeSboXhlhwpcakkp+Q3kW6T3o36beRPpV0SnoPaUT6NNIZqcjpgPQZpIdhiO1X6kFS4XeJVPgdkQq/55MKv39FKvy+nVT4/WtS4fcdpMLv35AKvxfoMLxTGH6nLm6YHr5QAGH5XQIIzxcJIEy/WwDh+mIBhO1LBBC+LxVAGH+PAML5ZQCmq98rgHB+uQDC+fsEEM6vEEA4f78AwvkHBBDOPyiAcP4hAYTzDwsgnF8JYPr8IwII51cJIJx/VADh/GoBhPOPCSCcXyOAcP5xAYTzawUQzj8hgHB+HcBdwvknBRDOrxdAOP+UAML5DQII538rgHB+owDC+acFEM5vEkA4/4wAwvnNAHcL558VQDi/RQDh/HMCCOefF0A4/zsBhPNbBRDOvyCAcH6bAML5FwUQzm8HeKpw/iUBhPMvCyCcf0UA4fwOAYTzrwognN8pgHD+NQGE87sEEM6/LoBw/g2Ae4TzbwognN8tgHD+LQGE80MCCOffFkA4v0cA4fw7Agjn9wognH9XAOH8PoCnCeffE0A4v18A4fz7AgjnDwggnP9AAOH8QQGE8x8KIJw/JIBw/iMBhPOHAZ4unP9YAOH8EQGE858IIJw/KoBw/lMBhPPHBBDOfyaAcP64AML5zwUQzp8AMCbqLwQQzp8UQDj/pQDC+VMCCOe/EkA4f1oA4fzXAgjnzwggnP9GAOH8WX08voSLNmO7VncrHbtqnvimtd7+vjhL2tuZTvbEvZtN+NdbHU22lNZbR7NBpHxtA1vK87m+3JX8WDw7/Lh+b9YztIvK3xj2BxPleTFNdFdnOhKiZi+aDcLJwXQbFl40xbvDQRF3cLpdlyAMDYLijF0Uz7XQfx7xDqWXZtJxfMpot9efPBgBeru4LUQLdvEx8Vr7g1lvOALKDRhvJI4I3ush0YQBUS3ghdlgz4RBbdHi4XCLcy7dWOYMKXKxzborduWd+P/b5Dbe2RRhAC9vTYXnmJbJnTCdUd4NZpKuUnpbBKGeq7yJeLMzcfb9w2E03EJwWuVI3KXSaZWP8PojtaMX4D2OdibTPbWrFodmxl6q1ZKB2ru46mPpOqjl3hgkB5iKFAnmKovBvcT7ZWoX1dXks/cn16gTFrM7ORj1i9K/Wm8Mgv7cMJ1wEqIy3VyJpArAyR0jW0PppvQVWp3al5GumSJsszo92Js8b1ikhSaBbWS8qM8cGkV6mVbXEIS+MBxzWpKWN4f9GQNT185hy9aTXVTXbUtLOMvqzTl1vTjCNeaqhIIqL39xcKTGSu+ArQ7HcSVmVzCl4YUBvfM5qZCz7vPzVU4yzk/Oc0tBDuZDO07P710aRu3eBRrWAtZFauh6vLpMLNw2fu32bk+OFINpBIVOcqahSkmG7EUCNw4HU0Kyg3aP+VXv8rQ/MnFaE7bbYta5SBrR+4hNROcvjI72dyN2D73QTy6DIvYOvbjFEfPitx1MZPG+SeurLJsNOgAJPV7aYTCJdF6p9fJObzTaIiK3RkGkxvrELoo4pbGLq5NLcHmt1ivkgF7v65OzJLjLCXjqToh5dcrhB/1EvqdHkwtyEWBI2pNiPPbGzk40mGF91LI+szeMo39Jvav3yMHftv46ra/pczQ7HPSrphNv8PW1JYtI5XzSDtNJS89Jy0ulxRKekxaLaU5a+R36khXOwuWyWHQjhcecBJYcPiOB5f8HCZw4PtqVvh1c1fSf0Z4sZ/qgvNwWkdN+pPocuK2Ndadzfzem49CQJ8qYMGYRpJWitNNEIbAlMewPow2OfZAQDLB1z7F0FlV+1YlTeUvYPXsSRcoPmkXJQpKy8wC+AMnoc5IrRNuwIreImZxMB9XMRSRWcWc4jWaJXKQtOpTNL6zL5ClvcXuyt9djCKt2x0lDEVvKriAGzRhkAo0W0P7lzHv9Q2ePFy63PYulRDnYqqbEW5CXRl4xc9kZnbZgBA7dPdcqVgeZGXStN2WSnKSz3bIBHaNVUlMy9cHswQnkbjwIZw/pP5/IEv8ko7rcLsjWzc0NMtEy8ZF6QOvwaG9rMnLsI5OhXXZ0C8dMImHgEaaRjSKk74M1RMNmw9TFbNFK4xV4HpoAh31wuJeEApDV+mAs2xsScm1Nspz1QTRYY87Xxe1gHEdjE4zRuArDnZ3GeHTUQuqHvZGh9ktWzyt7ewczGZ3ZfSxfb54vGWe9vELEyqn06SXjR7OmQ2jeobV2BQGoIxj0JCvqi9U1cKWPU+rqtwY7kFy0pTFzFpIphNBbFMnK6HuCEfJ3UpeVM2Nwk4P9Sh9/VvlmhoDfzYqxkibzkMYnkM2CIZF9j1YLcTY03N+nCXtmWXnxCp5vLnTcH644bvBhyjdcoyjC/4WigQhE2JX+/40yZAClhyPCVTiguf7Dlbd3B3tfoTchpgdXBRqnAzOBof+AnpuklK45FefHW5hJZiOhwMtNe2vE7c3YKJw4I2ZLY+raoIriNdR64wN2wKNwMGJdDljKKjeMVifTvnNgrkCQjw62JIS5xR4kjbsxLKR9m1fQj6Cgc2UBBaKmM8nTSRmjge2YPkSfQwyXLCKZZfgPiMdiubzlHRzoc1Z1I1OIiHCiD+34yz0ccMKqIuJmL1nOEac/djvn0udHQxzT6ZGs+fYkdGOBTBCc0PUC1nZ/Mh6M3RJaPBjvjOS2WC79siyXhlEnLjKSWbbdLsb1az38/9jwbcdYy1XvH2yNhtEuzKRh6W570h709qpp96QR73gjfoWzjRjyWHPDmQw7NUfCqrETPkhPMTCOWKwYzvVcF+YNzZX5btz5/8SZvaE3CjMzElexrO37IuWdMm7+ddITdMu4+cYbwOL7U/bGAzkT5FJ/P0+S+PsL0f500OtDsRjtTh5E1pxUVgdIsC/mGfIly2ODTQlXeNk04jInbGWXW7nkgJNHDjjVljOE2VQr4x05zZmubijdP7BGn3Y9FHQ2kYLS4HC4HT94iO9RJEBmHmXoIiFLE8T1DI6rFQnBk8fuS8VWfGxgZ3GVi8XNrjkU62ON4PRIRn0aMUdud2QsSK3SZyqHO0O2d5SeWpbnZ1jDDcSPV9h0fkJbGKil5PZccZsWX71pgZMST3LxBZzP/Q/jiClzLpsQ5x0ipl+wjxOBFl0HVnGtL2DpxdFiKbDh0htaSUYtF9TcZtlLZbnYc0+c9GUM7BiSmgQ/K6Vu/ADvcvICOorzIwrqeVsJ2nD5PKJMUUVRE9HFeo/jrJGhoVL5emGD2Lu5plDcLbbsC0IdbpqAvydplzsRQ+C7S0ZzhZ8LOCNLGALOTKdYLSji95wQqLC1bi4wCBI3Ydtt3tXduBuEZ2uGHKqxDBj4E9HBzg73V1iMoRz7TNdYlNt48TPxNWbEGZUfHV4QO2NOY8w/2UrJrJt/ZBWRaxzMxCMVw085Jo7pwPMTv4T8IhRrE8IUoXlqhd26GIFewqcpbEWT0cFs4Dw7jNx2dlR/r9UJ1+WNddek8ipr3XoQuIvBQnWzcD4E0FVzTpHXN7EpuId9kEOk8rDhyar3xwd7IfaCiYgUvryzEYQbIosNZRngxl44wCpOXQ4nmX4xj0v7YiynY/V0tZzh5Bb6CcvN5VYiWyo8HOpkytVhTq2zn6BG5uhLV7VlQZvxZu43sYwQPIgtYtrMO/YlhZWbc9vxoWQXNj5xKGBbRCA3Z1al5cUbCddsrcY5wXjuRbgfrK3Zp2s5LhMaLYHy7q3SAnaQPcfwy+yUti1r52MHwm2P8eYqBMw0YxXNofeRYFyViBmNrQd5TybbFrnLYAwvywWBgzCaLzPMEO4LSt3NcsCKLleqpW5jrWuLudfrxo/yGSGr/bwrkYpeYbqd9IIjGkIsjC8gRUJS7ACZrDcc44a3jKEn69tNp8rBj7oH0yE91P1htD/qHZnFsCIOuMka3af/zdEBURTX2r7JIEmq4ZwTwqDCRTvQpilrDUY9zra7tkJu3yBthb2BDZ9RxU01IO5VCWfJ+kq52sFoNpTWB9O14WDU37BTwQRts6CQPcqgs7fkXI0zQDmY1HoSW1Mqee3j3geJwSbxnFX2rREGysV2OJ9Y6AWp05274F9MGgjG/X05/yGGgQNlI6UbuKf78eRvcVdue/IKT/lJZQBsxagptRhNhtyuaKpBYmlF8iGQlOMqV0qlqnlrhe00usydVoyyb3biF0+2am1oO0czEUjh8kovuwoTatQAE4YWI5agutrYtBaIBVVwomFrbtkfnaS17DL0ks3L3HmjqkC6MB67fRWLR4RhdmSpb3KLVXjbxaq5rjSvJbzkQaDPXV03RuckkxTla4X7kiL2zfvSokXLMildKnLjGrS6XJdVOrJYlhNzcEIMBGK0bwJWTI6b6nUayk75yTWg7lqhVjGP5E6ZrLvOPW0ym3HjZ1ioQdqXq6pBG03qypM0VjCYq5k0duoUcY1FNAsl977xWouo2Sdp19mc6ZXb/K5vSGVzKXxDsVFrot4Gf+Plwlaenom8X8t8p6Uowqi3NZD4j963lHLQeB3n+5SoNuhJlFqCOaLVoZhwlbNrRyVrRrtV5MVrx78iB07FxtBruS0QdsDebOIgP8aaRt7gqdxsEvb2bJb915ishlFXsSYzTv6o7QJ7YYxeG17CXrCJOe+/NjkcOD90MuqfM/aIaATGei0xxF6GtjwkGD49qhCDp0pkrhykQxXTaZsvHvP+cS8HIxGe6ZOJuV3EwI1tNdrbSZsaUebMqcS5LnZM8C23OexfGLBPsDixZB5xHFOXJoP+kDibDCA3G2InZ729/Uo0efo93IzCGsdiCqFwZlBCPOgXJJjtb+Omx5mcFMTr0y8F8ks+pkhtlivtYLVRaMk61uaVmawLj93soiMuVJtluUWWB12i0kDa/EjD/QLLHdgddR0VBKlCNBg7FL+mND9JiXNeiLFAK0KUg60Hd9FVWu2w0ZHqOQI7eB2ZjHoH+ltHOATkxmwY3kvMGVUEJakNpz91f7cXDdSC8gxgkffss1fHb5Gep/xM1hI8bSZDOIHKkVrU08d2pvKSWtQzhlHTnjclNoBOvlVzNuPguy89hvbd3ijVJtP3N3nqBVmkUzH1Zk//mNshf8u4BQUJZEhs4Ze1+t/W72ALWVR3OND2YDCMwsnOzG2NoRTRjbdpbhAm485+n0l3XftFcGvD0Sim+Qny1i+NMT8FpnFoD5iSyiYRl33J9qCNNNSXNVfLJluaG+xvxR4R8M9pZHIFd+gFHrfImaLUt/oXzbXyMf/oIW/yPM6P4QHLCTWYDozNMTu+cPpzNq7D2mQyHg25hhkdxS18Em9ml0gg69+NF8k9QCDcoTPDNgVviAuSERv0z8Ro54knBW9OCswBPC342bhAnPEU/ZYYnekP5wLbDcp/TUcG2QcpJIST1AetwA3OEsYlf5gpkQ4L7kMZnO2UYP8og5UeCe7DmVNbs4eFidQPaf3b+oo9XE1I6eV7UI+QdWdjjOjEX9PtONu0+wXnfpy9hsS5IvUaX38xnmvjTqaT/VGtng83g51fQf8KKKmQDQt9e7ZgA/5WRb7DohMrnNG1j2n1ahfPmlfUH9AHcewH7tlG3siVHja98zDFn43DS4hJTMHH4ryZ5j+Tk4ntxTmzkD+OxIp3Mqg/j+kGiae6wn29vXgszlf6cspFhFoa7ETqy55+GZ5tBo0oI/VPnv5ezw1QBvzzWn1bmrUGQqaCjdHJTfASOvrXk0Ozzgl12AIzgO+fbxoLxAWL7NOR+mdPv5z4CIHEwnSwerDFZIkj/otJRCqUsBYj1l/ScygiXZ/Q+p+NQTbHubdoNYkztov7cYWqbJ0qr37b20u3kV/21L+Ya1U5OrKXXx/DtnIF0927MO3t74r1xqVYVjccQ1nCswk2ftG5rG48jrOk52YsqwKX9NmfLX21evQV0LZCOynZYBHIDY56knrMZUhL3BF8ka1I3aAeG8O2aEOymSujm9Tj5jGWbBNfIb4To2NpzhZ/i0iozibFFfXXxLAt+lbDTpTg1Vo9Kc7YsgecprQdVr1Gq39vJM+BfdgbE3fZ25uMqxLMwX+ToMW/mSvFW7k0O+hxakwpXsCCSkhKQ1bhQMbB5pel+s4sld0RRV5ZkhdmSTAwcmEP+ruy6BCvhyV2/2A6oehF2aL6gX2La98B76vvvkKh0wE1VS++QilXScYPUTP1kmxxUd7pHqqXZnHJFnZJfY9mZ8YixcxH6qctZWIHPgBFj/HYC8xb1Hs88WbINzkfI0/DSKs/jtFV5EP+Tzg/Xqoy9RLM+St2QtM71pxzjD49jzLOxzs99TeezFIHR7FqwkZxPxbVH+jZ5ALRgH5j3Giv4S4iqYgJ1H+YFHDjNlfyIZ3cD6vf8NVfaTEWwu0hX300VR1BRepVWr/INL467A/TZn/U4Nr2oltQz1KvZqhRuddvtattyhjsG72B3K1WODLLFYz6VE69JPOAZcGBVpGfSdj8ojFPixay6G9I374sOdAWPIuaSTh8OcnYwm+MMDUcu1cktahvIkCYPIw5mWRs4XP66CC2jSkfcxV/KpO1BIU93Gn6dpWkFlUSsBI1bDCRsmvmEJZoTXDGIr7dU7+Z2cUbdiwM69rLkLbqOuaDo1IS3bkum7ck5cj4GO59yrK6JZu3JHWLMhZNPVo9MpO1BPdaDAtCPVbdlmRsYcvmzc9NH68eleZscbiD45H6I09Ms7b8flvBooTiq7IIS/PNA+P5ROqTWn+tg21JNxVM0YUz7zyGsoQ70u76YLI3kLu0f9b6rizC0lywLcdIobp7HmXpduW6nyWLWk72q4MdLGQqdUT8gzpL0BJBH6P4oZRidTKbTfauwOWHj9NcidErU6K0ZCi74z7KzppF537kOE17gltAaUryKhMWwBVmmUbYe0aN+M1K+1E5exa2jgW1X+htTcQBYXxl42yA+0mHs71N0K93aBligvwphzRjSrBvcFgmFy8eRZcl8yaHpCmrtAz7ZxzONpWg3+zQ0lSC/FmHNE0l2Lc4bGjm16IxpVmh/Jy3y25lvYFEJjN1m7r1SnirGs1Ifq4oRkatKsy5y9jC55m8jAtjTx8uZvOWZGRQzV5ftg1I9rJ5S0KDoIrMBKbHLFK1pi4Z5NkD+/PPsjoyeVtaUh/WJltOuu0Y0sAf2yKstnFk0oKP2AIiFrh2Z9Wf2Kz1Rsh/1Oab7Gxs+eHw+VLrrPrbObRpv0KMJaJLn7NF2Y7bopL6965odzjqu6rr04n8ZunvbInrlplCsP9hDmuVAPTnLdqwMfy5hN9BOF+w+Hjvpoqqqu/jCAWyhWc6jQb3y9RfYtK/36LN71Hr6ndszvXZzRQtvdfbG44ZNE5sTv2u7Ndx5n1zNUwv0BEOHDPVVH/G5XQ4RrfXe3uspd5UFtjHPRTIXaXKIdg47N8rC9LeaoYS308KXp4WrNLOhdTOYfq+T6esjFvwKa1+LINrU4sr2tdkUKX0tvbHNfE7xmeo7lOvzVA1cQsG08NBaK4y6PSvcKAgSGfcEEPfUu/IoORntSvqV9O+EjuTq9nPavVOzWKJbzbbFKm2+vVMU22iX5MDmeXfyFLWemT439ik39Rk4pLMCN4tQRruQkyeXZapHfXkvu6hTAOheZcaomSzgnnLKkbmj9KuVlLWkfp5X38mLTJTgYRMAE+9w1f/Q9vrDeNVv9TTH3R5iRDi9tg7kJd5+i9i2ciRHx7qBzz1Dyku4BgO5r+mmCojNad1XCauJBO8qc3Wyz7831Is9S3un1JcEa1jskxX2Vc9/b/SMvG9kkuCV3nqf2eKGKZ6jaf+m9dL4roRNlz/F28P9cA/FE8wwm/TL/A5oR/7+tBJ9V+0wXbQF2csltV/Z17MCeQKz7fergkQPWzxBouTHqiXe+oj3phFcOxR2ds0N6rb4Lky3L5YZZM7wJFUr/TVd3kjnFcU93A4eNDQvs9nrKZzzifF1dWM1XnTRQQmQ0t2ox/nirU/mDRRoS2WmvoNIlyyuvf2Dbv3+urfxXVpJiKmJ0vu0zn1D96DJs4rb9o4nyPEARZD/WAGXbQfs1hkYiyyZCUQHmzNpoP4Wxfv8dQPu/Jib5sDUAGGEbNER7jSsSWV8f7BLLldfJmvfsIVyDbPXRoL8XUOU54cYsWMWj3kqX+LNdo0+BDbf1Hkzqh/GhHJAkEMrhtcelsyUx2Sv3PsaoNZry+ieLmvXuxwwaHIUL3U1y9xmCaeBbvLUW0wPrAG/4d8/T2emefW5MHYKkfqYx4hAYPGnh3sjedKfsWWUMFqVaQ+4XEYMkhLvik7lUH/KlFCt4YxWfKSirndGZoLf5mI/3pZeZNVNdwe7nPCi4n+0YukJNwfYK+n9Yloy4r6bt88vMIUf0Cr/2lJ2oIx1T6o1f/K4AgwsfWqF/v9ocQi9mgF4VT6mPH/SBxfDmmtyWRG9vMuGw+Zlr7ANaypVTUlckVuVtjfe+qLcZFjaLauf/DUf47xtkqzdxBhLv/Row7hbNZFaSgaLVP4ZSsCjtrB+GBvjXWPXqlX+ep/WtNKgYwoLni1r76TMBV7Gip7wgDWGXl2z3z1Y8xyhevpNGeLV2Xh2D0qGMtUifU+cxnSEhcHJhrLXJl12LBPLa6+HGvJgwhbWMFsTc3jVMzMTfMYS1bdGzKe6pAEkptJXM4W12ZiutCFi9h1CB6RzVuSxhYLae47OU9Ujz+Os6T3sUBQpKxfiL/4hMuxlvw8B/8+UXTzYRnaU09RTz6GsoTPtUIICTiAi9g79NfNoywdlobIlJmESBySZ6qnzGMs2dbIKIhEjok1av31mbyl2LbPjkUHCIqr29OsLe/voGYoeHSR0I+ZQ6YqugxpibFopu3JGnOgFXtIkrUEh3Ysq0jd6kVcH+oHJaTI2vuS1i/TSM7opmgBZa/QkXFI0h/p369+ku1ADjnhHktrF9Ewqa93dIQ5ImIMW+pN2rbYFuFE4ca6ADD8BUfIRDFP2+biBZmqb2Gb2k5x9B4mv8SFH7eQxt2cDsbx4lrhXsdySYzyCz31Lt1zLzZe5KnfiTc8G6IVdNXMwIbb7vLqvXpMXaJkZM26/6JWv2sCsKNjz9Q+p9X74gLxO8SoxQT08vfislS6FZEiIxGCv9Pq/ZdTFNLHYF/Q6vcNAcphbjcfUH9qZNHDRZlygSNydPdPcpQqjHFHZQJkc/2k9byL8KRJ5CbzcVb9ZcpAroCEw8Mw+JS+ODgifHbhApJ9l68+rQ8nOJKB7DLN3SnxVeT9N1p6Kvsi8Zjd1cHOZIrDSXROBviA/o/uqqCKPxCxUen/pGdMt0TbRPLqtb76z0wIHd1tcJHAOqWjuCAT7CKhR2A68t24E9EsPQG8lLjV1qBvGLzHV6/wCCTu1gYYYIN6VQ6HDqVgnmWW6Z7TpPd66ke8aLi3P+KgFj8JbfbGg5EM97Veb5uRmJBXuV2ryvJ4R0691ZNgWwuLo96ZU7+QIaq6a/23eYdCAsY0/+YcsaQYU8TqHOwxMvGi99X7PfVLSZkcTlePQvZySj7k4ePEJYKjMFJvyel3ZrHsfe/T6tcSVGtAbABdNsr4mhyXEHGJdMVcG+FH59SvJ/g2szyuYyro+KcSbLg92YfybTn912w17LxHqMgl3D71Oc/c5IfmVp4TkHqRv4VWMREbcV261Zdu/Q/vWAnoz+a45OC+hhVprURwia2kL6WI/Dv9KYYiJj+Hgq+oF/pihSc7OyFzdhCJbD6SU//BYwulXry4BP0pT/2eQ8fekKA/6yHmvSF7sRBaLupdOfX79CNzq0vzH/DQGbZwPMe3euoPGDlHOVymHbmHeiin/tSzmon+GCVmPA9pHKJtsTotG15Ozd97c/g/U4u1bsGK+guvP9km0k1AO8v7PTn1l/DmXgaxZ580MOOe/ox1YwqwPbTOTHW4ZYXzWaOMhdlsOtwiJBSpD+bU35pRmBk0Q/loTv0nfOM9/KnkExLfzq1WjHKfjPgO9d8RCArE1VREQ0yjIvJvfyCa+N2e32P/2idLod6jpV51It8vUR7HBSNFvyZY6S1CUMvyQlTxX7PQCeXJgW431uWdguC7MdKr2Q9Q+Z26g3KOTLLdBJs3Hzlea7Q27fuJBZNfLRTPOcSiQZinZks4obi8xlG2fra3gLQJqwzxXQj7aR0ZI5cisj/cxJ1bS6itMHLgwkwVi80Po4atZvMLtt2S21XmDhEeUsdYcCCWRwZYXmOLAb3MWztR2vQXCO/ztJ4vDCg5gtVFowLpy7943ZSc4qc8PgCPY6UBRTDx5Rxnr/rpz2GGRuxWYg8sxQc95W/MYdSja5VQHp4gb3X8qZeWD9Kut+QbzOmLKy9FVuol+3bKjx+NxS+3cvbdVVorbxHunVb8pls+gJzB2udRi/PI+GnU0jw6eUO1vFEJK6tVUS77IK1UaMvbm5X4BdvJ5D3ZqeQjvNKU6UT3+JhPz9OY1i8jOpMS2X5cmddVl5Fdmd3Vq41WCYQ0mIjwGod0NRP8tQ5vWkyw1zmsbSBBX28+u1Zvd+VTPEGrXQmkvRusKIuNjjzUzMzSjbVK+mTwJnkXGGdulpJEkLdIUZJ7hHnElzzwu9Vk42eBjzQ50412pVGX5m9LX+A9KtZG2R2TrTPV+w9n9D5LElCO8ifqDZYFyZaVrAChBvWA8opAdvujYob3R+E9VxZQIExZpzO8nj319pzwc4uzLVw5MWP3OR9nt62U5cdh+bB0AUTCftinV+kL18tYi48EeYbtJy9j62gCCFKWEUgMn1cwO2jTNQBZhtWnYXVZeUBhymbfFUjPLGmFQINxSOTZmXmOplar9pvgjll2u04b+1zSWKY8oDBtTJCEQOKWYjos/bhnXBr7AvMzUHAcxSrXmTEzr/6M2CYHVDbIz3sqd0hMwWS+4Kn83kHEtii5L3pqwbJuJ+SenglcHYwvEI3HalqCjZiDh1s8w9HDtKeltYQlW8AEh6AknYvo1KwNt1oEqVfKRgySIINIzT7Wa9uvoWlHl4046Pg1/5z8HaFl6EIQwg4m6rxZy6hw5i1Ka7CjvPwYGVnzTvf7gx36yjp4/mRvazhY69mfnNeteP3tbPV6UvFLiDT7lDxfvDKdyqXmV2XNr5afrLQqJXaIbmi+Qt+lG3S+Ui8HrQr2olKtWithC/y5FtJHNWxx8RDcYvwXlIFlvmEybHLzNUsigmUryrEdJOEZJNob2RpU99nKs+Gh3L6ZCVe9InXzM5m6F/hqISuGxf2pPM7iGGJ4RTi3ainbl+W5vli050t8w8JYKDku2cyrtf0Nh82h0nOV29IB+dmT+dCSES6Jjn90hCAx4/Vi0JVfAoGYr9081lG0lkUprrzJrmg9dOcl+UWdw77I114lg55nAo+Z9OnFvpKDJHL7CsRtoVRe9oW1or/4gvKtbumvtm5WIKdPHAT7ZUz3iU1lfpFFqmXY3aCEwtjH+V6hzeZVDkroDiTySdGwa//AhBTjiXTY2qSlThbvHgvPh3eV776LysLs1IuFdgBo3926V7uerZaapbmfbFh4g8M1amRQLkpbt3rnb5qcTAcxqyRma0WzWCjKhkgjKgzEp2qbaU3nt8SW7cThG2Q3DKo4FKbUeddAeboqknJea7Yxbuw4ykymchBHzz28YwPQ9RkaiUcK6IaYrSedZA3tO5QbTbbOEAozjFf4yh9uG545yz1SP+DrfGSaHvQbBkcpy6htn8ewBha59N8BuYQxYkvjonWyx8bGlGhZQezzcxcQ6qr2+WYQFlsV8y0zVWzKpGn3iS+vGIoh9M8WNgoJTU4O/KT5s6GR8YLxWO8V1GLzfLtskEvrYkiXQ4M+EW5WjFO6cq4hj7aBTrY6oWBOrRbMx+pOc+SRj96ahXimIp4/4bMgE/PF7NnX2HFhCa2JC9l3SIzdLBCUko/xPuyzUCZr3yGRkzV8smq9NtajSvBEGCsvNwJE8+C2dcCJ3N4bvc5nhthV8GtE+vF7QXk7P6gfEGmZksutphVUzniPZqWoTj3N6MTFZ9PpVu035Xzbh7E9ZXgnRoCGzRsxDJEc1LCgeXXiCl1g65SwQ3LG5uDKAN/kq+X+POrN6NU8SiSKoXiLr3L9yYNjtkVct6SxPDoYIYvBePsoxS6IeBDzdNawwcq8WpTn3dPI9L+xU6UcnVsq2bPe/MD0fAekT1pKzVhV3igD4lBOXLF4dCLAGOMZb+neTsMYGL8cFCgGyoVXkoaKv0itqubTc7plvuCILzBP5tliZYvxKbLFTlpY6Jr9kDQkKrgvgdPf+QplHL/08kPZ+zSzReW3oka2IFK/7Ov5n5ZFTCwuqHyKaA9iZwQRcD7hHBgu3uIwbaENmitq9p4ENXcXjdomBZmraJ/tpp3GLXH2Lgtb5gknowFSQfwx3CXqLexJJKNMZBwU+cWkbxvumNA2TiVzzcDfw+ZcnIyJvcCkNyqYXsjO2XMQQuDE7whkt09/kl0wJMq7Je2GOEksTcSZ4tqQqg182QSTHSVXwuzQhuY+lUtppPd2QJlRhuZi8djNu/y0Vq6eKTdsWvLD1Bhj3xEsSThldMXo9vLlUfITaYPs71xDE1fanhL8o7EV2981rn+lXC3rk6yfac8SuBW3pU7NjIxjiRuRnJ7HbYh5U6/NqTNmwpww3+2pq2Dnmm/R+szGsuIec5+FiRx3pqPKuD54kCMSqGvmWau3+eraeZRZ3czedaax8OJwvz0RESPf6xPU6lFhz5wAltUNiNDOeUQ1fWOSTXXk7b6+6VhXrRQyfb35GEElVvXDQeK5Sdj6lkSpQvot91FN87SAUI/biAkkZ57pp79+xONwq6TERf32ACN1Ljgf/1QJw36ujj/Bub9OuKZaNTZI37fauK+LiwbsNcO7SXx2wnaxLDEDcrlz6dozISvZnyOV16i1wbq23om1KNNp+8zV8w7Mj7TMg3Ym3KsxOvpoLR5NZf/uRKN5vlvqiG2KXTBLLLZDKus9mx/0O2hgpQ9fL0GtHiVIf4dY7DnjmeYi29C7fU6DMaklrCDLM2IaHDZmYPGLAfujvYnwTrkxRNPtjoG82XCGStHSLP6wmy3IPSj35ehKftfGZ7E9A2HURiKULyb0FXmbW+5F8lvopR3WG9qUxYnXdYiWy9XXCS4tLwxRM9mXyK8g+MzEnzQtbFjLawRwCo1xDyo8/8CMCqwcZ9Gi0AUuBcVhAMJ07KD8KvPGGk9eeHhLB2ZsOh60eCRx1ziTZbuSu+L48lcY38I85aaT23EBxVJc2qA7cqWFr7PdGx/2Irk1Grink2wZ+9wajly3WTyeyZcGstBMFNhWWrdamKvJ3z5hm9u20dwnK23LDdPqZLtnxrOlvAw6ZNNjldrPefWPc7ScyuaZSwuDSPVFTssE5C9ypoeGI/i+Wb9wDY/ZBPMIBy7uijMxmV6biWdp4T8fsqAkVm8+gwLk2tW7kxmB/pnLehEHMAfHNiCpbGczP7E5R/WVGDDP1gBVYhM1GbuynKu2isHe5zw5q/Tlpyr5pM0wtbMFU9G2bn7YiSO8hlOILrYn+3sTXLNtIuuikfQHW5ex0eBQuHmc4YTqTd0dWYyXUB++MaEIlHMSimNS5Mrpgq3g5S2XOlRwpaVh1EQO9EL0JcmEolJgfGZUggGyIxDU0bmeGYY8ojUbcSQrh1nFz8GKI6B+KC1i8bbwRNyIStKOE3ikPsKxup0Y/8RRwwqmFyGqFRAwMXcpGukYh1l6tkWsxo4GazhhwzeNfRxXdDx4MMl4l01LSabFB4onEAzTN4zKlrIyrg8ePDYE5rGfdO4TEvqIj/czkbPcBwvXxUqKjkWNmCPJmVb08Wbj7oVzfOhdFPPJoHPmB6jqs1husXtFs8CwZ9H8OnQr1+ml+XWETLHLmzNKGNdAdFEMU5t57ePJfcX6kg/jOi0zxC3MHFihakyL3Gb3iCsRCdxxdVA0hlEcjEbEaSuCWUgwnG4NZnF+TptmqMqXr2oTIDdnLlUglm9BggG1WqVtM958VfY580IEyewbLghMHldeYE7lMTt7VaysmMFQJofoq/xGj9UYmY7FEtejXjSLlc5yV59EqS5Hh7Dh8vVznM6y7HOoPfYr4e9vzethvBQqnAjle4deZOgTe+fHQ7M/xWW6Lm9aenSFjoZJjxxT14lIfZ4jy1wnjRkm7puaeW7+Ym5rIkvLknWwQKVEXpH6O18vUkYcyH5yg0AYioDJQeDsPGwqbZv3NuRkkoaL5Lgg3vegXyTUgQZQpTzAq9sa9GZMKes/kHiYCW2pVW5lkpzusDPTqHTIuy2iZfqMOBfR/JgpPfWcU0ggV+Inz2WJywZqff287Ipm93w/q3mPfg7UB3yVLgb1gF6abNHQIePE2C33B+zYg7rleQJbgHkwmxk3075esSKON7BIfciXz5I609+wk8ytja9P0dSU3q6o02bOYpqyNQSshDNz+OYVthyqPyAnAEcSsy+JZDGpV++TS5UmUl/w9TXbmVn6Ip7/4dx8/L2vrmPZb06JXyG76+Ujw2v43yGzjRJpdUPGJMWmLVKf8vWNMybYmaJP++omyYaJFD/jq5uTSSmYrSNkom7ZmWwfRI1xG2JXV6tH7Cbz/w++ujUZXphudAXDtSQ9/qivH3k4vMK29jFf35bIihHIA4NgNBCv1lKxypM50L3xZHwk89+JUcb1AMLUYTA4fUSWL9toyKQTl+rt7957MJgepeHSeae93ib+wb0hV7Lmz3vpY/UwAxFbr7ieddqiJQ4u+1gc1v9WzPNLWBIptX2Okpny9NYIxTTBMmcmUHwrRNwsxozYObUbXbduqkjdXfAssavbyxJszwx8a7BnjbW9p0HVcKrBm6w/AxKpLKocDa3K+SGPIyd3PIvEkNDTFgsBKfdDsG2oGdjevqm8GIHqyOfy8Odr6SURpiXtAhVEIyGicakAxJL9ypzZq8PZZB8vHRaJtzGtT/Y4Etjxe3NmYRgVRXWJ6kkNYhOuhu3QPO045fIi4hgscUhXp5Nef5tOcf02R709L/d/wdjO6OtUvSAn3qJrR704h5GNF3Izi7Y3cuqFObVQgzGyUN5jhUr0JtuUx3o2gHnX4LRCvcvTRpnj/D8SYR4Kb+nQFZX/n3z1aKNB6sVaLwi02oswLnb/uU0ul3ojZ+YWe9vbdEHl1FIkocMQZ9GWLMf5tnT12epEnC+y+9OYQT9HrZgXVXQ7r04a0GkssQ+TXUuOpadtw83e0QhRgzgTzS0auTX9Z19flRl8siS+7Kurd+C0YQ98DOMaw72CorHK2F+OGgezSEQx3h5hognNyKaGLlxrCOXRMlvQA+o6NIVwEgZwxF446oz7Yl62L6qX5fQNBtUaZFA3bsV6EamX5vRN08G2tXXh4NsOBmiciykvqptNO6tT1HAXf5oD+BodtkO/xZQFRE4Ih4vc3uapR+zLIeBovF1gHjFBkN2afAKAK8CBOZ7Id3YfiWM6O5JnhBV7l1elS4zgUduj4f6W/PgnscatwQX+jdRncvox9A5JOgsS2el/eU49NrgC3p5RnNSPGZ7jJcndsSeqZXEJdUZ1LS5Sr8jpnHxTsyCvtDNNcwS8wAiZk/iDUrAsDXd2irsHEkVZSVlhErS2nt5C8lWxOsWsDnZ/48xWhFPOwk6F8zZXYZCsF3QPoS1sC/eoYH77iZq0d1EIQdHE4hZBPdEo1Ls8ZIVNt3ePaEIv7V+OW74S8ToDkik7sX9l/IqML14B3PMzhHiEsLR2X1YtY3Ry4Eopp33Jrkp7QpbbEqhpWqjPc8jvXwm70IqflBrlU577e2ylLonZv1T8N4x1QlqSdecRawIu2/iFnsaFhs8rc/h8PbttC7VBqhNyaRsU6jBTa9VGQXZMHbblL6MBeYVqxfzBeHutByAf1msFoftrz/mauZRcyF6bL5pnNOa6nNyS3EHFN+3LcfutgT0Xp/1Y+sr9SJq3DeazDS7MNbiYbXApbrAwtjdW3AE9zA33ivJ2mGeX4xzC5UQvkkh7zvirFv9clR9c2p9ig1m4FvV6doo9dy+t3phjm3UPNi3mIe5sdrDBodhji3oTl+/SsIzeYrhel69DOr5JmFpdK0/IkrtX99d4bVYzC/KHFu2DJXvxZe6D3Z8GL1VESYBywb2dQlUmMV9vcDctOTIL3EbL3xo3Il9MMl0ub2OSpfVWgN61TAH55Ww+S3jC/mWrFTNFJ2mF5JSdvMqa9OY0ter2z7Geob/mm2fdaqNxzlyvX1UP3NdDr67Qi1anXRbKa1KJoNmDJJOI53U5Je/5HbowvXAg26qJfCeaXotnxgSEmWV7QQlNuhqgwUEz+Ei9IZe+41qL543ahNhwgDl6UFP3ojXRFYETLjKbOJKGjVwQ6D4Io9yvhopOzmv8a/BH4qoh9/bYAGoPxSzqsTWI+F9zbz8SemGyIe1w5aMZstmM35rpeEoQUIp/K99fkW0f5ocZmrkBmGe8zJX82bmQSHcgOmMec5g4vL1c5Zw//yLQM+/u0id2/rpZoTnhIg9nhCZvPmhpsuQWwrL8DWuXs+vVZZZQmob5SuCyhbqxLThhv+WX5FdcPjYMJ9OXeqeKjJWteta71OTiaEfexyl/M5DvyCo0tdVAEIxk2JC+efbevzfaYIfBzXeKgEek5WJeXuKranzNWWi1K0VjZrT8jWy7Er16YYPEL7hP8ubK8qd68uU7+XehfBf/Lpbv5t+lsvx5nuXyPfx7oiynZxHUSnLHenKtwbWrQKdY9izvEPC00JwpC/YqDC/J1XNXtNeYJzfXduTf62pBvUN6fVX+XtkNJcHdWGrz700lGfHNa5X1juFxC1Cx0HQDeESN4xHprdgMkkeK5bwtqPHvo2QWjAV+dFhjRgEeI716LKIWPo+7l38eX1qT2k8orK5KN5/oHjt8VUta/uqWDOBrnD1+kvwRXNKvLWIASJ+MMSD5urBg/pTeU86tSj+/HktHcntoBHSHDOZOQdwlg7vb/Vm2p66av8p2z2pJZuZpYdOYqKebLjxj0yTPbFaKbTvgbwgbnZb5oN2zKjUZzzcSz5ARPrtaWDV/Hv2bKvWm+SO8z1nttNtGLgX7igVoVfrvrshZGe148krAVoaBqHEB+wi81ui0La91LqYwmmYmyzVopFvy19CrJfsF7LPVYN2+FjonZrwlP/VQz43VrW4vu+4uNO2Nk23qttVCnSUIVCTo1qwGTDtNi8xLbqFW6mvCIHCDXHMTvI6myoeaLZ8yAR0LVcKg0DJ/xPBs9oHPqVTdH8U669Tqia4+jvM1R2rH6fGlirwfbpg+PLGUfr75q2JBPVlqsh0Afp2dgKc4cd4uKdok/bwDN0d6cSdbiLT6VDQ++1Xwp7UamyRPJ4kZPwNYeJtePbMtj6wAnt3Gm1g1ulVIplMXy0HxHHeIwJ58FbgYGI32q/ZZUo5Od1xP8jGcqbMQ48T2iXgXk9lfiufZtrkcU5wIiy2uLy12xXyAUaDTYbNST/p1hl6TXE2CEhtlvEa0ybZ6bbsVBNIq8HXM92rD4q+XEZDeIPKzqBulg6Q3SWrbvNn0JBbWLTQh5ICPELakt0rqWD1SpIYDAbha4M5V6M5VGzJb1VqhdW/H1KjZF2tA6FnNjKdhqEuVgiVuJtC9VrFs907ay1qgq+ZM2KNTS/QYNyWPLbHyHO4JQa1ZxrZKi1+9FpgA89dgv+zCfhLLJ2iZPxj6tZV6SDdsra+PV9tdos/mSRWZe8LYnn0DNobJsU+wnoWl4UYjzn4jNUXc3yTjI31O7He3RNPQ4u4dZMI4cyeZdpy5i0wnztxNZiPOPJWMUVXJ3EPmPsmYPp5PLP/9sofYqfvmdIf5Flm/bmmT/VaZxqDrZPUAG/C6MSbd2rFfHnm6H/WL8ntV83k/82VNcwC0Hs8A30A8h3fjOWSLAvD4DMmnN3cEL8c9iQLVJpxuhkSBjp+o/aK4yU33MyPluS+3q/TL7WR0iTijeGnzxD5msFAU63GFD76T84pX/NkTATlrIZX5iUE7/ZPY2gCCkRIQXgHzmvx4KT0O5OeOAxHl7uEp/taxA8Fw7OA8wTdDWJhOe47Ris7PtSDelfHz5OP/yckG9WP2AXTsx3gVM6W+LYmfYeUu44ULNxN278exPDQtvg/XbY7M/F4tndUPMauXlQcUMrVeL0YyTMfvA/Ar9wiwZH7+FpPHmrCbLZePj11WI9OBD9OBgCCK8SttZE8P4jwVJFL/sSyNwUEUmfTj2SL6YIb/CYY/cr999JLSthSphUp9g01a7ANea8iRMGgbs6c72AVSr1ntrJuN0A/Ph9ak5rDa7W6hKb5EPrR61cRZH+D49xCPTBC1OX1DoISReeJrsjqY+4QZ08E+HVDAxm028PhLt5ahFUGOgNFop9JXZ5SeDfb28VAl1HWGOKXL1a33LyFpOvBJIpXFh4kcwc1GEGRuxqxgCVp4rMpMTK1hgzVbyjdRrYpEIiQq9fAhuFx8IKj0Gxx7LSxXGvJLYLqa/paFDOdj9MdmMzTv1cr7PzAUAACdmQt0lNW1x883kwwQCPKQJrwDCqLADGpQhGQSlBmXvT6wt1q1TgpqfFQBhYmoVyIQ8MFMldX6qChenAEfqFytyIVJVBQUIbUyAeRlkCLqDATbayuXKz7u73++IUztXbdrlcXH3t/e++z32ed8g+N4jNd0WfHEgmRh1/LptTdcc1XtLTedEZ5y1l1nX3PtxROnR2eanuZE4/QyfU1/U1DgGOMxBU7hhGnX1k2pnRo1PqfjPcaYTqaLAH8s6GZe9xjjGKveDDIFnsKJk2+oLTv9/5PvKfQEZ6YWeuzCwVp4wdRo7fSpk28pu2TqLXeWnTd56u2TZxif+cdqHnRwoMPJ0uTgQnHhhJ9eMmNs2Xk31tbeOiE6rey8aVMUgtCf1E6+NnrTtKnCL5tROx1oejWgpwznh803ZqHnVOuHuaj2upvqphj7MjL3cppjNRcd01x0XHNRnuaiY5oLUHiE5+7CQsfMjfsPeOYZM8N7Y2kkWtAQTY/uMNeYvYXG5zMOPsyetzTWwzPfTCr3NnjMqDwJn++EdonlSEx8zDvvbyVO8PVxJea3hAYhsXemJN7Lk+jjG9ouMQU/lvy3F8/ydQz1jTS+kZTEuuo1BUgbvKuvid5mHMcz18yenM9xfPUtoYsovafBzL4kn+MR5wHjeLFTVpTP8frqSyM9jFMAZ+3F+ZwC36xoepBxCj1zjPkvAu2R4/jqwyWE78OKTcAxOlmpXxq7g8qjq2xAPqeDrz7uLzdOR3Fuzud09NWPSo1wOdWr8jmdcpxOZO9lk88p8tUbU6FenW9GDcvndM7lpgjOpMvzOV18s0al7jZOZzibp+RzipUBfGuPc3mO88M4j9GprRtnZ3y2cbZzuuV0dYFTrTjbOd3FWe9yJn2Uz+mR43TEs7VD8zk9cxkohjPxwnzOib76aPp0N86F0/M5vXJxKjdlsXzOj/JyM3FNPqckt0a5Wbs5n1Mq34jHzQ2NOijHyeWmq81NHp2uptI/VjR0dPd8Tt9cNCfAWXt1PqefPDvJON3gLFmWz+mvNYPlM/n8Ip8zIOdzd3z+c9d8zkDf3benv3Wj2Tsgn1OWi0b5vDWUzxmUy6ey9vLN+ZzB8u02eYC2x/M5J+U8kJ2Jr+RzTs7Zac/alBwnl7Uex7J2jM5Orz+QuNPdn5PkczvnFOlifyqf5tp8zjDlhnz2hFO2Ip9zqm9WTZTdbuBUf5zPOS0vms398znD86KpHp3PGSEPyk0nx7Gj99gcNp57GFTeE7c27NtwxDvi+jGbz/9R/dGDS7wn+C4oMIWZDqYLM9bDQYEi08F05HDxeDztr87fvv6A+3evxU7XexxOl5FGU0/zjaiL6KSLycsMEe9oMNWXw2gjheN5FsJsI8xiRkF5TmD25TD6zTOzf0Wn7WDv9GCXDKd+V9L5twIfk2AYwXPQ1jzPVPvnmb0RNM0CbqI5OtMG5yB4KXCmhO8kSSyo/gjhgWj9N7Qv70no5P/4X3OPM9tx5nDoOKbBMfMcM98x9zrmPsfc75gHHLOMXG1yTjfNTsH7jvkDIh7zmMfxOUSvY7WTwbJ7drkH733G/Nqevfca89Ni9wDuo/f+ngFmoBnqoJA3Ubz6h6uDY04xjzmmn+nq9J4Dqa8ZYkYYvzMfQd+Jj3mME4k+HYRhPNlEshLoInH/2CpPS2hZUIjXmI8skk04VcYEqrwtoV5VjZmTqgKpgVX0twin8fLXoAtTQUtIxmYHs4mBVZHoyKA3XNKL9a9Whksclp5R6Y37d1nDxxwwTtx/bpC5WOkpjTxlEW9j5j2LhEs+xQFP0JtNGNQORm0HtP1ChK4QHoTQ1TUsJBn7DEIHoKfKG0iZqrp0dxz/LBhI9a7yJmOb4A6C+LSFHtltR2TO/Ktx2ACkY3AVzpS76SiN9K1qRywrGXsb19sRcpeMLchHYGm5EPOSVxGehQq8FBIumUW+hle1hE4JeksjZQSUrCyNFON2V4X+12AqM7gpkFpvIRIPWySQujpoJcIl3XE7WdmY2VSZTaCjJXRDZU1USm/AY6wIqUt/FZRES6hblV0SSA0hU1eTz9OrrNJAqgLCegutWSHyIydRBncIXspTdMh1KRWUFaWqj8WQ7UMQnxN4TxR4lfvOZKonz3cQ+4qwPxguUeOst5BiLLVISyjmShhzHUhPkhCmFt4qbyR6KmF+HhS0VoQEUnGSECayq4J2SSDVj7hjwCOVVmkgtbpSVgStWSHyw0rIMS2RJatDrkupoKyYrymXwgyXbAlSzfVwNsn2W8G69BaUpCB8pEKuxIn9PM9BOKD+W4zEn5CIW0gRbrZIaeTCYE30U+kYiau7CWgk2ptdQrjkdaI7l6BWBinC5Xj2Ii9zeZ4JehozK1j/ZNBbE93Gut/wkqEZZkv7UUxdjcKjMAa5hGRsD7G3oWNhJZHtQbygUjEkY/4KtC+HUN4ULnnAQiTKLRL3f0m7fFqBjpk00ILKSHQ8fXNC0BOJ9sbCQGk/CdE2xMbj7tvSPgn7v8Xc/RYSTNIikeirBPWOCOsQ/RLCOjzsrXDXUdAzedZACKl+L6P9Z7j7JMonBT010StZWydznRFpQLS5MpV5VGvnsEWWQ5yDh++5hMbMXkyupvf/ImV/psxeijkMsx2rSNmViKub4xayZI1FaqJbUEyH1UQPUaG/8LjlNhuYi4FUN15aG71khPnT2tiYSWHpmgosLCSZXbGykH3XUGkJLaE34abwIVtpl8T9RTjVDR+KgjSk3yLGTKAHkJBTWiJodQhpCZ2NnktYlqnAyxCcf6kIl4xm6dhxtOzJ1iEpFXRdrEtvCFp7QuRAMtaiJMijVuwtxJE2lxAuOWol6tJMRS1ReqRDMOdiR7bqBJQiIY+0RNDqcJF9uHkJEjuVe7mYRmo0Pv8+aF2UH1IqaLZz5GcT90HoqGJea5HGTBA9A5SVPnhYDrGAul8hgvr2btp0D1V+2CUkY8utRDLWJEIfXv5gddRE8UFKSyP78eM+CwlssUXq0v/hShjztl0iD62ObGI7yHKWbEcSK0JkVhLWDy2RY9JhPZVSuS4rguZ/mA7hkgBj62jQE0j1sIjGKwn1MQO78NBqSmgydiJEh4Foz57D0ghRJ1SZBuKH5O8khtB6CyEstYiGWftATGV6sCRM6r3q31NB/tFALI30QyI3EBszS0FWk9z1FrJtP7RI3C8/mnUaH0bpx2TbwRInrTEdObh7oaML7o8SoTsxXMiyHjTJrUGP4s8mpik7IxAZw/qhrKXd69I69NewO3pxyk3RQO7MdkvTzN8SlKkgU58Q1OAmTlsL0e6ebqWRq4mD0009pNMt7v/nT7e4/2EIOswUNqebMfsskk1oWo5RtovIdDkBydMRusgM5OVknqEwSiUxAvEucN1qm3sZDnXp0TTHsqBHCAEZrg6/ZiDkEParPfjxIofUpbNB7lPjLEI5LoZl0DcTgk+78SH8KcbRly0klPctkoztIx0dFMoR0qHrl4fT96DKodbaivWO+PdKkAudNi/8bGIn1BwSLnlBDb4TOxvtE0jt0uIULwd5dFgd1L5aYJFk7HbMfKLz8Aq2z26SG4bQrJoq0iak3NDNAbZAKqOJzRFCLSySTQxHam0FadtLL00lJ0t4jmhIVtN+FXCrqdoD8kGElRCWUNdtmh57yZz2x2kUuUBXj+tsEsIlj1uIhJuexsy7eNpJaWrFu0Iq/gWEr3Uc67KXZX0hyz5QHEWkaSXOCT4YpBpCbteZugsPc4gxS3XsfIw3SzXpPsbOGnL1IYRN8lXzYxeuvYGm/crXCjhfIPW4hRDmWoQTAsl9mgXjcU2Txg98R570I3Gvsr4fnf6UPOmHwnqXE/eHWT8KzgCZm0AEf6Lvb2AJZ2g2MZ9KLuYMXWwhHfSiRXSG4os29LvYXQvhAyzsl8QOFBawvhXlA4J0gxqls1wtpNGa7HnARq6keAepdbqiJaSLTWYcA6URJeVNx8pr2qi1GrsmeukbtsNRpO+DMwkthxhzQCGpwAfULSFUfQn7Z1j/Tim9CVcKSP08HKd0mryqZWlkhYWUbrNFAqkDZIHyZxMeXo6wXhXbIaWaQKvR053ixlxCNjGOXBVR9a80NDyc878ktINYeV1tuJn8+Jt0gRIktEcs0hKaj553xpGNX2IhVaGGZ4hpEoYhLOAAqkDipUq7x9uR9gwI0eGmFOCKEM2uQGoCGWBc1qUvg+NF1e24sk1ZjkFI0vMJC+mQRotEos1EsF3Xht0YKmTJfnw8QzuiDc4vUNqGJFaEtISexdJ+4Ovq949AtsBtxuxeDcVGKy4rgljRGdCG43UoRSJcchnrt/JMgPCG63og9Rw6zuSJBc19TLjGzDO8UFsXOahR92lFHtLO4obPUdhKzkeqE35OtDmEOSqHfo6pAixcx5NRfqdS543IzyLa10W4l23zOwgPWYhDj1gkGVuEh6t0hfx3kpJiOiTQ1VTJrHsRy7FxaH8WztixydhTgrqtPYIDuiXpPppppL7X44hp4i4rWEHj9QNZWxGJFmK/VnVoZSK9hv1WalGsg82NJvfJtgibjDhkLcKHEOveqaCl/8iVbzoFXQL82h1xcX8Q7dV0zwLtY82613BkCYQPtQu0RCftcHJAj0spNmnaRRYS6lsWCaT2AJEw5huScZigfDQ/OuL+rjT7a4TbFQJWhMisJHJ+aIkc2+N6KqVyXVYE9cm2CDeXqOdetYi+DurStk23gRTiYivJpwn1zaImFNQxkSMs49HwbVSJt+FNC1zp+Fi9/yrih7C1yEL6drZF9MluJeSvltSlR0JER126PwqXQeiPHqwIkVlJWD+0RI65OvBUSuW6rAiap2258s5hNSffLqezJofobGBKjbEINi4gyYaryW2MHM7hZMz9Roj7n7MQo+stEi7Z7krwazlh6ejW9wLKdGIJoY0MYoYzWJ+WiKYyvbgFFUMYYiF1GWMRxjsDzdHxNRFFGlWCjeq8iXDxvjGjO0kOiftX6c5QzqIWsjYSWVIYiQ5BRDu9j4UQpLoNbbqB7lahvsX5ZjKvW9fvdMAJQWtLiMs5fyyiM4QabiCuzSxeg4k9srcckTZeHraQdM+zSEtoGgFzRaiJXgayGxMhnveVztGsfxPiaJa9qEmhOwNmVAwgv1wxWkTVDeLv2RZpr1U7ovQeLxofRVpFjqPETp41NxQ756CFEJotonEXiXJ5MuYwPeRUpTKGzByUpz6yuhWFShWXJyEoVUK2S7uL2MuTEOYVzwaU7JID/8nCg4g9aSH2HrCIPLKXJ516ujzpQq7JjD1F2oSUG7p5nzxo9mNJ9zRdc7kpZhMvkTh+cNPhLaQm+hVaz1BInaj6cJzuRpMN0D21BIe7Qywhgu/lZgnirfjcjSZbp+HTCc7z1OsrnidUwB30sBr8JQsJuvtxRMcJSX7OIkSwziKB1FY0cnvRr2eNmd8TxRdEsFuEw3APQDhMjDggRJeruvQhlvTQbPsU0d6UYStm+mu2rYMzGK+etZByn3scIRNuKoD8GMhtENJz8mkAkcILpL6BApKMJUBgHZMxqwuVzpsxF2piE59lEfoHD+115i3yu6uiJfQQcK4OmHHM5fdpNcH+CnccE/8icj4X4s26Iz0DYT4B7cefB1Vj5epRknI2CXxC3R/B9hJqPBephHQ8AVdj8QWCelY7KAXyPFJvs+Ql6diIY69A3EjK7HbfSFL5JBWiVItal/6jroQr4HzB2octROI2i3DtQHKfxuEZIB/i8lCk3tP9fza+b9Hapfh+CM4BjoBvRCjFK3V8GO3cvYyJ4lExzfMbCyEstUggtQrYWXevjUTWicTvIjqOoWRMc+87fP+K56DC/R67O3D5e5as0f1SBFueTccR/RRECd+zCFGoAyKcNqtZ2FlH1Qo4N3IYL4YQG8vQ1M9mKp5bTdV1Dtgjuif81iLucF6jO+9qtLUS5Fri66w9sBEnh/Gi7XqBvriU1/uVgndZOx+/3oDboB35GvWczcsLJKpeu2MJCb4L8UeRukOEONmu4+VeXJshHbeATEP8JzzXizAGcd35hrH0x5rAvbF7Dk9v/OjnEozJ8Hl6Nul8Qwm4DD8eoVBuUGapPbMWIc4Vw/0xo5yfeIdhqVmfya2Eexf5egod3ytf+miqRmk1594C7bpqbhQrIeS+orgFsuQwHv7gKyqbeNxCnFpjkdKIjmzGo44g/UKhL6jSCM3GfwHRGzuR8jFtmAsqtBCqvgXRzZhbT8h7tFFWwjmEokUWktgGi9REa4G0cjZxHo5sY9ko4JuS6I/m54m/P1HGXELcfxW2R0EcqZ1zLhIOS66D0aILYAOEp8mDrklPKw/6DVCEVfiyWteWdWj/gO3czBIuQZo6yVgPuDvQM0q/Yfrob27mio42JqFH4XIHSsbasNuLtVtw+9IKlDXiTN596S1+x9LZRFfnHVKa5u0IHJcFZHzx4McgJXcD9RhEcp+iUEM0yqdQwtNwYQol5FcKIeGSMVaiLs2vFFqSTYxn8xn0j1cJ+1nETRAS+srQEkGrQ4iUSsJa0RKZlQ4Lf8WJE/d3YQhw0LBJjiONmXr18jC0jUJ2IJBrujE/4jyZjIuFeLZC190sxkM0p84x5mzcv9AidekImUaiJdSX/E0mmENEiA5NcykVlBVmRO6k08BvR4yZp3l2Lov1aXIFHL+aYCo71Ac3Tmh7VaYlcFeisclCErfTItnEIVci7tcZ78Oehh06FLCUCsoK5twMmE/+z4pqqLYjjRm+aLmzWYTgzseIfl2Ygjp2jbZfIFWMQX1psa90EglxvzUtYRX+6VKWolrFVShLsfYzzZZVUD6HuwJCRj35DNFnMb7YQqtdiH6haAmxjQKpK0B28pyPQ5u0a0ZjTrUYjdRyneI/7ELzvw==(/figma)--&gt;&quot;&gt;&lt;div style=&quot;text-align: left;&quot;&gt;&lt;span style=&quot;background-color: initial;&quot;&gt;- CheepDto&lt;/span&gt;&lt;/div&gt;&lt;/span&gt;&lt;div style=&quot;text-align: left;&quot;&gt;&lt;span style=&quot;background-color: initial;&quot;&gt;- CommentDto&lt;/span&gt;&lt;/div&gt;&lt;div style=&quot;text-align: left;&quot;&gt;&lt;span style=&quot;background-color: initial;&quot;&gt;- ReactionDto&lt;/span&gt;&lt;/div&gt;&lt;div style=&quot;text-align: left;&quot;&gt;&lt;span style=&quot;background-color: initial;&quot;&gt;- UserDto&lt;/span&gt;&lt;/div&gt;&lt;/font&gt;" style="text;html=1;align=center;verticalAlign=middle;resizable=0;points=[];autosize=1;" parent="1" vertex="1">
          <mxGeometry x="610" y="340" width="140" height="120" as="geometry" />
        </mxCell>
        <mxCell id="6Mg8I2pt4XMy21u9XQKC-25" value="&lt;div style=&quot;text-align: left; font-size: 18px;&quot;&gt;&lt;span data-buffer=&quot;&lt;!--(figma)ZmlnLWtpd2kwAAAAnkMAALWde5zrSVXgq36/pB+372PeL4bhjYqI82J4iEg6+XUn9+Y1+SXdc0edkO6kb4ebTtr80j23WddFREBEfCEiIiKLiOgioiKi4oiIiIiIiIiIiMi6LMu6ruuyLuvu91TV75G+d9j9Z+fzmVunTp06VXXq1KlTpyq//iWvNoii3oVB+2h/oNT1ZxuVejdsF1ptxX/1RinoFsuF+noQktWdMGhl8p6hDuolYD+srNcLVaBc2D5fDQDyBuiGgfBaMLSGczc8V2l2W0G1UZCai/VGu7J2vhuWG51qqdtprrcKJam/5MBuqVGX/HKcbwVrrSAsgzoRFoN60AXdLHfv7QSt8yBXsshW0KwK8mSpsrZGeqpYrQT1dne1RevFQih9O53p29lGp8U4AunZmbDdCgo1W0L+Kpe3I766Um8HrUKxXdlgkNUKHbOioeyaVlBs1OtBkcFmOhP38NorF8d9va5waRgh3vuAlSB0YXubaQJF+6Vuo27IlMlstiptaVLXJ/1Bc7cXDSArUtQ2Y4Co1tgwoN4cjvvD8YXWwUho6o36/UGrQYFqlEy5cLB68AQKA1Cq1Ch2asgLUBcL9Y1CCOSttxqdJoC/1irUhC632mhUg0K922giknalUQeZ32CAjRbQgkiQdLFaMWyXgmq10gwFXEYUbaRmNOZEK1jvVAutbrNRPb9umKzQVL0UlBBOSneyHdwnXTqF2IuCOB2er602RPvOVOo0VjdY5qtSPCeiujosF5pBd7PSLndd3WvcDJgOXlsUTV+tNornyF23WSmtG629Hl41GekNtaBUKQDcWK6sl6v8L8U3hTCwg73ZgV2E3aoWpNFbNgthudJt0zK5R2wUWpXCqun/rW0HPNIA3SLyIHdbTOLWzKMYnlkJjy6EYSVkQrtwbnSk7DGXa19QDdxUPTZhJL1pUQjycbVGqWNafXy429sfbA5nu+3BpZmd8dvCezuFVkCpojNucjRjrjWMtnttOIr4WaBk/SRbamzK+HNXmqd8s9AqVKusdBS81m05sS3Mo6vBmmAXg/p6t1RAIgXT+JLkWTEdySxLZq1iuJ4wcKNaCmTqVtqsneD+RkV6ebLZCkrBGlpW6jZbjWIQir6eYhqCqpSfjvW5G1ZcH88kqFqn2q40DfKqWqHeKVS7lXrTSPvqcnBfwSrkNcVysNEy4LVNqjn0dQ2GbUFRGunZDc1qR5q/sdBqNTbjYd5kc7Esbg47tRp96Z7t1JlMw+AWo5OPCJtBUCx3VzurzCSIW82UY5wwSI1WwRiaR66OBuN+jYUr3UFNuu0yM7EuxhHz3aoZk6xLhda5QFh7bpCin76sRhbbKhaPbK7YqDaSXN7ouKmzEGJODGTWLzVKDdYH+SVbJc4ui7ahoYAnwsZau2t4kFspF1rorssZUxy0ArtITwX3FZGTHfnpspntM2Gh3UnsyFWmFYCrqx1E1QgrbWnimmZvOHbauxQ2WAIgFRpVqjAttCZdBaMTlKRGHhgwQEGhqWJwwPkJDiKn9LlKzYo5jxE9WwFY2GAxic1crOyxa4bbvdHASp9trxW0i0bwaxUZp0ZfTWttq7d+sLMz2HY9zlWwPi02vQILiEJVajWaaVavNbCFzGS9hFnqSAe91ULx3DzKl/VbNCZ/oYFGVVAO0KrTxAyT6mpj0wB0oW37EKIR1W6x0BTNzKU5FlSraLaJvDAtDbYn095sOBlTJ94MaJn5Ra7AmuFWzgWptnnVQU92l/Z0uEcurgPvbjlwM6/rB3tbg2lnPJxF8G0VZKiqWbkvqIYAml6zHQqlV5yMo9k0neFFZh68knIzJF0ryP7o0Q8ndj8ssnED5NbgWOraGnmXMdQL4Ww6uTgojIYXxlRImCl2DSYWQGNeHehZ4mJvH42Mx8NwjWroxF56dkGLXGQQvs0G93YqVfZgDB3InNMpMWHWt8gjPpQPA5qgFrJby2K6eXTvIL+Uyd9JfjmTv4v8iUz+bvIrmfxTyZ/M5O8hf6pYaRWzrZ+2oz07GYpkajgVLbBqNdgIZAQ6Hri3OpmMBr1xY38QK0iuU7crFTFSTXZCYB12VrHNBvbuMwvY6KsRfnkyHT5/Mp71RlR3ljEzt+iykYJ3tsMevlYxPUxrbwymsyFLT3CNJkWZqquNdrtRA/Jqk4NoUDyYRpMp8mFbKGD7KFDFViNkpVVawDo4H8jSQ/XIeThwpqlmgaFgC4uoOPkclp4kT1KsVIEWamJRpcoiU4xbDLSUzJ/JLm+w2CfT2nA6lQ4kq8jMOqk2ABYIy8iO1hYV9kq9aNfaE6/ILgxKpQqujc2x6yHXrK+DUmebgaQ63JDEa5bEyfWDS/uT6ez4GvJxeTDpbH5uoagYgcNj2tcxIlmyXrV3NDmYrU+HfcskZ5dVRuJpBz27yvy0TrM3mw2mY4qgqjTNCsFGG1utzXwezCatQTR8PqwTEZnuGMkk/dAJ5Em19vRgvO3UzytVQnF2hKfCN2c3BdDh7Gg0CAdu7ExdK2w4+9jGiyfRRbTL6goHClyNelE2Fr8d1JpssMZVz8VsEOZskEjysv0GUMe7BYajt33RTmMypjIG+n6ka3qg2SjxTQ1sqY1e09xl0rUi9VZRMjExwL6pUJwc0KGpq7fwcPUQu5scv9Bpy86Vy7DKG1ZnD6LZcOeI7MNyaRaKOJgbgT15+Da/GrQ3rWOAlOAT2lk0BhckR4+wcn/QbTewMkZAcwiUjkmu1Jr48OSkBBorjeYkGsrksp+Ach1XhVXE3rGnHUO2ORXbzF7DKajQBK1caouzInLTB3XM7fgYNCRjlizN2kleiqcOU2D9LjkPk9edlpm4VTZkUr9YbRiPNYfb3o1db/L5ThN/Nuias0O31am3K+a0tMAqK1XEuzEKsFiha9NepuWrOEew/A13VVij9a5UZWsir2sNzuG4psCehW2BT62yuGDAOVuAMyFkeZsznvsCVHjJxjHm6G1GuFTCnSRdpuxccD6udoLsRsOesFaA7TjKZi5PJnlWHPlTtolYcU7bLGfCDal9pj3tje2U2hHewobLMaHdZYdg6xVZQKZYyUyxqaLXOOqTevZws9ZqJCcFP4OKd4pcBmf3hHwGk2wKC81OWLY4x2wxxcS8llKUZbWcIhJOJ+RYbXGO00qKiTmdTFGWE2KKEQmn07ajTCJEMbMzc8iY31VzWMvy6jlcwvUa05LDOqbXZnExz+uySMvy+iwq4XgD5q1S7EoZuRvxHYmXFOpYPbMkb+KY0MCbTDE3B72IFWxn/DQhlmJntVKkQAnrOKNx6TNZT0yT9cipIUssKcoJ3Rwmb+vO4RasVU/yi2GzZbeEpXXUky03QSw70gRxwkJmgbCW7epYmUe2N8V8nDyGLHNEAn0q3J5ORqPScGotCZ12a+wrbABI2BhoWxczNBNrMOhjxGYDyoP7muyF1qYW4SBOlcnp9Q67kPYigkM0Bryo9GiCZ2RArzgZ4Xro3FQtK32Bf7wt/vF7/JOz3gmVL5HTR/zjtUBBnSIe5B9/l39yhlM4m+xTYVtg9Vyl952VhsCr9WbT4SWlF/Zuv5283rv9DhJv7/Y7Sfy9OwSZ27tDkPm9OwS50OxNsciVcX9APe/CwbCvHsgwXVGePS5QeNgbHQyoow/M0eFW5a0hpXpvb6C0v9PbG46OoNeR7NUAHkxm0fZ0uD8j5wvtRm867FHlYG8wHW6vDS8cTBEtu7M7IivUjvkE0EQWTOQS2DQzXzXc722j1HN1CTXgMIgRM3lNDMOdKq/AYE0mVwaY5YAhJXhgYPwp1NnMb7Z2sbcfocxpFdafOV5qkm6c8ZoBRz3pug+im+TERSfaKWAeFINdB1zI8G/Gcs92Cxeef/Hk8Z4ATH9CI2QmJ6GqoNNmqelwsAer4fbmYHhhdzZHRHhOhpSQVPD9h9tzJCkfDhdmo1gb9GZmov5WNzlJUqSKdzYNiRuNV2yGgvdlVKRmoKR5F9tcINAjLvFio1Wqky4V1lpSvlyqG6N2ot6pydBWcNwlvneSfVdEc6pk09Pi0ZOe4eAr6VWFgjlEXF206TWcoiS9NrT561obJn5yvSxw0hvCTROpvrEYbkp6E5Ms+JuLRRNYvCW03tkjygT4SG91ftAjG6269O82EQrpo9gnRX6PLrXNWfkxa9WCjOOxtfWWuAmPC9FZ0sdzKpH2n7CGE036xLJNv6ps2/3qts1/zb02fVLTpl8rJy3SJ1fXViX/dY2mSZ/Sapv065u2/u3Nc3WR0x1VzBDpnaTSz7ta7ark7yaV/FMLq60N0nsKqxuSfxqp9PvpG5bPMzboEOkzV6ubMj/fQCp0zyIVum8snCvLOJ5dPGtOkN9UXDML6jnFpskXip2W0K3iMki+iJGUtLRm+QcEAaU/a6R3kq6T3kVapllpr0Iq/M+W7XhobV36Uy03zore4AkbP6dewSEhbZxtPu3ppM2zzacLn3vPNp9xO2nrbPP2u0nD6tma1GsTQxb6DrujzMuGOEmkm6TSj/tq52qCP1+vGvfu/nrnXJv0m9lIpF/fQhqSfusGAid9oBm2Bd8lFfxzW+daku+1mmVJt1qdVZn37RBHmrTftv0YtOvmjLPDNMn8XdggpEa6u2HLhxt23M/bOGf05eJGq90iHZHeSboXhlhwpcakkp+Q3kW6T3o36beRPpV0SnoPaUT6NNIZqcjpgPQZpIdhiO1X6kFS4XeJVPgdkQq/55MKv39FKvy+nVT4/WtS4fcdpMLv35AKvxfoMLxTGH6nLm6YHr5QAGH5XQIIzxcJIEy/WwDh+mIBhO1LBBC+LxVAGH+PAML5ZQCmq98rgHB+uQDC+fsEEM6vEEA4f78AwvkHBBDOPyiAcP4hAYTzDwsgnF8JYPr8IwII51cJIJx/VADh/GoBhPOPCSCcXyOAcP5xAYTzawUQzj8hgHB+HcBdwvknBRDOrxdAOP+UAML5DQII538rgHB+owDC+acFEM5vEkA4/4wAwvnNAHcL558VQDi/RQDh/HMCCOefF0A4/zsBhPNbBRDOvyCAcH6bAML5FwUQzm8HeKpw/iUBhPMvCyCcf0UA4fwOAYTzrwognN8pgHD+NQGE87sEEM6/LoBw/g2Ae4TzbwognN8tgHD+LQGE80MCCOffFkA4v0cA4fw7Agjn9wognH9XAOH8PoCnCeffE0A4v18A4fz7AgjnDwggnP9AAOH8QQGE8x8KIJw/JIBw/iMBhPOHAZ4unP9YAOH8EQGE858IIJw/KoBw/lMBhPPHBBDOfyaAcP64AML5zwUQzp8AMCbqLwQQzp8UQDj/pQDC+VMCCOe/EkA4f1oA4fzXAgjnzwggnP9GAOH8WX08voSLNmO7VncrHbtqnvimtd7+vjhL2tuZTvbEvZtN+NdbHU22lNZbR7NBpHxtA1vK87m+3JX8WDw7/Lh+b9YztIvK3xj2BxPleTFNdFdnOhKiZi+aDcLJwXQbFl40xbvDQRF3cLpdlyAMDYLijF0Uz7XQfx7xDqWXZtJxfMpot9efPBgBeru4LUQLdvEx8Vr7g1lvOALKDRhvJI4I3ush0YQBUS3ghdlgz4RBbdHi4XCLcy7dWOYMKXKxzborduWd+P/b5Dbe2RRhAC9vTYXnmJbJnTCdUd4NZpKuUnpbBKGeq7yJeLMzcfb9w2E03EJwWuVI3KXSaZWP8PojtaMX4D2OdibTPbWrFodmxl6q1ZKB2ru46mPpOqjl3hgkB5iKFAnmKovBvcT7ZWoX1dXks/cn16gTFrM7ORj1i9K/Wm8Mgv7cMJ1wEqIy3VyJpArAyR0jW0PppvQVWp3al5GumSJsszo92Js8b1ikhSaBbWS8qM8cGkV6mVbXEIS+MBxzWpKWN4f9GQNT185hy9aTXVTXbUtLOMvqzTl1vTjCNeaqhIIqL39xcKTGSu+ArQ7HcSVmVzCl4YUBvfM5qZCz7vPzVU4yzk/Oc0tBDuZDO07P710aRu3eBRrWAtZFauh6vLpMLNw2fu32bk+OFINpBIVOcqahSkmG7EUCNw4HU0Kyg3aP+VXv8rQ/MnFaE7bbYta5SBrR+4hNROcvjI72dyN2D73QTy6DIvYOvbjFEfPitx1MZPG+SeurLJsNOgAJPV7aYTCJdF6p9fJObzTaIiK3RkGkxvrELoo4pbGLq5NLcHmt1ivkgF7v65OzJLjLCXjqToh5dcrhB/1EvqdHkwtyEWBI2pNiPPbGzk40mGF91LI+szeMo39Jvav3yMHftv46ra/pczQ7HPSrphNv8PW1JYtI5XzSDtNJS89Jy0ulxRKekxaLaU5a+R36khXOwuWyWHQjhcecBJYcPiOB5f8HCZw4PtqVvh1c1fSf0Z4sZ/qgvNwWkdN+pPocuK2Ndadzfzem49CQJ8qYMGYRpJWitNNEIbAlMewPow2OfZAQDLB1z7F0FlV+1YlTeUvYPXsSRcoPmkXJQpKy8wC+AMnoc5IrRNuwIreImZxMB9XMRSRWcWc4jWaJXKQtOpTNL6zL5ClvcXuyt9djCKt2x0lDEVvKriAGzRhkAo0W0P7lzHv9Q2ePFy63PYulRDnYqqbEW5CXRl4xc9kZnbZgBA7dPdcqVgeZGXStN2WSnKSz3bIBHaNVUlMy9cHswQnkbjwIZw/pP5/IEv8ko7rcLsjWzc0NMtEy8ZF6QOvwaG9rMnLsI5OhXXZ0C8dMImHgEaaRjSKk74M1RMNmw9TFbNFK4xV4HpoAh31wuJeEApDV+mAs2xsScm1Nspz1QTRYY87Xxe1gHEdjE4zRuArDnZ3GeHTUQuqHvZGh9ktWzyt7ewczGZ3ZfSxfb54vGWe9vELEyqn06SXjR7OmQ2jeobV2BQGoIxj0JCvqi9U1cKWPU+rqtwY7kFy0pTFzFpIphNBbFMnK6HuCEfJ3UpeVM2Nwk4P9Sh9/VvlmhoDfzYqxkibzkMYnkM2CIZF9j1YLcTY03N+nCXtmWXnxCp5vLnTcH644bvBhyjdcoyjC/4WigQhE2JX+/40yZAClhyPCVTiguf7Dlbd3B3tfoTchpgdXBRqnAzOBof+AnpuklK45FefHW5hJZiOhwMtNe2vE7c3YKJw4I2ZLY+raoIriNdR64wN2wKNwMGJdDljKKjeMVifTvnNgrkCQjw62JIS5xR4kjbsxLKR9m1fQj6Cgc2UBBaKmM8nTSRmjge2YPkSfQwyXLCKZZfgPiMdiubzlHRzoc1Z1I1OIiHCiD+34yz0ccMKqIuJmL1nOEac/djvn0udHQxzT6ZGs+fYkdGOBTBCc0PUC1nZ/Mh6M3RJaPBjvjOS2WC79siyXhlEnLjKSWbbdLsb1az38/9jwbcdYy1XvH2yNhtEuzKRh6W570h709qpp96QR73gjfoWzjRjyWHPDmQw7NUfCqrETPkhPMTCOWKwYzvVcF+YNzZX5btz5/8SZvaE3CjMzElexrO37IuWdMm7+ddITdMu4+cYbwOL7U/bGAzkT5FJ/P0+S+PsL0f500OtDsRjtTh5E1pxUVgdIsC/mGfIly2ODTQlXeNk04jInbGWXW7nkgJNHDjjVljOE2VQr4x05zZmubijdP7BGn3Y9FHQ2kYLS4HC4HT94iO9RJEBmHmXoIiFLE8T1DI6rFQnBk8fuS8VWfGxgZ3GVi8XNrjkU62ON4PRIRn0aMUdud2QsSK3SZyqHO0O2d5SeWpbnZ1jDDcSPV9h0fkJbGKil5PZccZsWX71pgZMST3LxBZzP/Q/jiClzLpsQ5x0ipl+wjxOBFl0HVnGtL2DpxdFiKbDh0htaSUYtF9TcZtlLZbnYc0+c9GUM7BiSmgQ/K6Vu/ADvcvICOorzIwrqeVsJ2nD5PKJMUUVRE9HFeo/jrJGhoVL5emGD2Lu5plDcLbbsC0IdbpqAvydplzsRQ+C7S0ZzhZ8LOCNLGALOTKdYLSji95wQqLC1bi4wCBI3Ydtt3tXduBuEZ2uGHKqxDBj4E9HBzg73V1iMoRz7TNdYlNt48TPxNWbEGZUfHV4QO2NOY8w/2UrJrJt/ZBWRaxzMxCMVw085Jo7pwPMTv4T8IhRrE8IUoXlqhd26GIFewqcpbEWT0cFs4Dw7jNx2dlR/r9UJ1+WNddek8ipr3XoQuIvBQnWzcD4E0FVzTpHXN7EpuId9kEOk8rDhyar3xwd7IfaCiYgUvryzEYQbIosNZRngxl44wCpOXQ4nmX4xj0v7YiynY/V0tZzh5Bb6CcvN5VYiWyo8HOpkytVhTq2zn6BG5uhLV7VlQZvxZu43sYwQPIgtYtrMO/YlhZWbc9vxoWQXNj5xKGBbRCA3Z1al5cUbCddsrcY5wXjuRbgfrK3Zp2s5LhMaLYHy7q3SAnaQPcfwy+yUti1r52MHwm2P8eYqBMw0YxXNofeRYFyViBmNrQd5TybbFrnLYAwvywWBgzCaLzPMEO4LSt3NcsCKLleqpW5jrWuLudfrxo/yGSGr/bwrkYpeYbqd9IIjGkIsjC8gRUJS7ACZrDcc44a3jKEn69tNp8rBj7oH0yE91P1htD/qHZnFsCIOuMka3af/zdEBURTX2r7JIEmq4ZwTwqDCRTvQpilrDUY9zra7tkJu3yBthb2BDZ9RxU01IO5VCWfJ+kq52sFoNpTWB9O14WDU37BTwQRts6CQPcqgs7fkXI0zQDmY1HoSW1Mqee3j3geJwSbxnFX2rREGysV2OJ9Y6AWp05274F9MGgjG/X05/yGGgQNlI6UbuKf78eRvcVdue/IKT/lJZQBsxagptRhNhtyuaKpBYmlF8iGQlOMqV0qlqnlrhe00usydVoyyb3biF0+2am1oO0czEUjh8kovuwoTatQAE4YWI5agutrYtBaIBVVwomFrbtkfnaS17DL0ks3L3HmjqkC6MB67fRWLR4RhdmSpb3KLVXjbxaq5rjSvJbzkQaDPXV03RuckkxTla4X7kiL2zfvSokXLMildKnLjGrS6XJdVOrJYlhNzcEIMBGK0bwJWTI6b6nUayk75yTWg7lqhVjGP5E6ZrLvOPW0ym3HjZ1ioQdqXq6pBG03qypM0VjCYq5k0duoUcY1FNAsl977xWouo2Sdp19mc6ZXb/K5vSGVzKXxDsVFrot4Gf+Plwlaenom8X8t8p6Uowqi3NZD4j963lHLQeB3n+5SoNuhJlFqCOaLVoZhwlbNrRyVrRrtV5MVrx78iB07FxtBruS0QdsDebOIgP8aaRt7gqdxsEvb2bJb915ishlFXsSYzTv6o7QJ7YYxeG17CXrCJOe+/NjkcOD90MuqfM/aIaATGei0xxF6GtjwkGD49qhCDp0pkrhykQxXTaZsvHvP+cS8HIxGe6ZOJuV3EwI1tNdrbSZsaUebMqcS5LnZM8C23OexfGLBPsDixZB5xHFOXJoP+kDibDCA3G2InZ729/Uo0efo93IzCGsdiCqFwZlBCPOgXJJjtb+Omx5mcFMTr0y8F8ks+pkhtlivtYLVRaMk61uaVmawLj93soiMuVJtluUWWB12i0kDa/EjD/QLLHdgddR0VBKlCNBg7FL+mND9JiXNeiLFAK0KUg60Hd9FVWu2w0ZHqOQI7eB2ZjHoH+ltHOATkxmwY3kvMGVUEJakNpz91f7cXDdSC8gxgkffss1fHb5Gep/xM1hI8bSZDOIHKkVrU08d2pvKSWtQzhlHTnjclNoBOvlVzNuPguy89hvbd3ijVJtP3N3nqBVmkUzH1Zk//mNshf8u4BQUJZEhs4Ze1+t/W72ALWVR3OND2YDCMwsnOzG2NoRTRjbdpbhAm485+n0l3XftFcGvD0Sim+Qny1i+NMT8FpnFoD5iSyiYRl33J9qCNNNSXNVfLJluaG+xvxR4R8M9pZHIFd+gFHrfImaLUt/oXzbXyMf/oIW/yPM6P4QHLCTWYDozNMTu+cPpzNq7D2mQyHg25hhkdxS18Em9ml0gg69+NF8k9QCDcoTPDNgVviAuSERv0z8Ro54knBW9OCswBPC342bhAnPEU/ZYYnekP5wLbDcp/TUcG2QcpJIST1AetwA3OEsYlf5gpkQ4L7kMZnO2UYP8og5UeCe7DmVNbs4eFidQPaf3b+oo9XE1I6eV7UI+QdWdjjOjEX9PtONu0+wXnfpy9hsS5IvUaX38xnmvjTqaT/VGtng83g51fQf8KKKmQDQt9e7ZgA/5WRb7DohMrnNG1j2n1ahfPmlfUH9AHcewH7tlG3siVHja98zDFn43DS4hJTMHH4ryZ5j+Tk4ntxTmzkD+OxIp3Mqg/j+kGiae6wn29vXgszlf6cspFhFoa7ETqy55+GZ5tBo0oI/VPnv5ezw1QBvzzWn1bmrUGQqaCjdHJTfASOvrXk0Ozzgl12AIzgO+fbxoLxAWL7NOR+mdPv5z4CIHEwnSwerDFZIkj/otJRCqUsBYj1l/ScygiXZ/Q+p+NQTbHubdoNYkztov7cYWqbJ0qr37b20u3kV/21L+Ya1U5OrKXXx/DtnIF0927MO3t74r1xqVYVjccQ1nCswk2ftG5rG48jrOk52YsqwKX9NmfLX21evQV0LZCOynZYBHIDY56knrMZUhL3BF8ka1I3aAeG8O2aEOymSujm9Tj5jGWbBNfIb4To2NpzhZ/i0iozibFFfXXxLAt+lbDTpTg1Vo9Kc7YsgecprQdVr1Gq39vJM+BfdgbE3fZ25uMqxLMwX+ToMW/mSvFW7k0O+hxakwpXsCCSkhKQ1bhQMbB5pel+s4sld0RRV5ZkhdmSTAwcmEP+ruy6BCvhyV2/2A6oehF2aL6gX2La98B76vvvkKh0wE1VS++QilXScYPUTP1kmxxUd7pHqqXZnHJFnZJfY9mZ8YixcxH6qctZWIHPgBFj/HYC8xb1Hs88WbINzkfI0/DSKs/jtFV5EP+Tzg/Xqoy9RLM+St2QtM71pxzjD49jzLOxzs99TeezFIHR7FqwkZxPxbVH+jZ5ALRgH5j3Giv4S4iqYgJ1H+YFHDjNlfyIZ3cD6vf8NVfaTEWwu0hX300VR1BRepVWr/INL467A/TZn/U4Nr2oltQz1KvZqhRuddvtattyhjsG72B3K1WODLLFYz6VE69JPOAZcGBVpGfSdj8ojFPixay6G9I374sOdAWPIuaSTh8OcnYwm+MMDUcu1cktahvIkCYPIw5mWRs4XP66CC2jSkfcxV/KpO1BIU93Gn6dpWkFlUSsBI1bDCRsmvmEJZoTXDGIr7dU7+Z2cUbdiwM69rLkLbqOuaDo1IS3bkum7ck5cj4GO59yrK6JZu3JHWLMhZNPVo9MpO1BPdaDAtCPVbdlmRsYcvmzc9NH68eleZscbiD45H6I09Ms7b8flvBooTiq7IIS/PNA+P5ROqTWn+tg21JNxVM0YUz7zyGsoQ70u76YLI3kLu0f9b6rizC0lywLcdIobp7HmXpduW6nyWLWk72q4MdLGQqdUT8gzpL0BJBH6P4oZRidTKbTfauwOWHj9NcidErU6K0ZCi74z7KzppF537kOE17gltAaUryKhMWwBVmmUbYe0aN+M1K+1E5exa2jgW1X+htTcQBYXxl42yA+0mHs71N0K93aBligvwphzRjSrBvcFgmFy8eRZcl8yaHpCmrtAz7ZxzONpWg3+zQ0lSC/FmHNE0l2Lc4bGjm16IxpVmh/Jy3y25lvYFEJjN1m7r1SnirGs1Ifq4oRkatKsy5y9jC55m8jAtjTx8uZvOWZGRQzV5ftg1I9rJ5S0KDoIrMBKbHLFK1pi4Z5NkD+/PPsjoyeVtaUh/WJltOuu0Y0sAf2yKstnFk0oKP2AIiFrh2Z9Wf2Kz1Rsh/1Oab7Gxs+eHw+VLrrPrbObRpv0KMJaJLn7NF2Y7bopL6965odzjqu6rr04n8ZunvbInrlplCsP9hDmuVAPTnLdqwMfy5hN9BOF+w+Hjvpoqqqu/jCAWyhWc6jQb3y9RfYtK/36LN71Hr6ndszvXZzRQtvdfbG44ZNE5sTv2u7Ndx5n1zNUwv0BEOHDPVVH/G5XQ4RrfXe3uspd5UFtjHPRTIXaXKIdg47N8rC9LeaoYS308KXp4WrNLOhdTOYfq+T6esjFvwKa1+LINrU4sr2tdkUKX0tvbHNfE7xmeo7lOvzVA1cQsG08NBaK4y6PSvcKAgSGfcEEPfUu/IoORntSvqV9O+EjuTq9nPavVOzWKJbzbbFKm2+vVMU22iX5MDmeXfyFLWemT439ik39Rk4pLMCN4tQRruQkyeXZapHfXkvu6hTAOheZcaomSzgnnLKkbmj9KuVlLWkfp5X38mLTJTgYRMAE+9w1f/Q9vrDeNVv9TTH3R5iRDi9tg7kJd5+i9i2ciRHx7qBzz1Dyku4BgO5r+mmCojNad1XCauJBO8qc3Wyz7831Is9S3un1JcEa1jskxX2Vc9/b/SMvG9kkuCV3nqf2eKGKZ6jaf+m9dL4roRNlz/F28P9cA/FE8wwm/TL/A5oR/7+tBJ9V+0wXbQF2csltV/Z17MCeQKz7fergkQPWzxBouTHqiXe+oj3phFcOxR2ds0N6rb4Lky3L5YZZM7wJFUr/TVd3kjnFcU93A4eNDQvs9nrKZzzifF1dWM1XnTRQQmQ0t2ox/nirU/mDRRoS2WmvoNIlyyuvf2Dbv3+urfxXVpJiKmJ0vu0zn1D96DJs4rb9o4nyPEARZD/WAGXbQfs1hkYiyyZCUQHmzNpoP4Wxfv8dQPu/Jib5sDUAGGEbNER7jSsSWV8f7BLLldfJmvfsIVyDbPXRoL8XUOU54cYsWMWj3kqX+LNdo0+BDbf1Hkzqh/GhHJAkEMrhtcelsyUx2Sv3PsaoNZry+ieLmvXuxwwaHIUL3U1y9xmCaeBbvLUW0wPrAG/4d8/T2emefW5MHYKkfqYx4hAYPGnh3sjedKfsWWUMFqVaQ+4XEYMkhLvik7lUH/KlFCt4YxWfKSirndGZoLf5mI/3pZeZNVNdwe7nPCi4n+0YukJNwfYK+n9Yloy4r6bt88vMIUf0Cr/2lJ2oIx1T6o1f/K4AgwsfWqF/v9ocQi9mgF4VT6mPH/SBxfDmmtyWRG9vMuGw+Zlr7ANaypVTUlckVuVtjfe+qLcZFjaLauf/DUf47xtkqzdxBhLv/Row7hbNZFaSgaLVP4ZSsCjtrB+GBvjXWPXqlX+ep/WtNKgYwoLni1r76TMBV7Gip7wgDWGXl2z3z1Y8xyhevpNGeLV2Xh2D0qGMtUifU+cxnSEhcHJhrLXJl12LBPLa6+HGvJgwhbWMFsTc3jVMzMTfMYS1bdGzKe6pAEkptJXM4W12ZiutCFi9h1CB6RzVuSxhYLae47OU9Ujz+Os6T3sUBQpKxfiL/4hMuxlvw8B/8+UXTzYRnaU09RTz6GsoTPtUIICTiAi9g79NfNoywdlobIlJmESBySZ6qnzGMs2dbIKIhEjok1av31mbyl2LbPjkUHCIqr29OsLe/voGYoeHSR0I+ZQ6YqugxpibFopu3JGnOgFXtIkrUEh3Ysq0jd6kVcH+oHJaTI2vuS1i/TSM7opmgBZa/QkXFI0h/p369+ku1ADjnhHktrF9Ewqa93dIQ5ImIMW+pN2rbYFuFE4ca6ADD8BUfIRDFP2+biBZmqb2Gb2k5x9B4mv8SFH7eQxt2cDsbx4lrhXsdySYzyCz31Lt1zLzZe5KnfiTc8G6IVdNXMwIbb7vLqvXpMXaJkZM26/6JWv2sCsKNjz9Q+p9X74gLxO8SoxQT08vfislS6FZEiIxGCv9Pq/ZdTFNLHYF/Q6vcNAcphbjcfUH9qZNHDRZlygSNydPdPcpQqjHFHZQJkc/2k9byL8KRJ5CbzcVb9ZcpAroCEw8Mw+JS+ODgifHbhApJ9l68+rQ8nOJKB7DLN3SnxVeT9N1p6Kvsi8Zjd1cHOZIrDSXROBviA/o/uqqCKPxCxUen/pGdMt0TbRPLqtb76z0wIHd1tcJHAOqWjuCAT7CKhR2A68t24E9EsPQG8lLjV1qBvGLzHV6/wCCTu1gYYYIN6VQ6HDqVgnmWW6Z7TpPd66ke8aLi3P+KgFj8JbfbGg5EM97Veb5uRmJBXuV2ryvJ4R0691ZNgWwuLo96ZU7+QIaq6a/23eYdCAsY0/+YcsaQYU8TqHOwxMvGi99X7PfVLSZkcTlePQvZySj7k4ePEJYKjMFJvyel3ZrHsfe/T6tcSVGtAbABdNsr4mhyXEHGJdMVcG+FH59SvJ/g2szyuYyro+KcSbLg92YfybTn912w17LxHqMgl3D71Oc/c5IfmVp4TkHqRv4VWMREbcV261Zdu/Q/vWAnoz+a45OC+hhVprURwia2kL6WI/Dv9KYYiJj+Hgq+oF/pihSc7OyFzdhCJbD6SU//BYwulXry4BP0pT/2eQ8fekKA/6yHmvSF7sRBaLupdOfX79CNzq0vzH/DQGbZwPMe3euoPGDlHOVymHbmHeiin/tSzmon+GCVmPA9pHKJtsTotG15Ozd97c/g/U4u1bsGK+guvP9km0k1AO8v7PTn1l/DmXgaxZ580MOOe/ox1YwqwPbTOTHW4ZYXzWaOMhdlsOtwiJBSpD+bU35pRmBk0Q/loTv0nfOM9/KnkExLfzq1WjHKfjPgO9d8RCArE1VREQ0yjIvJvfyCa+N2e32P/2idLod6jpV51It8vUR7HBSNFvyZY6S1CUMvyQlTxX7PQCeXJgW431uWdguC7MdKr2Q9Q+Z26g3KOTLLdBJs3Hzlea7Q27fuJBZNfLRTPOcSiQZinZks4obi8xlG2fra3gLQJqwzxXQj7aR0ZI5cisj/cxJ1bS6itMHLgwkwVi80Po4atZvMLtt2S21XmDhEeUsdYcCCWRwZYXmOLAb3MWztR2vQXCO/ztJ4vDCg5gtVFowLpy7943ZSc4qc8PgCPY6UBRTDx5Rxnr/rpz2GGRuxWYg8sxQc95W/MYdSja5VQHp4gb3X8qZeWD9Kut+QbzOmLKy9FVuol+3bKjx+NxS+3cvbdVVorbxHunVb8pls+gJzB2udRi/PI+GnU0jw6eUO1vFEJK6tVUS77IK1UaMvbm5X4BdvJ5D3ZqeQjvNKU6UT3+JhPz9OY1i8jOpMS2X5cmddVl5Fdmd3Vq41WCYQ0mIjwGod0NRP8tQ5vWkyw1zmsbSBBX28+u1Zvd+VTPEGrXQmkvRusKIuNjjzUzMzSjbVK+mTwJnkXGGdulpJEkLdIUZJ7hHnElzzwu9Vk42eBjzQ50412pVGX5m9LX+A9KtZG2R2TrTPV+w9n9D5LElCO8ifqDZYFyZaVrAChBvWA8opAdvujYob3R+E9VxZQIExZpzO8nj319pzwc4uzLVw5MWP3OR9nt62U5cdh+bB0AUTCftinV+kL18tYi48EeYbtJy9j62gCCFKWEUgMn1cwO2jTNQBZhtWnYXVZeUBhymbfFUjPLGmFQINxSOTZmXmOplar9pvgjll2u04b+1zSWKY8oDBtTJCEQOKWYjos/bhnXBr7AvMzUHAcxSrXmTEzr/6M2CYHVDbIz3sqd0hMwWS+4Kn83kHEtii5L3pqwbJuJ+SenglcHYwvEI3HalqCjZiDh1s8w9HDtKeltYQlW8AEh6AknYvo1KwNt1oEqVfKRgySIINIzT7Wa9uvoWlHl4046Pg1/5z8HaFl6EIQwg4m6rxZy6hw5i1Ka7CjvPwYGVnzTvf7gx36yjp4/mRvazhY69mfnNeteP3tbPV6UvFLiDT7lDxfvDKdyqXmV2XNr5afrLQqJXaIbmi+Qt+lG3S+Ui8HrQr2olKtWithC/y5FtJHNWxx8RDcYvwXlIFlvmEybHLzNUsigmUryrEdJOEZJNob2RpU99nKs+Gh3L6ZCVe9InXzM5m6F/hqISuGxf2pPM7iGGJ4RTi3ainbl+W5vli050t8w8JYKDku2cyrtf0Nh82h0nOV29IB+dmT+dCSES6Jjn90hCAx4/Vi0JVfAoGYr9081lG0lkUprrzJrmg9dOcl+UWdw77I114lg55nAo+Z9OnFvpKDJHL7CsRtoVRe9oW1or/4gvKtbumvtm5WIKdPHAT7ZUz3iU1lfpFFqmXY3aCEwtjH+V6hzeZVDkroDiTySdGwa//AhBTjiXTY2qSlThbvHgvPh3eV776LysLs1IuFdgBo3926V7uerZaapbmfbFh4g8M1amRQLkpbt3rnb5qcTAcxqyRma0WzWCjKhkgjKgzEp2qbaU3nt8SW7cThG2Q3DKo4FKbUeddAeboqknJea7Yxbuw4ykymchBHzz28YwPQ9RkaiUcK6IaYrSedZA3tO5QbTbbOEAozjFf4yh9uG545yz1SP+DrfGSaHvQbBkcpy6htn8ewBha59N8BuYQxYkvjonWyx8bGlGhZQezzcxcQ6qr2+WYQFlsV8y0zVWzKpGn3iS+vGIoh9M8WNgoJTU4O/KT5s6GR8YLxWO8V1GLzfLtskEvrYkiXQ4M+EW5WjFO6cq4hj7aBTrY6oWBOrRbMx+pOc+SRj96ahXimIp4/4bMgE/PF7NnX2HFhCa2JC9l3SIzdLBCUko/xPuyzUCZr3yGRkzV8smq9NtajSvBEGCsvNwJE8+C2dcCJ3N4bvc5nhthV8GtE+vF7QXk7P6gfEGmZksutphVUzniPZqWoTj3N6MTFZ9PpVu035Xzbh7E9ZXgnRoCGzRsxDJEc1LCgeXXiCl1g65SwQ3LG5uDKAN/kq+X+POrN6NU8SiSKoXiLr3L9yYNjtkVct6SxPDoYIYvBePsoxS6IeBDzdNawwcq8WpTn3dPI9L+xU6UcnVsq2bPe/MD0fAekT1pKzVhV3igD4lBOXLF4dCLAGOMZb+neTsMYGL8cFCgGyoVXkoaKv0itqubTc7plvuCILzBP5tliZYvxKbLFTlpY6Jr9kDQkKrgvgdPf+QplHL/08kPZ+zSzReW3oka2IFK/7Ov5n5ZFTCwuqHyKaA9iZwQRcD7hHBgu3uIwbaENmitq9p4ENXcXjdomBZmraJ/tpp3GLXH2Lgtb5gknowFSQfwx3CXqLexJJKNMZBwU+cWkbxvumNA2TiVzzcDfw+ZcnIyJvcCkNyqYXsjO2XMQQuDE7whkt09/kl0wJMq7Je2GOEksTcSZ4tqQqg182QSTHSVXwuzQhuY+lUtppPd2QJlRhuZi8djNu/y0Vq6eKTdsWvLD1Bhj3xEsSThldMXo9vLlUfITaYPs71xDE1fanhL8o7EV2981rn+lXC3rk6yfac8SuBW3pU7NjIxjiRuRnJ7HbYh5U6/NqTNmwpww3+2pq2Dnmm/R+szGsuIec5+FiRx3pqPKuD54kCMSqGvmWau3+eraeZRZ3czedaax8OJwvz0RESPf6xPU6lFhz5wAltUNiNDOeUQ1fWOSTXXk7b6+6VhXrRQyfb35GEElVvXDQeK5Sdj6lkSpQvot91FN87SAUI/biAkkZ57pp79+xONwq6TERf32ACN1Ljgf/1QJw36ujj/Bub9OuKZaNTZI37fauK+LiwbsNcO7SXx2wnaxLDEDcrlz6dozISvZnyOV16i1wbq23om1KNNp+8zV8w7Mj7TMg3Ym3KsxOvpoLR5NZf/uRKN5vlvqiG2KXTBLLLZDKus9mx/0O2hgpQ9fL0GtHiVIf4dY7DnjmeYi29C7fU6DMaklrCDLM2IaHDZmYPGLAfujvYnwTrkxRNPtjoG82XCGStHSLP6wmy3IPSj35ehKftfGZ7E9A2HURiKULyb0FXmbW+5F8lvopR3WG9qUxYnXdYiWy9XXCS4tLwxRM9mXyK8g+MzEnzQtbFjLawRwCo1xDyo8/8CMCqwcZ9Gi0AUuBcVhAMJ07KD8KvPGGk9eeHhLB2ZsOh60eCRx1ziTZbuSu+L48lcY38I85aaT23EBxVJc2qA7cqWFr7PdGx/2Irk1Grink2wZ+9wajly3WTyeyZcGstBMFNhWWrdamKvJ3z5hm9u20dwnK23LDdPqZLtnxrOlvAw6ZNNjldrPefWPc7ScyuaZSwuDSPVFTssE5C9ypoeGI/i+Wb9wDY/ZBPMIBy7uijMxmV6biWdp4T8fsqAkVm8+gwLk2tW7kxmB/pnLehEHMAfHNiCpbGczP7E5R/WVGDDP1gBVYhM1GbuynKu2isHe5zw5q/Tlpyr5pM0wtbMFU9G2bn7YiSO8hlOILrYn+3sTXLNtIuuikfQHW5ex0eBQuHmc4YTqTd0dWYyXUB++MaEIlHMSimNS5Mrpgq3g5S2XOlRwpaVh1EQO9EL0JcmEolJgfGZUggGyIxDU0bmeGYY8ojUbcSQrh1nFz8GKI6B+KC1i8bbwRNyIStKOE3ikPsKxup0Y/8RRwwqmFyGqFRAwMXcpGukYh1l6tkWsxo4GazhhwzeNfRxXdDx4MMl4l01LSabFB4onEAzTN4zKlrIyrg8ePDYE5rGfdO4TEvqIj/czkbPcBwvXxUqKjkWNmCPJmVb08Wbj7oVzfOhdFPPJoHPmB6jqs1husXtFs8CwZ9H8OnQr1+ml+XWETLHLmzNKGNdAdFEMU5t57ePJfcX6kg/jOi0zxC3MHFihakyL3Gb3iCsRCdxxdVA0hlEcjEbEaSuCWUgwnG4NZnF+TptmqMqXr2oTIDdnLlUglm9BggG1WqVtM958VfY580IEyewbLghMHldeYE7lMTt7VaysmMFQJofoq/xGj9UYmY7FEtejXjSLlc5yV59EqS5Hh7Dh8vVznM6y7HOoPfYr4e9vzethvBQqnAjle4deZOgTe+fHQ7M/xWW6Lm9aenSFjoZJjxxT14lIfZ4jy1wnjRkm7puaeW7+Ym5rIkvLknWwQKVEXpH6O18vUkYcyH5yg0AYioDJQeDsPGwqbZv3NuRkkoaL5Lgg3vegXyTUgQZQpTzAq9sa9GZMKes/kHiYCW2pVW5lkpzusDPTqHTIuy2iZfqMOBfR/JgpPfWcU0ggV+Inz2WJywZqff287Ipm93w/q3mPfg7UB3yVLgb1gF6abNHQIePE2C33B+zYg7rleQJbgHkwmxk3075esSKON7BIfciXz5I609+wk8ytja9P0dSU3q6o02bOYpqyNQSshDNz+OYVthyqPyAnAEcSsy+JZDGpV++TS5UmUl/w9TXbmVn6Ip7/4dx8/L2vrmPZb06JXyG76+Ujw2v43yGzjRJpdUPGJMWmLVKf8vWNMybYmaJP++omyYaJFD/jq5uTSSmYrSNkom7ZmWwfRI1xG2JXV6tH7Cbz/w++ujUZXphudAXDtSQ9/qivH3k4vMK29jFf35bIihHIA4NgNBCv1lKxypM50L3xZHwk89+JUcb1AMLUYTA4fUSWL9toyKQTl+rt7957MJgepeHSeae93ib+wb0hV7Lmz3vpY/UwAxFbr7ieddqiJQ4u+1gc1v9WzPNLWBIptX2Okpny9NYIxTTBMmcmUHwrRNwsxozYObUbXbduqkjdXfAssavbyxJszwx8a7BnjbW9p0HVcKrBm6w/AxKpLKocDa3K+SGPIyd3PIvEkNDTFgsBKfdDsG2oGdjevqm8GIHqyOfy8Odr6SURpiXtAhVEIyGicakAxJL9ypzZq8PZZB8vHRaJtzGtT/Y4Etjxe3NmYRgVRXWJ6kkNYhOuhu3QPO045fIi4hgscUhXp5Nef5tOcf02R709L/d/wdjO6OtUvSAn3qJrR704h5GNF3Izi7Y3cuqFObVQgzGyUN5jhUr0JtuUx3o2gHnX4LRCvcvTRpnj/D8SYR4Kb+nQFZX/n3z1aKNB6sVaLwi02oswLnb/uU0ul3ojZ+YWe9vbdEHl1FIkocMQZ9GWLMf5tnT12epEnC+y+9OYQT9HrZgXVXQ7r04a0GkssQ+TXUuOpadtw83e0QhRgzgTzS0auTX9Z19flRl8siS+7Kurd+C0YQ98DOMaw72CorHK2F+OGgezSEQx3h5hognNyKaGLlxrCOXRMlvQA+o6NIVwEgZwxF446oz7Yl62L6qX5fQNBtUaZFA3bsV6EamX5vRN08G2tXXh4NsOBmiciykvqptNO6tT1HAXf5oD+BodtkO/xZQFRE4Ih4vc3uapR+zLIeBovF1gHjFBkN2afAKAK8CBOZ7Id3YfiWM6O5JnhBV7l1elS4zgUduj4f6W/PgnscatwQX+jdRncvox9A5JOgsS2el/eU49NrgC3p5RnNSPGZ7jJcndsSeqZXEJdUZ1LS5Sr8jpnHxTsyCvtDNNcwS8wAiZk/iDUrAsDXd2irsHEkVZSVlhErS2nt5C8lWxOsWsDnZ/48xWhFPOwk6F8zZXYZCsF3QPoS1sC/eoYH77iZq0d1EIQdHE4hZBPdEo1Ls8ZIVNt3ePaEIv7V+OW74S8ToDkik7sX9l/IqML14B3PMzhHiEsLR2X1YtY3Ry4Eopp33Jrkp7QpbbEqhpWqjPc8jvXwm70IqflBrlU577e2ylLonZv1T8N4x1QlqSdecRawIu2/iFnsaFhs8rc/h8PbttC7VBqhNyaRsU6jBTa9VGQXZMHbblL6MBeYVqxfzBeHutByAf1msFoftrz/mauZRcyF6bL5pnNOa6nNyS3EHFN+3LcfutgT0Xp/1Y+sr9SJq3DeazDS7MNbiYbXApbrAwtjdW3AE9zA33ivJ2mGeX4xzC5UQvkkh7zvirFv9clR9c2p9ig1m4FvV6doo9dy+t3phjm3UPNi3mIe5sdrDBodhji3oTl+/SsIzeYrhel69DOr5JmFpdK0/IkrtX99d4bVYzC/KHFu2DJXvxZe6D3Z8GL1VESYBywb2dQlUmMV9vcDctOTIL3EbL3xo3Il9MMl0ub2OSpfVWgN61TAH55Ww+S3jC/mWrFTNFJ2mF5JSdvMqa9OY0ter2z7Geob/mm2fdaqNxzlyvX1UP3NdDr67Qi1anXRbKa1KJoNmDJJOI53U5Je/5HbowvXAg26qJfCeaXotnxgSEmWV7QQlNuhqgwUEz+Ei9IZe+41qL543ahNhwgDl6UFP3ojXRFYETLjKbOJKGjVwQ6D4Io9yvhopOzmv8a/BH4qoh9/bYAGoPxSzqsTWI+F9zbz8SemGyIe1w5aMZstmM35rpeEoQUIp/K99fkW0f5ocZmrkBmGe8zJX82bmQSHcgOmMec5g4vL1c5Zw//yLQM+/u0id2/rpZoTnhIg9nhCZvPmhpsuQWwrL8DWuXs+vVZZZQmob5SuCyhbqxLThhv+WX5FdcPjYMJ9OXeqeKjJWteta71OTiaEfexyl/M5DvyCo0tdVAEIxk2JC+efbevzfaYIfBzXeKgEek5WJeXuKranzNWWi1K0VjZrT8jWy7Er16YYPEL7hP8ubK8qd68uU7+XehfBf/Lpbv5t+lsvx5nuXyPfx7oiynZxHUSnLHenKtwbWrQKdY9izvEPC00JwpC/YqDC/J1XNXtNeYJzfXduTf62pBvUN6fVX+XtkNJcHdWGrz700lGfHNa5X1juFxC1Cx0HQDeESN4xHprdgMkkeK5bwtqPHvo2QWjAV+dFhjRgEeI716LKIWPo+7l38eX1qT2k8orK5KN5/oHjt8VUta/uqWDOBrnD1+kvwRXNKvLWIASJ+MMSD5urBg/pTeU86tSj+/HktHcntoBHSHDOZOQdwlg7vb/Vm2p66av8p2z2pJZuZpYdOYqKebLjxj0yTPbFaKbTvgbwgbnZb5oN2zKjUZzzcSz5ARPrtaWDV/Hv2bKvWm+SO8z1nttNtGLgX7igVoVfrvrshZGe148krAVoaBqHEB+wi81ui0La91LqYwmmYmyzVopFvy19CrJfsF7LPVYN2+FjonZrwlP/VQz43VrW4vu+4uNO2Nk23qttVCnSUIVCTo1qwGTDtNi8xLbqFW6mvCIHCDXHMTvI6myoeaLZ8yAR0LVcKg0DJ/xPBs9oHPqVTdH8U669Tqia4+jvM1R2rH6fGlirwfbpg+PLGUfr75q2JBPVlqsh0Afp2dgKc4cd4uKdok/bwDN0d6cSdbiLT6VDQ++1Xwp7UamyRPJ4kZPwNYeJtePbMtj6wAnt3Gm1g1ulVIplMXy0HxHHeIwJ58FbgYGI32q/ZZUo5Od1xP8jGcqbMQ48T2iXgXk9lfiufZtrkcU5wIiy2uLy12xXyAUaDTYbNST/p1hl6TXE2CEhtlvEa0ybZ6bbsVBNIq8HXM92rD4q+XEZDeIPKzqBulg6Q3SWrbvNn0JBbWLTQh5ICPELakt0rqWD1SpIYDAbha4M5V6M5VGzJb1VqhdW/H1KjZF2tA6FnNjKdhqEuVgiVuJtC9VrFs907ay1qgq+ZM2KNTS/QYNyWPLbHyHO4JQa1ZxrZKi1+9FpgA89dgv+zCfhLLJ2iZPxj6tZV6SDdsra+PV9tdos/mSRWZe8LYnn0DNobJsU+wnoWl4UYjzn4jNUXc3yTjI31O7He3RNPQ4u4dZMI4cyeZdpy5i0wnztxNZiPOPJWMUVXJ3EPmPsmYPp5PLP/9sofYqfvmdIf5Flm/bmmT/VaZxqDrZPUAG/C6MSbd2rFfHnm6H/WL8ntV83k/82VNcwC0Hs8A30A8h3fjOWSLAvD4DMmnN3cEL8c9iQLVJpxuhkSBjp+o/aK4yU33MyPluS+3q/TL7WR0iTijeGnzxD5msFAU63GFD76T84pX/NkTATlrIZX5iUE7/ZPY2gCCkRIQXgHzmvx4KT0O5OeOAxHl7uEp/taxA8Fw7OA8wTdDWJhOe47Ris7PtSDelfHz5OP/yckG9WP2AXTsx3gVM6W+LYmfYeUu44ULNxN278exPDQtvg/XbY7M/F4tndUPMauXlQcUMrVeL0YyTMfvA/Ar9wiwZH7+FpPHmrCbLZePj11WI9OBD9OBgCCK8SttZE8P4jwVJFL/sSyNwUEUmfTj2SL6YIb/CYY/cr999JLSthSphUp9g01a7ANea8iRMGgbs6c72AVSr1ntrJuN0A/Ph9ak5rDa7W6hKb5EPrR61cRZH+D49xCPTBC1OX1DoISReeJrsjqY+4QZ08E+HVDAxm028PhLt5ahFUGOgNFop9JXZ5SeDfb28VAl1HWGOKXL1a33LyFpOvBJIpXFh4kcwc1GEGRuxqxgCVp4rMpMTK1hgzVbyjdRrYpEIiQq9fAhuFx8IKj0Gxx7LSxXGvJLYLqa/paFDOdj9MdmMzTv1cr7PycWAACNmQt4VNW1x/eZSYZHeISXCQoYEBUUJwFjpZDMBCRR6gu8taJ1EIRIqfK4ONG2F2IgBMVMK5+FlmLxpgkq0oq21RZmAmKRAlI1CaAohqYUdBLAeu2nF7Wt9/ff5xCP1ntv+Rj2OnutvdZ/vfbe5+A4ARM0Pda+8lqkV+Gi8jm331J+19wxZfO+8r3Lb5913ZRF8XtNP9PfOAPMOWawychwjAmYDCdz0oJZFfPK58dNyOl6nzGmm+mhgT92yDbbAsY4xmo3Q01GIHPKzDnleaP/L/l+Ins792phwC4cpoWT58fLF82feVfe9fPv+m7eFTPn3zPzbhMy/7+aHzgA6HKhNDlA6OlqumPmrPK8ReULF9w9N75g0dzyu8flTb7iW+XlC284M/fdvMllC+66a8G95Yv8czeUz5wVn7tgvn/uxrv9MmZANabz8HdEjTGrAiOtQXNt+ey5FfOMfbjEe7jIsY//DKb7F8F0/xIw3b8ETPcvgslYYcxscCzOzHTMskS4I7DCTJka/FZuLJ5RHW++rMsyY9oyTSjXOMCuWr6hti8Spm+wOmAKfBK5oZGdEpuQuCocXP55iZGhYleipqV0KBI7LpXEHp9EcWhqp8S8QI1ZeCIIMr+OqaEZJjSDxFuoQZOBtAHdEqPycwJLGf0cJ1QZbx5NgQVY3ujnBEJLCpKLjRMMVJsd4/2cYKiyIDnKOBlwTIufkxFaMj2+0jiZgeWmZIifkxlack/zd40TgjPjaj8nFKqcHj+PCoNTstrP6SI7w4RguWl7y8/pKg4IuhKDz/vTLbSkpbS3sNWY94b7Od09bEE4JUV+TpanrRucppl+To9QpTFFxukOZ8pKP6dnqDI3VmicLDhtT/s5vcTpa5wecAo+F53eocX3NP9dsa4xeUf9nGwv1rKz6iM/p4+0YSeDesjO9nP6ev70gDNtkJ/Tz7MThDPlczHo73maBSf3cj9ngOyAuieckqv8nLNCS+LNQ43TS7XzXxRvX48TqizLIdJGVaCiPjNPpbvV1lucXX7OwFDlhtrvGCebjNaV+DlnhyoT4UJhhvN9P+ccD7M4Ow75OYM8jvL2Xh8/Z7CXtz5wFn7VzxkiO1+TNqrgdj/nXJ+2pvv9nDxPm7Iz5Wk/Z6iiBmpbBQf9nGHiEE9bBaf9nPO87ASIdHaGnzO8swpWmD29/ZzzpQ07tgrO83Mu8KpAe05bvp9zoVDTPZ152+Rxvpi3M/PsP27e+omjvHVyLpIuYtOdHMwY4edc7CHrD6eqws8Z5fkpzow1fs4lHkfaSp7zc8KetgFELc/4OfniPO7mre1SP6fAy5s6fuHNfs5oLzaqArPIzxnjq4KmdX7OpZ42VcGMHX5OoWJQJNQgeMfPuUzYQK2uGtvFz/mKOLYKVpgZuX7O5V4MVAXT8vycsb4qyB7l53xV2rCjKpgW9XPGeZ6qCkZc4+eMF+rOKuDYGOpxPlcFvnnOGLcK+oizy8+JdEZtuckr9HOiXtS0u5fc5+eU+Hb3vD1+zgStAZl2wxld/ZyJXgRs7+T5OVd4UVMO8gr8nElebBw4z3zDzyn1TjhVwXuL/ZyyTn9qzI7H/JwrhQ1/VAVT9vk5VymeRS6Cpvf9nMkeAlXBMz38nK+J41XBocF+ztWeP6qCpvP9nGu8GKgKHhjt51wrbdhRFTRN8nOu81VB3VQ/53qhJtadVTDP43yxCs7Mc49wq+AscXb5OTeEKjvqOcmzyGhbiZ/zb0KGn6qPqho/5+tePDPg1DX5OTd6mJWdNuPnfMOXnWdG+jk3edqUnZLr/Zxp8rNIUSOj9/g5NwtboVCT0fV+zi3igFrVVve8n/PNzuxwKr/q59zamR12lnf8nJi0YUfZ2RPyc6Z7nio7a/v5ObcJ9TDTzXEvs2cuuiZwH9e6YP8D1Ud3nw6OumNs05VnVX5yoi7YOzQ5w2Smu5gemWSOyzuKTBfTlQt/IBDofHQ+//gF7j899nR63edw459hlpJ53QZ17wNgCz09hD38asbV5PwtfO5PLw0n+kV0wUwiupLsPU23ttCXR4nWR+xd2exSg3QD0V1DtwroqVZ5tSnhFlvyCAd6Lgpn8fsVygIouxBl16OsAmVrUbYRZc8zvk1CP9W12ipYZqp+BrI7Qbip2lR1gKwEZU+g6H3Q9UXROHaVGSi6n1NhM4ubqKI2FJ0GVW92SZBdFT6jrAkllctNXleUTMHVKhTWMZ7CzUEsLgXVnSh9GKVbUXSYUjlBYzq0YP8Vpm7oCi7rVhmIHJDVUufZKJuAkh8uN1VHUHIWSopZeBsuLQAlyFY9hZu7+2U6ZMP319znVDnOUscsc0y1Y5Y7psYxKxxzv4NJs9Ixj5H3l5zRZp+T8bJjXkEkYH4ccEIOmdRrWzeTRaxmY2Sx+2L3gKkaaN/tmP56T/cF72w9Dw4MMeeaCxwU8qSZoP7h1dQxF5ofO2aQ6eUMXMrUOeZ8rgBhpwbBUE6+cRLhiZFEeFw0IAIBE2ivbyhmdIlOlgizImCciubLIhXNj0UCIhAzsB92F4hor8+KBmLx0ZFOoqK5PRLIjY21RLC9/mqtiuYn45H8ZCgaLMt5KBKL94w21G62IxP7LNFQ28bYJRo05sNIQ60TTaZNtL3+RCRY0RyKJsIHUBhi4peCEoqi1ARaSl+Xdpcoy/l5JCgiFt/LbzdK3hSA37LwBGI/tSP2VlpCiNrr/yyJmyLT44cRL2Nin+zJ00akXNfN/cQhlX4cLj66xAmhOF7kIzpZWVHjlOW0FpflXBIF2DcB5hHGDBfCb0ZyYxnYn80vXRxMhOcDdy/ySzC3TRMrIqn0r5h4yI4gXGOJhtp1oPxNcTAW/08ylCRd9ehqLCa7v8By7Xi0PwFn3LiG2kc1pnBmDQBaU/nJB2QuFWyovQMgpjEWn6CxKJgbGwSxoygWz8R+eTERai2uaH4O+63FZCYSECEnTEfQOMn0T7FZ2IipOZZor7/Yrg/mJ9uAOJ/iqON3uphMlhTnJ4vglqBwZcSbeJaJuuLp8YMRuyQR/hCoF0VaSjOigJlNMHpGy3J+YkcknrFEKv17fO+memnF1Uwq6l0mPo4QLhNVrbWUZrLs1Qg6ulNNzwJO4w9UjSLuiZCgN0HoEcZsiASmx/8Img2RoIhYfCsxeo2Jl4T1FR7eBNp2NB2LELjNcN5F6id2ZGKZJVLp25E8qtKaALTXgRVm3CUkgwjpr1k/KJJMPyokg1BY6XIS4TLWF8AZInOT8OAvNNQcluxS0mtI3HoysN6OwVT6F5Zor9+Khc3F6Pg9dncw8SoWjkniEAozWN+K8iERWrorHZMlqJlRFUpZzidILCwmeSco+uailtL96EiPp6RSKClsPJNe82eOInU4NeJr9UR4DK55RCrdEaH0xloClVeiSrmYh3UaOTf2IBM9aeR6O+LjRkuk0pvxwE78BmM9aeYkrvWMoizJ2rdVGL9h5h24m5lIKz6PA7gd4+vtaLWLUD5bSv+kJdMg3uB3JYBecvs4P9lIOC5DapMaVY3tucPIToOTsfiTaMUll6Chaa0iH9HJUme31x+2S4ntYYr6nCiJOlycSo+gIDMwM1oT5wBiXFQd1lAbiRKZOSCaSGRW2pGSXWcJ7S4NtROiRP+XLCmhfn+Lu9EohbIJYmSUzD2OEyOp3zoq7yJNrEP0YmL2sB0JxGJLtJTeSbgukMQtiA5lyS3oyI0GRADZxcxozJZMeXInoSltRP4rlsBBTNlaeIGufJPieIhxmWpxPL6+TAloHKw9czy1dC3qlzF5pwrscSZqAHAMCz9QL/ShsH8EsssB84gaLAaIOvxdhlS9dDwC9zF+PyfVT0QoX1XBk0j9jiVPScdegP2Syb1EP6WNaC9xa3Q5+ckDdraimeSrTlLpd1m72o5I/LslpsenInlU28QYiNeAfAFSe1S4VWDfr7UbwH4KTge70980kQsqHTplaO+mOo2DqCch/qEdmdhgCZVpLJ6lnO/Fs25k5U28YyNrqO2A+AfYP+B3Qu5+it1DQP6UJVvVnJogKw21L31G5CfXFpP9PZbAi52sjrFpbWFhlrbUzXC+xWa9nonaccFkOgFGJc/NpvK6FGqNzpG1lkiEN8qiNowtaGvFyR34l6WW3QvIETzoxJwc4ZRSXB9QCH7P2hpwbYdbrWZ6jnxW8fBzAlWpdqsjwN9D/EdIfUcTCaJdwcMKoN0tHXdBLED8Bn53aGIs4rfyG8HSr0UotIHY/Sq/geAY5E4Yky5W1TTUblcAbgTHGhLlOmU2cASpfbRHgX+WJaSQo7sI8Vbc/R7xehQdnypeOnFKUFpSrB3DTqTSviPImP/lCGqv/4kdAbXVErmxFkCxsWnzzE86NNjHmKfYeB+gNt5AKkQLb1NtHSLS25R17a9NmHsRl4+oUZ6FcwpF6+xIYKstMT1ezkgpt9dfAZCDLCtgfF4Sg9H8JP4PxstadyIRvgXbBUxeos6ZiITDktkwWnRBqGbiZ8RhnR1BuMkSXB/AskUHwE60v0o772PJx8UAOwCovnAPoacgwp4Xor4LXO8oYwKqw6NOoiexO4C1+4E9tQhl7uFxJjHch0/aPD1MjKduZx/1jo+W0ktxwSOM6dCJqPtBh5wqxe77sG8C0D+0YczFSgZRXk5g6MLc2Gp8UB4225ECb7JEfrKD2iR17fUBHk6zXgf+ISntg/gW9PTBBRu6PiR2PK53Z/f9oJiqDdDn32YDOIGVbbrFNBGHcKN7SIUbieUaS7SU1qBn13jc/zYWkkW5sWkgHqtGK2PiQQqsCImniu1B00l0RkCE2lMhAIqI3Ji6YRIRIM4VzTfCCaLqHqAcVI5qmWiggOvtSHmnLBGL78OD14tZchhDmSw5BsYxasKTcG5D6UkksSJCl0I2ZkYqMhF+C2I/3H2YbdMmkLLisqIRK7WWUDPrVs7Ejaw/wG8SE9td6PnJjei4lF9txDxls+0mH1DlluBQAtyuIjL5J3puEX7UMVJrasJEOIJ9X1dqh5FEbuw1JV9LPgTpxaSY1Eqpci0rGknLC5bITx5hRMKYv9FiHxK6EDlHRyLcixw/R3B6MYEVETIrCQ+HlgjYEReplAq6rGg0Tm5sHTApet3jRDTUvoiszc5BiEwgthIVYj89fpyH24jbcSawJ8I94VoJU0qhPgga7SLS8Uel/NeIn8LWOjuSripLtNff5koIr5aoz60ONb+UarRWRMisJCwOLREwVwdIpVTQZUWj+Zh0Uf0EYn+EU+dF7L+kzfcF5PeThCQTb0nRs4TnGL+NTHQo7+uR+AsSCTvi0J2WyI1dA+zj0nEJYA6TkUvQvs+doK/wYSLontVe9Q1A/IKHZfwe1118M+t/qnAdZN0PeUjTzlXS/gmmbkXhJzCGuhMNtUfI10l0rNKJdgTxDJsUerQI7ZuYKGzUW55GJAotkQi/T4Ud1151L7X3ID00gR2tt/a5gVg4V9rPQ/QkYhOA+ztpn4H9tZh7wI4402CJWPzXOMUlPRbfiej7TOwE4UC5u5O4qyu2MlGqyn4G7TcBV/fqGXrjuJm1FTKXhUg1ovuKdVNi7VJSpH16KQj3uBOpdBsmt7B5/FXK3uN2FaTmR2C2a5SQ3Yy4uiJhR5ZstcT0+H4UByVxigz9lZ+bbvMCV17tRlw43Iuw3Y+1UXUScFwWo/ttA2tDde7tBthQttZHwXW+3sXmEZyL2FrngZyrr4iynLFWoqK5yF3SXj+Be5FB/wRt4oMs4Z5dSGj70xKNVocIKZWEtaIlMisddtzN+3h+MptlrXrBPY7J1hS3R0DdXkSQVlEPvQC/CtPV6vJVZPp5uEnC2K5WPo4f3bGSjcLuOpTDltBLmJVQXLVEo9UhgksJeq5nWVo7RSmcq4vKci5j6bjxwB5uAUmpRhdiRfNudehxorEbb5Iga1EehagVe6sAwpYrQu9mkqhoDmi7E8SuREUQybQLsStBmIRSJIRISzRaHS5xFJjXI/GGykcQm5G6DMx/0OYyHM5uHlxg5nVqob3+fia6qh5nWSKV1o4zRFE5G4SFTGaQmWmaUOstptOOkO7V7oTerCTRUNuoibN5eMXqmB4Hg5Tq6JEVjTi23hIVzU+7Errta4kQWh3uG/QmlryOJFZEyKwkLA4tETDpsEilVNBlRaP5iA2uLCefS9knkUB+sq8lqM4+BFQfkXrwo1sU0Iba/kw6lNtARVkXwSFMvo2yPBXja8TvPI6LF+3IxAZL6Gzm+5qOndnsVn1ZUkbog2rBkRDv0IYj0ZVUHkaCKoFTZQTmFuGfjSODkNBBe1ov7hsgthDcF+1Iyb9mCb0La38Aqc7CPxJtB0sB6ejKC+YAdPQAPrcHY3TVuYZlfSmShXpZysfLBYrOKETGsv4C1lLuFc3nsnYr3THAti5uZ7FjNFPMf8cpo3v0n3FqWGNu7EU7on21JXRhUXMRh2yQ6YvhS+i5UJmeQ7sswcocJpPuhHYd3sUp9mxtDn1Adz5YbiUwdHoivJqJImDLbfYCY45aor1eG/5YRbs7kS7EISEdpf3kXB6G87sARq4kRiHeA66b7X/loyX9qjfsQlB4hL4fcScdbwnScR0sg757mQipG92PlrmxZ+yIKy9boqH2KOHglSARPk04HHAFuHOcUDpUWgewrk8wfLQUAQC9hL/BrEfYj5YiKpr32p8+ObE4ycMJfjpvT6ivHrSEPnbYj5bqA320TKXLmNinnMrTRqRc183LxEEJwpJMKVM4217/FK6Ni+LjIUtMj3+AzTFyqRsOX8xRkk0whyjUOQDuw2QOHnyqhOYg3grmbMpnp2B2g/MkKf+A3yPaYA5RJTqKnrIj8ddXAI9o4fpJtDdaAqf1ArIN4wfQuEva3sadP+DFu3hwWBMfwu1g4kN8BIAIfcuraD7Fkr7Ky3FEB9pAJ9OD1Xs74QwD1RN2JN0TPyOIhBsKRs41Pj4ytVGYhuApPL39M+pNvB4C1hkZc4ytsqK5J0Gfup3gdVDrU7en0r/j6L92O2/h66j1ydtbSu9nonQ7VlJ086FtBO2/IdLb2CLI3tvbqJSLcOLYNtoMr3Zq4jrA1zNxK4EbvY0bwlz8Tqcwni6yh3Is3gdZSzxE1j7WF4KHXaIs5w2XlZ9UMiByY3W4vGYbNbIWSydRnGDsvx0s90VS6THb+aLA4onyY5x16IxjpvzLaiaZ7kJVeIQxncH0CJ1o9M6nnxH6vGNZnQT6XIWMxvD/ECpTq1MEU25jMrpEJ0uEeYTYd2ppqH3XDQq3edfz9vr/wFJ/3WSrXCIW/+0Z1l9coiynHz6cJVZ/l2iv1/YIKz959RliGO5hwhj5CaH7ur7ssLzZJRRTOELp4jHfp88S4R4oBTIfUz4jUulKNeoINrwCHDmXkc/9xpxFF83kAM2kbjfr7ag9wssvHzHUvXyPS4RXWaKiOUZMkWgpPYf0zOSGcEq1pO9xeiksAFIDt5pKOePlSrA6CWOW6xI/kcV6gZsGJxwh6fOptxDcBGXWpt2/Du6zaGy0I1vBG5Zorz/lSiTC+u+YEPb0UQwdclhKNcoK5twIGPM/(/figma)--&gt;&quot;&gt;&lt;/span&gt;&lt;span style=&quot;&quot;&gt;Interface repositories:&lt;br&gt;- ICheepRepository&lt;br&gt;- IFollowerRepository&lt;br&gt;- IReactionRepository&lt;br&gt;- IUserRepository&lt;/span&gt;&lt;br&gt;&lt;/div&gt;" style="text;html=1;align=center;verticalAlign=middle;resizable=0;points=[];autosize=1;" parent="1" vertex="1">
          <mxGeometry x="780" y="340" width="200" height="120" as="geometry" />
        </mxCell>
        <mxCell id="6Mg8I2pt4XMy21u9XQKC-26" value="&lt;div style=&quot;font-size: 18px;&quot;&gt;&lt;div style=&quot;&quot;&gt;&lt;span style=&quot;background-color: initial;&quot;&gt;Entities:&lt;/span&gt;&lt;/div&gt;&lt;span data-buffer=&quot;&lt;!--(figma)ZmlnLWtpd2kwAAAAnkMAALWde5zrSVXgq36/pB+372PeL4bhjYqI82J4iEg6+XUn9+Y1+SXdc0edkO6kb4ebTtr80j23WddFREBEfCEiIiKLiOgioiKi4oiIiIiIiIiIiMi6LMu6ruuyLuvu91TV75G+d9j9Z+fzmVunTp06VXXq1KlTpyq//iWvNoii3oVB+2h/oNT1ZxuVejdsF1ptxX/1RinoFsuF+noQktWdMGhl8p6hDuolYD+srNcLVaBc2D5fDQDyBuiGgfBaMLSGczc8V2l2W0G1UZCai/VGu7J2vhuWG51qqdtprrcKJam/5MBuqVGX/HKcbwVrrSAsgzoRFoN60AXdLHfv7QSt8yBXsshW0KwK8mSpsrZGeqpYrQT1dne1RevFQih9O53p29lGp8U4AunZmbDdCgo1W0L+Kpe3I766Um8HrUKxXdlgkNUKHbOioeyaVlBs1OtBkcFmOhP38NorF8d9va5waRgh3vuAlSB0YXubaQJF+6Vuo27IlMlstiptaVLXJ/1Bc7cXDSArUtQ2Y4Co1tgwoN4cjvvD8YXWwUho6o36/UGrQYFqlEy5cLB68AQKA1Cq1Ch2asgLUBcL9Y1CCOSttxqdJoC/1irUhC632mhUg0K922giknalUQeZ32CAjRbQgkiQdLFaMWyXgmq10gwFXEYUbaRmNOZEK1jvVAutbrNRPb9umKzQVL0UlBBOSneyHdwnXTqF2IuCOB2er602RPvOVOo0VjdY5qtSPCeiujosF5pBd7PSLndd3WvcDJgOXlsUTV+tNornyF23WSmtG629Hl41GekNtaBUKQDcWK6sl6v8L8U3hTCwg73ZgV2E3aoWpNFbNgthudJt0zK5R2wUWpXCqun/rW0HPNIA3SLyIHdbTOLWzKMYnlkJjy6EYSVkQrtwbnSk7DGXa19QDdxUPTZhJL1pUQjycbVGqWNafXy429sfbA5nu+3BpZmd8dvCezuFVkCpojNucjRjrjWMtnttOIr4WaBk/SRbamzK+HNXmqd8s9AqVKusdBS81m05sS3Mo6vBmmAXg/p6t1RAIgXT+JLkWTEdySxLZq1iuJ4wcKNaCmTqVtqsneD+RkV6ebLZCkrBGlpW6jZbjWIQir6eYhqCqpSfjvW5G1ZcH88kqFqn2q40DfKqWqHeKVS7lXrTSPvqcnBfwSrkNcVysNEy4LVNqjn0dQ2GbUFRGunZDc1qR5q/sdBqNTbjYd5kc7Esbg47tRp96Z7t1JlMw+AWo5OPCJtBUCx3VzurzCSIW82UY5wwSI1WwRiaR66OBuN+jYUr3UFNuu0yM7EuxhHz3aoZk6xLhda5QFh7bpCin76sRhbbKhaPbK7YqDaSXN7ouKmzEGJODGTWLzVKDdYH+SVbJc4ui7ahoYAnwsZau2t4kFspF1rorssZUxy0ArtITwX3FZGTHfnpspntM2Gh3UnsyFWmFYCrqx1E1QgrbWnimmZvOHbauxQ2WAIgFRpVqjAttCZdBaMTlKRGHhgwQEGhqWJwwPkJDiKn9LlKzYo5jxE9WwFY2GAxic1crOyxa4bbvdHASp9trxW0i0bwaxUZp0ZfTWttq7d+sLMz2HY9zlWwPi02vQILiEJVajWaaVavNbCFzGS9hFnqSAe91ULx3DzKl/VbNCZ/oYFGVVAO0KrTxAyT6mpj0wB0oW37EKIR1W6x0BTNzKU5FlSraLaJvDAtDbYn095sOBlTJ94MaJn5Ra7AmuFWzgWptnnVQU92l/Z0uEcurgPvbjlwM6/rB3tbg2lnPJxF8G0VZKiqWbkvqIYAml6zHQqlV5yMo9k0neFFZh68knIzJF0ryP7o0Q8ndj8ssnED5NbgWOraGnmXMdQL4Ww6uTgojIYXxlRImCl2DSYWQGNeHehZ4mJvH42Mx8NwjWroxF56dkGLXGQQvs0G93YqVfZgDB3InNMpMWHWt8gjPpQPA5qgFrJby2K6eXTvIL+Uyd9JfjmTv4v8iUz+bvIrmfxTyZ/M5O8hf6pYaRWzrZ+2oz07GYpkajgVLbBqNdgIZAQ6Hri3OpmMBr1xY38QK0iuU7crFTFSTXZCYB12VrHNBvbuMwvY6KsRfnkyHT5/Mp71RlR3ljEzt+iykYJ3tsMevlYxPUxrbwymsyFLT3CNJkWZqquNdrtRA/Jqk4NoUDyYRpMp8mFbKGD7KFDFViNkpVVawDo4H8jSQ/XIeThwpqlmgaFgC4uoOPkclp4kT1KsVIEWamJRpcoiU4xbDLSUzJ/JLm+w2CfT2nA6lQ4kq8jMOqk2ABYIy8iO1hYV9kq9aNfaE6/ILgxKpQqujc2x6yHXrK+DUmebgaQ63JDEa5bEyfWDS/uT6ez4GvJxeTDpbH5uoagYgcNj2tcxIlmyXrV3NDmYrU+HfcskZ5dVRuJpBz27yvy0TrM3mw2mY4qgqjTNCsFGG1utzXwezCatQTR8PqwTEZnuGMkk/dAJ5Em19vRgvO3UzytVQnF2hKfCN2c3BdDh7Gg0CAdu7ExdK2w4+9jGiyfRRbTL6goHClyNelE2Fr8d1JpssMZVz8VsEOZskEjysv0GUMe7BYajt33RTmMypjIG+n6ka3qg2SjxTQ1sqY1e09xl0rUi9VZRMjExwL6pUJwc0KGpq7fwcPUQu5scv9Bpy86Vy7DKG1ZnD6LZcOeI7MNyaRaKOJgbgT15+Da/GrQ3rWOAlOAT2lk0BhckR4+wcn/QbTewMkZAcwiUjkmu1Jr48OSkBBorjeYkGsrksp+Ach1XhVXE3rGnHUO2ORXbzF7DKajQBK1caouzInLTB3XM7fgYNCRjlizN2kleiqcOU2D9LjkPk9edlpm4VTZkUr9YbRiPNYfb3o1db/L5ThN/Nuias0O31am3K+a0tMAqK1XEuzEKsFiha9NepuWrOEew/A13VVij9a5UZWsir2sNzuG4psCehW2BT62yuGDAOVuAMyFkeZsznvsCVHjJxjHm6G1GuFTCnSRdpuxccD6udoLsRsOesFaA7TjKZi5PJnlWHPlTtolYcU7bLGfCDal9pj3tje2U2hHewobLMaHdZYdg6xVZQKZYyUyxqaLXOOqTevZws9ZqJCcFP4OKd4pcBmf3hHwGk2wKC81OWLY4x2wxxcS8llKUZbWcIhJOJ+RYbXGO00qKiTmdTFGWE2KKEQmn07ajTCJEMbMzc8iY31VzWMvy6jlcwvUa05LDOqbXZnExz+uySMvy+iwq4XgD5q1S7EoZuRvxHYmXFOpYPbMkb+KY0MCbTDE3B72IFWxn/DQhlmJntVKkQAnrOKNx6TNZT0yT9cipIUssKcoJ3Rwmb+vO4RasVU/yi2GzZbeEpXXUky03QSw70gRxwkJmgbCW7epYmUe2N8V8nDyGLHNEAn0q3J5ORqPScGotCZ12a+wrbABI2BhoWxczNBNrMOhjxGYDyoP7muyF1qYW4SBOlcnp9Q67kPYigkM0Bryo9GiCZ2RArzgZ4Xro3FQtK32Bf7wt/vF7/JOz3gmVL5HTR/zjtUBBnSIe5B9/l39yhlM4m+xTYVtg9Vyl952VhsCr9WbT4SWlF/Zuv5283rv9DhJv7/Y7Sfy9OwSZ27tDkPm9OwS50OxNsciVcX9APe/CwbCvHsgwXVGePS5QeNgbHQyoow/M0eFW5a0hpXpvb6C0v9PbG46OoNeR7NUAHkxm0fZ0uD8j5wvtRm867FHlYG8wHW6vDS8cTBEtu7M7IivUjvkE0EQWTOQS2DQzXzXc722j1HN1CTXgMIgRM3lNDMOdKq/AYE0mVwaY5YAhJXhgYPwp1NnMb7Z2sbcfocxpFdafOV5qkm6c8ZoBRz3pug+im+TERSfaKWAeFINdB1zI8G/Gcs92Cxeef/Hk8Z4ATH9CI2QmJ6GqoNNmqelwsAer4fbmYHhhdzZHRHhOhpSQVPD9h9tzJCkfDhdmo1gb9GZmov5WNzlJUqSKdzYNiRuNV2yGgvdlVKRmoKR5F9tcINAjLvFio1Wqky4V1lpSvlyqG6N2ot6pydBWcNwlvneSfVdEc6pk09Pi0ZOe4eAr6VWFgjlEXF206TWcoiS9NrT561obJn5yvSxw0hvCTROpvrEYbkp6E5Ms+JuLRRNYvCW03tkjygT4SG91ftAjG6269O82EQrpo9gnRX6PLrXNWfkxa9WCjOOxtfWWuAmPC9FZ0sdzKpH2n7CGE036xLJNv6ps2/3qts1/zb02fVLTpl8rJy3SJ1fXViX/dY2mSZ/Sapv065u2/u3Nc3WR0x1VzBDpnaTSz7ta7ark7yaV/FMLq60N0nsKqxuSfxqp9PvpG5bPMzboEOkzV6ubMj/fQCp0zyIVum8snCvLOJ5dPGtOkN9UXDML6jnFpskXip2W0K3iMki+iJGUtLRm+QcEAaU/a6R3kq6T3kVapllpr0Iq/M+W7XhobV36Uy03zore4AkbP6dewSEhbZxtPu3ppM2zzacLn3vPNp9xO2nrbPP2u0nD6tma1GsTQxb6DrujzMuGOEmkm6TSj/tq52qCP1+vGvfu/nrnXJv0m9lIpF/fQhqSfusGAid9oBm2Bd8lFfxzW+daku+1mmVJt1qdVZn37RBHmrTftv0YtOvmjLPDNMn8XdggpEa6u2HLhxt23M/bOGf05eJGq90iHZHeSboXhlhwpcakkp+Q3kW6T3o36beRPpV0SnoPaUT6NNIZqcjpgPQZpIdhiO1X6kFS4XeJVPgdkQq/55MKv39FKvy+nVT4/WtS4fcdpMLv35AKvxfoMLxTGH6nLm6YHr5QAGH5XQIIzxcJIEy/WwDh+mIBhO1LBBC+LxVAGH+PAML5ZQCmq98rgHB+uQDC+fsEEM6vEEA4f78AwvkHBBDOPyiAcP4hAYTzDwsgnF8JYPr8IwII51cJIJx/VADh/GoBhPOPCSCcXyOAcP5xAYTzawUQzj8hgHB+HcBdwvknBRDOrxdAOP+UAML5DQII538rgHB+owDC+acFEM5vEkA4/4wAwvnNAHcL558VQDi/RQDh/HMCCOefF0A4/zsBhPNbBRDOvyCAcH6bAML5FwUQzm8HeKpw/iUBhPMvCyCcf0UA4fwOAYTzrwognN8pgHD+NQGE87sEEM6/LoBw/g2Ae4TzbwognN8tgHD+LQGE80MCCOffFkA4v0cA4fw7Agjn9wognH9XAOH8PoCnCeffE0A4v18A4fz7AgjnDwggnP9AAOH8QQGE8x8KIJw/JIBw/iMBhPOHAZ4unP9YAOH8EQGE858IIJw/KoBw/lMBhPPHBBDOfyaAcP64AML5zwUQzp8AMCbqLwQQzp8UQDj/pQDC+VMCCOe/EkA4f1oA4fzXAgjnzwggnP9GAOH8WX08voSLNmO7VncrHbtqnvimtd7+vjhL2tuZTvbEvZtN+NdbHU22lNZbR7NBpHxtA1vK87m+3JX8WDw7/Lh+b9YztIvK3xj2BxPleTFNdFdnOhKiZi+aDcLJwXQbFl40xbvDQRF3cLpdlyAMDYLijF0Uz7XQfx7xDqWXZtJxfMpot9efPBgBeru4LUQLdvEx8Vr7g1lvOALKDRhvJI4I3ush0YQBUS3ghdlgz4RBbdHi4XCLcy7dWOYMKXKxzborduWd+P/b5Dbe2RRhAC9vTYXnmJbJnTCdUd4NZpKuUnpbBKGeq7yJeLMzcfb9w2E03EJwWuVI3KXSaZWP8PojtaMX4D2OdibTPbWrFodmxl6q1ZKB2ru46mPpOqjl3hgkB5iKFAnmKovBvcT7ZWoX1dXks/cn16gTFrM7ORj1i9K/Wm8Mgv7cMJ1wEqIy3VyJpArAyR0jW0PppvQVWp3al5GumSJsszo92Js8b1ikhSaBbWS8qM8cGkV6mVbXEIS+MBxzWpKWN4f9GQNT185hy9aTXVTXbUtLOMvqzTl1vTjCNeaqhIIqL39xcKTGSu+ArQ7HcSVmVzCl4YUBvfM5qZCz7vPzVU4yzk/Oc0tBDuZDO07P710aRu3eBRrWAtZFauh6vLpMLNw2fu32bk+OFINpBIVOcqahSkmG7EUCNw4HU0Kyg3aP+VXv8rQ/MnFaE7bbYta5SBrR+4hNROcvjI72dyN2D73QTy6DIvYOvbjFEfPitx1MZPG+SeurLJsNOgAJPV7aYTCJdF6p9fJObzTaIiK3RkGkxvrELoo4pbGLq5NLcHmt1ivkgF7v65OzJLjLCXjqToh5dcrhB/1EvqdHkwtyEWBI2pNiPPbGzk40mGF91LI+szeMo39Jvav3yMHftv46ra/pczQ7HPSrphNv8PW1JYtI5XzSDtNJS89Jy0ulxRKekxaLaU5a+R36khXOwuWyWHQjhcecBJYcPiOB5f8HCZw4PtqVvh1c1fSf0Z4sZ/qgvNwWkdN+pPocuK2Ndadzfzem49CQJ8qYMGYRpJWitNNEIbAlMewPow2OfZAQDLB1z7F0FlV+1YlTeUvYPXsSRcoPmkXJQpKy8wC+AMnoc5IrRNuwIreImZxMB9XMRSRWcWc4jWaJXKQtOpTNL6zL5ClvcXuyt9djCKt2x0lDEVvKriAGzRhkAo0W0P7lzHv9Q2ePFy63PYulRDnYqqbEW5CXRl4xc9kZnbZgBA7dPdcqVgeZGXStN2WSnKSz3bIBHaNVUlMy9cHswQnkbjwIZw/pP5/IEv8ko7rcLsjWzc0NMtEy8ZF6QOvwaG9rMnLsI5OhXXZ0C8dMImHgEaaRjSKk74M1RMNmw9TFbNFK4xV4HpoAh31wuJeEApDV+mAs2xsScm1Nspz1QTRYY87Xxe1gHEdjE4zRuArDnZ3GeHTUQuqHvZGh9ktWzyt7ewczGZ3ZfSxfb54vGWe9vELEyqn06SXjR7OmQ2jeobV2BQGoIxj0JCvqi9U1cKWPU+rqtwY7kFy0pTFzFpIphNBbFMnK6HuCEfJ3UpeVM2Nwk4P9Sh9/VvlmhoDfzYqxkibzkMYnkM2CIZF9j1YLcTY03N+nCXtmWXnxCp5vLnTcH644bvBhyjdcoyjC/4WigQhE2JX+/40yZAClhyPCVTiguf7Dlbd3B3tfoTchpgdXBRqnAzOBof+AnpuklK45FefHW5hJZiOhwMtNe2vE7c3YKJw4I2ZLY+raoIriNdR64wN2wKNwMGJdDljKKjeMVifTvnNgrkCQjw62JIS5xR4kjbsxLKR9m1fQj6Cgc2UBBaKmM8nTSRmjge2YPkSfQwyXLCKZZfgPiMdiubzlHRzoc1Z1I1OIiHCiD+34yz0ccMKqIuJmL1nOEac/djvn0udHQxzT6ZGs+fYkdGOBTBCc0PUC1nZ/Mh6M3RJaPBjvjOS2WC79siyXhlEnLjKSWbbdLsb1az38/9jwbcdYy1XvH2yNhtEuzKRh6W570h709qpp96QR73gjfoWzjRjyWHPDmQw7NUfCqrETPkhPMTCOWKwYzvVcF+YNzZX5btz5/8SZvaE3CjMzElexrO37IuWdMm7+ddITdMu4+cYbwOL7U/bGAzkT5FJ/P0+S+PsL0f500OtDsRjtTh5E1pxUVgdIsC/mGfIly2ODTQlXeNk04jInbGWXW7nkgJNHDjjVljOE2VQr4x05zZmubijdP7BGn3Y9FHQ2kYLS4HC4HT94iO9RJEBmHmXoIiFLE8T1DI6rFQnBk8fuS8VWfGxgZ3GVi8XNrjkU62ON4PRIRn0aMUdud2QsSK3SZyqHO0O2d5SeWpbnZ1jDDcSPV9h0fkJbGKil5PZccZsWX71pgZMST3LxBZzP/Q/jiClzLpsQ5x0ipl+wjxOBFl0HVnGtL2DpxdFiKbDh0htaSUYtF9TcZtlLZbnYc0+c9GUM7BiSmgQ/K6Vu/ADvcvICOorzIwrqeVsJ2nD5PKJMUUVRE9HFeo/jrJGhoVL5emGD2Lu5plDcLbbsC0IdbpqAvydplzsRQ+C7S0ZzhZ8LOCNLGALOTKdYLSji95wQqLC1bi4wCBI3Ydtt3tXduBuEZ2uGHKqxDBj4E9HBzg73V1iMoRz7TNdYlNt48TPxNWbEGZUfHV4QO2NOY8w/2UrJrJt/ZBWRaxzMxCMVw085Jo7pwPMTv4T8IhRrE8IUoXlqhd26GIFewqcpbEWT0cFs4Dw7jNx2dlR/r9UJ1+WNddek8ipr3XoQuIvBQnWzcD4E0FVzTpHXN7EpuId9kEOk8rDhyar3xwd7IfaCiYgUvryzEYQbIosNZRngxl44wCpOXQ4nmX4xj0v7YiynY/V0tZzh5Bb6CcvN5VYiWyo8HOpkytVhTq2zn6BG5uhLV7VlQZvxZu43sYwQPIgtYtrMO/YlhZWbc9vxoWQXNj5xKGBbRCA3Z1al5cUbCddsrcY5wXjuRbgfrK3Zp2s5LhMaLYHy7q3SAnaQPcfwy+yUti1r52MHwm2P8eYqBMw0YxXNofeRYFyViBmNrQd5TybbFrnLYAwvywWBgzCaLzPMEO4LSt3NcsCKLleqpW5jrWuLudfrxo/yGSGr/bwrkYpeYbqd9IIjGkIsjC8gRUJS7ACZrDcc44a3jKEn69tNp8rBj7oH0yE91P1htD/qHZnFsCIOuMka3af/zdEBURTX2r7JIEmq4ZwTwqDCRTvQpilrDUY9zra7tkJu3yBthb2BDZ9RxU01IO5VCWfJ+kq52sFoNpTWB9O14WDU37BTwQRts6CQPcqgs7fkXI0zQDmY1HoSW1Mqee3j3geJwSbxnFX2rREGysV2OJ9Y6AWp05274F9MGgjG/X05/yGGgQNlI6UbuKf78eRvcVdue/IKT/lJZQBsxagptRhNhtyuaKpBYmlF8iGQlOMqV0qlqnlrhe00usydVoyyb3biF0+2am1oO0czEUjh8kovuwoTatQAE4YWI5agutrYtBaIBVVwomFrbtkfnaS17DL0ks3L3HmjqkC6MB67fRWLR4RhdmSpb3KLVXjbxaq5rjSvJbzkQaDPXV03RuckkxTla4X7kiL2zfvSokXLMildKnLjGrS6XJdVOrJYlhNzcEIMBGK0bwJWTI6b6nUayk75yTWg7lqhVjGP5E6ZrLvOPW0ym3HjZ1ioQdqXq6pBG03qypM0VjCYq5k0duoUcY1FNAsl977xWouo2Sdp19mc6ZXb/K5vSGVzKXxDsVFrot4Gf+Plwlaenom8X8t8p6Uowqi3NZD4j963lHLQeB3n+5SoNuhJlFqCOaLVoZhwlbNrRyVrRrtV5MVrx78iB07FxtBruS0QdsDebOIgP8aaRt7gqdxsEvb2bJb915ishlFXsSYzTv6o7QJ7YYxeG17CXrCJOe+/NjkcOD90MuqfM/aIaATGei0xxF6GtjwkGD49qhCDp0pkrhykQxXTaZsvHvP+cS8HIxGe6ZOJuV3EwI1tNdrbSZsaUebMqcS5LnZM8C23OexfGLBPsDixZB5xHFOXJoP+kDibDCA3G2InZ729/Uo0efo93IzCGsdiCqFwZlBCPOgXJJjtb+Omx5mcFMTr0y8F8ks+pkhtlivtYLVRaMk61uaVmawLj93soiMuVJtluUWWB12i0kDa/EjD/QLLHdgddR0VBKlCNBg7FL+mND9JiXNeiLFAK0KUg60Hd9FVWu2w0ZHqOQI7eB2ZjHoH+ltHOATkxmwY3kvMGVUEJakNpz91f7cXDdSC8gxgkffss1fHb5Gep/xM1hI8bSZDOIHKkVrU08d2pvKSWtQzhlHTnjclNoBOvlVzNuPguy89hvbd3ijVJtP3N3nqBVmkUzH1Zk//mNshf8u4BQUJZEhs4Ze1+t/W72ALWVR3OND2YDCMwsnOzG2NoRTRjbdpbhAm485+n0l3XftFcGvD0Sim+Qny1i+NMT8FpnFoD5iSyiYRl33J9qCNNNSXNVfLJluaG+xvxR4R8M9pZHIFd+gFHrfImaLUt/oXzbXyMf/oIW/yPM6P4QHLCTWYDozNMTu+cPpzNq7D2mQyHg25hhkdxS18Em9ml0gg69+NF8k9QCDcoTPDNgVviAuSERv0z8Ro54knBW9OCswBPC342bhAnPEU/ZYYnekP5wLbDcp/TUcG2QcpJIST1AetwA3OEsYlf5gpkQ4L7kMZnO2UYP8og5UeCe7DmVNbs4eFidQPaf3b+oo9XE1I6eV7UI+QdWdjjOjEX9PtONu0+wXnfpy9hsS5IvUaX38xnmvjTqaT/VGtng83g51fQf8KKKmQDQt9e7ZgA/5WRb7DohMrnNG1j2n1ahfPmlfUH9AHcewH7tlG3siVHja98zDFn43DS4hJTMHH4ryZ5j+Tk4ntxTmzkD+OxIp3Mqg/j+kGiae6wn29vXgszlf6cspFhFoa7ETqy55+GZ5tBo0oI/VPnv5ezw1QBvzzWn1bmrUGQqaCjdHJTfASOvrXk0Ozzgl12AIzgO+fbxoLxAWL7NOR+mdPv5z4CIHEwnSwerDFZIkj/otJRCqUsBYj1l/ScygiXZ/Q+p+NQTbHubdoNYkztov7cYWqbJ0qr37b20u3kV/21L+Ya1U5OrKXXx/DtnIF0927MO3t74r1xqVYVjccQ1nCswk2ftG5rG48jrOk52YsqwKX9NmfLX21evQV0LZCOynZYBHIDY56knrMZUhL3BF8ka1I3aAeG8O2aEOymSujm9Tj5jGWbBNfIb4To2NpzhZ/i0iozibFFfXXxLAt+lbDTpTg1Vo9Kc7YsgecprQdVr1Gq39vJM+BfdgbE3fZ25uMqxLMwX+ToMW/mSvFW7k0O+hxakwpXsCCSkhKQ1bhQMbB5pel+s4sld0RRV5ZkhdmSTAwcmEP+ruy6BCvhyV2/2A6oehF2aL6gX2La98B76vvvkKh0wE1VS++QilXScYPUTP1kmxxUd7pHqqXZnHJFnZJfY9mZ8YixcxH6qctZWIHPgBFj/HYC8xb1Hs88WbINzkfI0/DSKs/jtFV5EP+Tzg/Xqoy9RLM+St2QtM71pxzjD49jzLOxzs99TeezFIHR7FqwkZxPxbVH+jZ5ALRgH5j3Giv4S4iqYgJ1H+YFHDjNlfyIZ3cD6vf8NVfaTEWwu0hX300VR1BRepVWr/INL467A/TZn/U4Nr2oltQz1KvZqhRuddvtattyhjsG72B3K1WODLLFYz6VE69JPOAZcGBVpGfSdj8ojFPixay6G9I374sOdAWPIuaSTh8OcnYwm+MMDUcu1cktahvIkCYPIw5mWRs4XP66CC2jSkfcxV/KpO1BIU93Gn6dpWkFlUSsBI1bDCRsmvmEJZoTXDGIr7dU7+Z2cUbdiwM69rLkLbqOuaDo1IS3bkum7ck5cj4GO59yrK6JZu3JHWLMhZNPVo9MpO1BPdaDAtCPVbdlmRsYcvmzc9NH68eleZscbiD45H6I09Ms7b8flvBooTiq7IIS/PNA+P5ROqTWn+tg21JNxVM0YUz7zyGsoQ70u76YLI3kLu0f9b6rizC0lywLcdIobp7HmXpduW6nyWLWk72q4MdLGQqdUT8gzpL0BJBH6P4oZRidTKbTfauwOWHj9NcidErU6K0ZCi74z7KzppF537kOE17gltAaUryKhMWwBVmmUbYe0aN+M1K+1E5exa2jgW1X+htTcQBYXxl42yA+0mHs71N0K93aBligvwphzRjSrBvcFgmFy8eRZcl8yaHpCmrtAz7ZxzONpWg3+zQ0lSC/FmHNE0l2Lc4bGjm16IxpVmh/Jy3y25lvYFEJjN1m7r1SnirGs1Ifq4oRkatKsy5y9jC55m8jAtjTx8uZvOWZGRQzV5ftg1I9rJ5S0KDoIrMBKbHLFK1pi4Z5NkD+/PPsjoyeVtaUh/WJltOuu0Y0sAf2yKstnFk0oKP2AIiFrh2Z9Wf2Kz1Rsh/1Oab7Gxs+eHw+VLrrPrbObRpv0KMJaJLn7NF2Y7bopL6965odzjqu6rr04n8ZunvbInrlplCsP9hDmuVAPTnLdqwMfy5hN9BOF+w+Hjvpoqqqu/jCAWyhWc6jQb3y9RfYtK/36LN71Hr6ndszvXZzRQtvdfbG44ZNE5sTv2u7Ndx5n1zNUwv0BEOHDPVVH/G5XQ4RrfXe3uspd5UFtjHPRTIXaXKIdg47N8rC9LeaoYS308KXp4WrNLOhdTOYfq+T6esjFvwKa1+LINrU4sr2tdkUKX0tvbHNfE7xmeo7lOvzVA1cQsG08NBaK4y6PSvcKAgSGfcEEPfUu/IoORntSvqV9O+EjuTq9nPavVOzWKJbzbbFKm2+vVMU22iX5MDmeXfyFLWemT439ik39Rk4pLMCN4tQRruQkyeXZapHfXkvu6hTAOheZcaomSzgnnLKkbmj9KuVlLWkfp5X38mLTJTgYRMAE+9w1f/Q9vrDeNVv9TTH3R5iRDi9tg7kJd5+i9i2ciRHx7qBzz1Dyku4BgO5r+mmCojNad1XCauJBO8qc3Wyz7831Is9S3un1JcEa1jskxX2Vc9/b/SMvG9kkuCV3nqf2eKGKZ6jaf+m9dL4roRNlz/F28P9cA/FE8wwm/TL/A5oR/7+tBJ9V+0wXbQF2csltV/Z17MCeQKz7fergkQPWzxBouTHqiXe+oj3phFcOxR2ds0N6rb4Lky3L5YZZM7wJFUr/TVd3kjnFcU93A4eNDQvs9nrKZzzifF1dWM1XnTRQQmQ0t2ox/nirU/mDRRoS2WmvoNIlyyuvf2Dbv3+urfxXVpJiKmJ0vu0zn1D96DJs4rb9o4nyPEARZD/WAGXbQfs1hkYiyyZCUQHmzNpoP4Wxfv8dQPu/Jib5sDUAGGEbNER7jSsSWV8f7BLLldfJmvfsIVyDbPXRoL8XUOU54cYsWMWj3kqX+LNdo0+BDbf1Hkzqh/GhHJAkEMrhtcelsyUx2Sv3PsaoNZry+ieLmvXuxwwaHIUL3U1y9xmCaeBbvLUW0wPrAG/4d8/T2emefW5MHYKkfqYx4hAYPGnh3sjedKfsWWUMFqVaQ+4XEYMkhLvik7lUH/KlFCt4YxWfKSirndGZoLf5mI/3pZeZNVNdwe7nPCi4n+0YukJNwfYK+n9Yloy4r6bt88vMIUf0Cr/2lJ2oIx1T6o1f/K4AgwsfWqF/v9ocQi9mgF4VT6mPH/SBxfDmmtyWRG9vMuGw+Zlr7ANaypVTUlckVuVtjfe+qLcZFjaLauf/DUf47xtkqzdxBhLv/Row7hbNZFaSgaLVP4ZSsCjtrB+GBvjXWPXqlX+ep/WtNKgYwoLni1r76TMBV7Gip7wgDWGXl2z3z1Y8xyhevpNGeLV2Xh2D0qGMtUifU+cxnSEhcHJhrLXJl12LBPLa6+HGvJgwhbWMFsTc3jVMzMTfMYS1bdGzKe6pAEkptJXM4W12ZiutCFi9h1CB6RzVuSxhYLae47OU9Ujz+Os6T3sUBQpKxfiL/4hMuxlvw8B/8+UXTzYRnaU09RTz6GsoTPtUIICTiAi9g79NfNoywdlobIlJmESBySZ6qnzGMs2dbIKIhEjok1av31mbyl2LbPjkUHCIqr29OsLe/voGYoeHSR0I+ZQ6YqugxpibFopu3JGnOgFXtIkrUEh3Ysq0jd6kVcH+oHJaTI2vuS1i/TSM7opmgBZa/QkXFI0h/p369+ku1ADjnhHktrF9Ewqa93dIQ5ImIMW+pN2rbYFuFE4ca6ADD8BUfIRDFP2+biBZmqb2Gb2k5x9B4mv8SFH7eQxt2cDsbx4lrhXsdySYzyCz31Lt1zLzZe5KnfiTc8G6IVdNXMwIbb7vLqvXpMXaJkZM26/6JWv2sCsKNjz9Q+p9X74gLxO8SoxQT08vfislS6FZEiIxGCv9Pq/ZdTFNLHYF/Q6vcNAcphbjcfUH9qZNHDRZlygSNydPdPcpQqjHFHZQJkc/2k9byL8KRJ5CbzcVb9ZcpAroCEw8Mw+JS+ODgifHbhApJ9l68+rQ8nOJKB7DLN3SnxVeT9N1p6Kvsi8Zjd1cHOZIrDSXROBviA/o/uqqCKPxCxUen/pGdMt0TbRPLqtb76z0wIHd1tcJHAOqWjuCAT7CKhR2A68t24E9EsPQG8lLjV1qBvGLzHV6/wCCTu1gYYYIN6VQ6HDqVgnmWW6Z7TpPd66ke8aLi3P+KgFj8JbfbGg5EM97Veb5uRmJBXuV2ryvJ4R0691ZNgWwuLo96ZU7+QIaq6a/23eYdCAsY0/+YcsaQYU8TqHOwxMvGi99X7PfVLSZkcTlePQvZySj7k4ePEJYKjMFJvyel3ZrHsfe/T6tcSVGtAbABdNsr4mhyXEHGJdMVcG+FH59SvJ/g2szyuYyro+KcSbLg92YfybTn912w17LxHqMgl3D71Oc/c5IfmVp4TkHqRv4VWMREbcV261Zdu/Q/vWAnoz+a45OC+hhVprURwia2kL6WI/Dv9KYYiJj+Hgq+oF/pihSc7OyFzdhCJbD6SU//BYwulXry4BP0pT/2eQ8fekKA/6yHmvSF7sRBaLupdOfX79CNzq0vzH/DQGbZwPMe3euoPGDlHOVymHbmHeiin/tSzmon+GCVmPA9pHKJtsTotG15Ozd97c/g/U4u1bsGK+guvP9km0k1AO8v7PTn1l/DmXgaxZ580MOOe/ox1YwqwPbTOTHW4ZYXzWaOMhdlsOtwiJBSpD+bU35pRmBk0Q/loTv0nfOM9/KnkExLfzq1WjHKfjPgO9d8RCArE1VREQ0yjIvJvfyCa+N2e32P/2idLod6jpV51It8vUR7HBSNFvyZY6S1CUMvyQlTxX7PQCeXJgW431uWdguC7MdKr2Q9Q+Z26g3KOTLLdBJs3Hzlea7Q27fuJBZNfLRTPOcSiQZinZks4obi8xlG2fra3gLQJqwzxXQj7aR0ZI5cisj/cxJ1bS6itMHLgwkwVi80Po4atZvMLtt2S21XmDhEeUsdYcCCWRwZYXmOLAb3MWztR2vQXCO/ztJ4vDCg5gtVFowLpy7943ZSc4qc8PgCPY6UBRTDx5Rxnr/rpz2GGRuxWYg8sxQc95W/MYdSja5VQHp4gb3X8qZeWD9Kut+QbzOmLKy9FVuol+3bKjx+NxS+3cvbdVVorbxHunVb8pls+gJzB2udRi/PI+GnU0jw6eUO1vFEJK6tVUS77IK1UaMvbm5X4BdvJ5D3ZqeQjvNKU6UT3+JhPz9OY1i8jOpMS2X5cmddVl5Fdmd3Vq41WCYQ0mIjwGod0NRP8tQ5vWkyw1zmsbSBBX28+u1Zvd+VTPEGrXQmkvRusKIuNjjzUzMzSjbVK+mTwJnkXGGdulpJEkLdIUZJ7hHnElzzwu9Vk42eBjzQ50412pVGX5m9LX+A9KtZG2R2TrTPV+w9n9D5LElCO8ifqDZYFyZaVrAChBvWA8opAdvujYob3R+E9VxZQIExZpzO8nj319pzwc4uzLVw5MWP3OR9nt62U5cdh+bB0AUTCftinV+kL18tYi48EeYbtJy9j62gCCFKWEUgMn1cwO2jTNQBZhtWnYXVZeUBhymbfFUjPLGmFQINxSOTZmXmOplar9pvgjll2u04b+1zSWKY8oDBtTJCEQOKWYjos/bhnXBr7AvMzUHAcxSrXmTEzr/6M2CYHVDbIz3sqd0hMwWS+4Kn83kHEtii5L3pqwbJuJ+SenglcHYwvEI3HalqCjZiDh1s8w9HDtKeltYQlW8AEh6AknYvo1KwNt1oEqVfKRgySIINIzT7Wa9uvoWlHl4046Pg1/5z8HaFl6EIQwg4m6rxZy6hw5i1Ka7CjvPwYGVnzTvf7gx36yjp4/mRvazhY69mfnNeteP3tbPV6UvFLiDT7lDxfvDKdyqXmV2XNr5afrLQqJXaIbmi+Qt+lG3S+Ui8HrQr2olKtWithC/y5FtJHNWxx8RDcYvwXlIFlvmEybHLzNUsigmUryrEdJOEZJNob2RpU99nKs+Gh3L6ZCVe9InXzM5m6F/hqISuGxf2pPM7iGGJ4RTi3ainbl+W5vli050t8w8JYKDku2cyrtf0Nh82h0nOV29IB+dmT+dCSES6Jjn90hCAx4/Vi0JVfAoGYr9081lG0lkUprrzJrmg9dOcl+UWdw77I114lg55nAo+Z9OnFvpKDJHL7CsRtoVRe9oW1or/4gvKtbumvtm5WIKdPHAT7ZUz3iU1lfpFFqmXY3aCEwtjH+V6hzeZVDkroDiTySdGwa//AhBTjiXTY2qSlThbvHgvPh3eV776LysLs1IuFdgBo3926V7uerZaapbmfbFh4g8M1amRQLkpbt3rnb5qcTAcxqyRma0WzWCjKhkgjKgzEp2qbaU3nt8SW7cThG2Q3DKo4FKbUeddAeboqknJea7Yxbuw4ykymchBHzz28YwPQ9RkaiUcK6IaYrSedZA3tO5QbTbbOEAozjFf4yh9uG545yz1SP+DrfGSaHvQbBkcpy6htn8ewBha59N8BuYQxYkvjonWyx8bGlGhZQezzcxcQ6qr2+WYQFlsV8y0zVWzKpGn3iS+vGIoh9M8WNgoJTU4O/KT5s6GR8YLxWO8V1GLzfLtskEvrYkiXQ4M+EW5WjFO6cq4hj7aBTrY6oWBOrRbMx+pOc+SRj96ahXimIp4/4bMgE/PF7NnX2HFhCa2JC9l3SIzdLBCUko/xPuyzUCZr3yGRkzV8smq9NtajSvBEGCsvNwJE8+C2dcCJ3N4bvc5nhthV8GtE+vF7QXk7P6gfEGmZksutphVUzniPZqWoTj3N6MTFZ9PpVu035Xzbh7E9ZXgnRoCGzRsxDJEc1LCgeXXiCl1g65SwQ3LG5uDKAN/kq+X+POrN6NU8SiSKoXiLr3L9yYNjtkVct6SxPDoYIYvBePsoxS6IeBDzdNawwcq8WpTn3dPI9L+xU6UcnVsq2bPe/MD0fAekT1pKzVhV3igD4lBOXLF4dCLAGOMZb+neTsMYGL8cFCgGyoVXkoaKv0itqubTc7plvuCILzBP5tliZYvxKbLFTlpY6Jr9kDQkKrgvgdPf+QplHL/08kPZ+zSzReW3oka2IFK/7Ov5n5ZFTCwuqHyKaA9iZwQRcD7hHBgu3uIwbaENmitq9p4ENXcXjdomBZmraJ/tpp3GLXH2Lgtb5gknowFSQfwx3CXqLexJJKNMZBwU+cWkbxvumNA2TiVzzcDfw+ZcnIyJvcCkNyqYXsjO2XMQQuDE7whkt09/kl0wJMq7Je2GOEksTcSZ4tqQqg182QSTHSVXwuzQhuY+lUtppPd2QJlRhuZi8djNu/y0Vq6eKTdsWvLD1Bhj3xEsSThldMXo9vLlUfITaYPs71xDE1fanhL8o7EV2981rn+lXC3rk6yfac8SuBW3pU7NjIxjiRuRnJ7HbYh5U6/NqTNmwpww3+2pq2Dnmm/R+szGsuIec5+FiRx3pqPKuD54kCMSqGvmWau3+eraeZRZ3czedaax8OJwvz0RESPf6xPU6lFhz5wAltUNiNDOeUQ1fWOSTXXk7b6+6VhXrRQyfb35GEElVvXDQeK5Sdj6lkSpQvot91FN87SAUI/biAkkZ57pp79+xONwq6TERf32ACN1Ljgf/1QJw36ujj/Bub9OuKZaNTZI37fauK+LiwbsNcO7SXx2wnaxLDEDcrlz6dozISvZnyOV16i1wbq23om1KNNp+8zV8w7Mj7TMg3Ym3KsxOvpoLR5NZf/uRKN5vlvqiG2KXTBLLLZDKus9mx/0O2hgpQ9fL0GtHiVIf4dY7DnjmeYi29C7fU6DMaklrCDLM2IaHDZmYPGLAfujvYnwTrkxRNPtjoG82XCGStHSLP6wmy3IPSj35ehKftfGZ7E9A2HURiKULyb0FXmbW+5F8lvopR3WG9qUxYnXdYiWy9XXCS4tLwxRM9mXyK8g+MzEnzQtbFjLawRwCo1xDyo8/8CMCqwcZ9Gi0AUuBcVhAMJ07KD8KvPGGk9eeHhLB2ZsOh60eCRx1ziTZbuSu+L48lcY38I85aaT23EBxVJc2qA7cqWFr7PdGx/2Irk1Grink2wZ+9wajly3WTyeyZcGstBMFNhWWrdamKvJ3z5hm9u20dwnK23LDdPqZLtnxrOlvAw6ZNNjldrPefWPc7ScyuaZSwuDSPVFTssE5C9ypoeGI/i+Wb9wDY/ZBPMIBy7uijMxmV6biWdp4T8fsqAkVm8+gwLk2tW7kxmB/pnLehEHMAfHNiCpbGczP7E5R/WVGDDP1gBVYhM1GbuynKu2isHe5zw5q/Tlpyr5pM0wtbMFU9G2bn7YiSO8hlOILrYn+3sTXLNtIuuikfQHW5ex0eBQuHmc4YTqTd0dWYyXUB++MaEIlHMSimNS5Mrpgq3g5S2XOlRwpaVh1EQO9EL0JcmEolJgfGZUggGyIxDU0bmeGYY8ojUbcSQrh1nFz8GKI6B+KC1i8bbwRNyIStKOE3ikPsKxup0Y/8RRwwqmFyGqFRAwMXcpGukYh1l6tkWsxo4GazhhwzeNfRxXdDx4MMl4l01LSabFB4onEAzTN4zKlrIyrg8ePDYE5rGfdO4TEvqIj/czkbPcBwvXxUqKjkWNmCPJmVb08Wbj7oVzfOhdFPPJoHPmB6jqs1husXtFs8CwZ9H8OnQr1+ml+XWETLHLmzNKGNdAdFEMU5t57ePJfcX6kg/jOi0zxC3MHFihakyL3Gb3iCsRCdxxdVA0hlEcjEbEaSuCWUgwnG4NZnF+TptmqMqXr2oTIDdnLlUglm9BggG1WqVtM958VfY580IEyewbLghMHldeYE7lMTt7VaysmMFQJofoq/xGj9UYmY7FEtejXjSLlc5yV59EqS5Hh7Dh8vVznM6y7HOoPfYr4e9vzethvBQqnAjle4deZOgTe+fHQ7M/xWW6Lm9aenSFjoZJjxxT14lIfZ4jy1wnjRkm7puaeW7+Ym5rIkvLknWwQKVEXpH6O18vUkYcyH5yg0AYioDJQeDsPGwqbZv3NuRkkoaL5Lgg3vegXyTUgQZQpTzAq9sa9GZMKes/kHiYCW2pVW5lkpzusDPTqHTIuy2iZfqMOBfR/JgpPfWcU0ggV+Inz2WJywZqff287Ipm93w/q3mPfg7UB3yVLgb1gF6abNHQIePE2C33B+zYg7rleQJbgHkwmxk3075esSKON7BIfciXz5I609+wk8ytja9P0dSU3q6o02bOYpqyNQSshDNz+OYVthyqPyAnAEcSsy+JZDGpV++TS5UmUl/w9TXbmVn6Ip7/4dx8/L2vrmPZb06JXyG76+Ujw2v43yGzjRJpdUPGJMWmLVKf8vWNMybYmaJP++omyYaJFD/jq5uTSSmYrSNkom7ZmWwfRI1xG2JXV6tH7Cbz/w++ujUZXphudAXDtSQ9/qivH3k4vMK29jFf35bIihHIA4NgNBCv1lKxypM50L3xZHwk89+JUcb1AMLUYTA4fUSWL9toyKQTl+rt7957MJgepeHSeae93ib+wb0hV7Lmz3vpY/UwAxFbr7ieddqiJQ4u+1gc1v9WzPNLWBIptX2Okpny9NYIxTTBMmcmUHwrRNwsxozYObUbXbduqkjdXfAssavbyxJszwx8a7BnjbW9p0HVcKrBm6w/AxKpLKocDa3K+SGPIyd3PIvEkNDTFgsBKfdDsG2oGdjevqm8GIHqyOfy8Odr6SURpiXtAhVEIyGicakAxJL9ypzZq8PZZB8vHRaJtzGtT/Y4Etjxe3NmYRgVRXWJ6kkNYhOuhu3QPO045fIi4hgscUhXp5Nef5tOcf02R709L/d/wdjO6OtUvSAn3qJrR704h5GNF3Izi7Y3cuqFObVQgzGyUN5jhUr0JtuUx3o2gHnX4LRCvcvTRpnj/D8SYR4Kb+nQFZX/n3z1aKNB6sVaLwi02oswLnb/uU0ul3ojZ+YWe9vbdEHl1FIkocMQZ9GWLMf5tnT12epEnC+y+9OYQT9HrZgXVXQ7r04a0GkssQ+TXUuOpadtw83e0QhRgzgTzS0auTX9Z19flRl8siS+7Kurd+C0YQ98DOMaw72CorHK2F+OGgezSEQx3h5hognNyKaGLlxrCOXRMlvQA+o6NIVwEgZwxF446oz7Yl62L6qX5fQNBtUaZFA3bsV6EamX5vRN08G2tXXh4NsOBmiciykvqptNO6tT1HAXf5oD+BodtkO/xZQFRE4Ih4vc3uapR+zLIeBovF1gHjFBkN2afAKAK8CBOZ7Id3YfiWM6O5JnhBV7l1elS4zgUduj4f6W/PgnscatwQX+jdRncvox9A5JOgsS2el/eU49NrgC3p5RnNSPGZ7jJcndsSeqZXEJdUZ1LS5Sr8jpnHxTsyCvtDNNcwS8wAiZk/iDUrAsDXd2irsHEkVZSVlhErS2nt5C8lWxOsWsDnZ/48xWhFPOwk6F8zZXYZCsF3QPoS1sC/eoYH77iZq0d1EIQdHE4hZBPdEo1Ls8ZIVNt3ePaEIv7V+OW74S8ToDkik7sX9l/IqML14B3PMzhHiEsLR2X1YtY3Ry4Eopp33Jrkp7QpbbEqhpWqjPc8jvXwm70IqflBrlU577e2ylLonZv1T8N4x1QlqSdecRawIu2/iFnsaFhs8rc/h8PbttC7VBqhNyaRsU6jBTa9VGQXZMHbblL6MBeYVqxfzBeHutByAf1msFoftrz/mauZRcyF6bL5pnNOa6nNyS3EHFN+3LcfutgT0Xp/1Y+sr9SJq3DeazDS7MNbiYbXApbrAwtjdW3AE9zA33ivJ2mGeX4xzC5UQvkkh7zvirFv9clR9c2p9ig1m4FvV6doo9dy+t3phjm3UPNi3mIe5sdrDBodhji3oTl+/SsIzeYrhel69DOr5JmFpdK0/IkrtX99d4bVYzC/KHFu2DJXvxZe6D3Z8GL1VESYBywb2dQlUmMV9vcDctOTIL3EbL3xo3Il9MMl0ub2OSpfVWgN61TAH55Ww+S3jC/mWrFTNFJ2mF5JSdvMqa9OY0ter2z7Geob/mm2fdaqNxzlyvX1UP3NdDr67Qi1anXRbKa1KJoNmDJJOI53U5Je/5HbowvXAg26qJfCeaXotnxgSEmWV7QQlNuhqgwUEz+Ei9IZe+41qL543ahNhwgDl6UFP3ojXRFYETLjKbOJKGjVwQ6D4Io9yvhopOzmv8a/BH4qoh9/bYAGoPxSzqsTWI+F9zbz8SemGyIe1w5aMZstmM35rpeEoQUIp/K99fkW0f5ocZmrkBmGe8zJX82bmQSHcgOmMec5g4vL1c5Zw//yLQM+/u0id2/rpZoTnhIg9nhCZvPmhpsuQWwrL8DWuXs+vVZZZQmob5SuCyhbqxLThhv+WX5FdcPjYMJ9OXeqeKjJWteta71OTiaEfexyl/M5DvyCo0tdVAEIxk2JC+efbevzfaYIfBzXeKgEek5WJeXuKranzNWWi1K0VjZrT8jWy7Er16YYPEL7hP8ubK8qd68uU7+XehfBf/Lpbv5t+lsvx5nuXyPfx7oiynZxHUSnLHenKtwbWrQKdY9izvEPC00JwpC/YqDC/J1XNXtNeYJzfXduTf62pBvUN6fVX+XtkNJcHdWGrz700lGfHNa5X1juFxC1Cx0HQDeESN4xHprdgMkkeK5bwtqPHvo2QWjAV+dFhjRgEeI716LKIWPo+7l38eX1qT2k8orK5KN5/oHjt8VUta/uqWDOBrnD1+kvwRXNKvLWIASJ+MMSD5urBg/pTeU86tSj+/HktHcntoBHSHDOZOQdwlg7vb/Vm2p66av8p2z2pJZuZpYdOYqKebLjxj0yTPbFaKbTvgbwgbnZb5oN2zKjUZzzcSz5ARPrtaWDV/Hv2bKvWm+SO8z1nttNtGLgX7igVoVfrvrshZGe148krAVoaBqHEB+wi81ui0La91LqYwmmYmyzVopFvy19CrJfsF7LPVYN2+FjonZrwlP/VQz43VrW4vu+4uNO2Nk23qttVCnSUIVCTo1qwGTDtNi8xLbqFW6mvCIHCDXHMTvI6myoeaLZ8yAR0LVcKg0DJ/xPBs9oHPqVTdH8U669Tqia4+jvM1R2rH6fGlirwfbpg+PLGUfr75q2JBPVlqsh0Afp2dgKc4cd4uKdok/bwDN0d6cSdbiLT6VDQ++1Xwp7UamyRPJ4kZPwNYeJtePbMtj6wAnt3Gm1g1ulVIplMXy0HxHHeIwJ58FbgYGI32q/ZZUo5Od1xP8jGcqbMQ48T2iXgXk9lfiufZtrkcU5wIiy2uLy12xXyAUaDTYbNST/p1hl6TXE2CEhtlvEa0ybZ6bbsVBNIq8HXM92rD4q+XEZDeIPKzqBulg6Q3SWrbvNn0JBbWLTQh5ICPELakt0rqWD1SpIYDAbha4M5V6M5VGzJb1VqhdW/H1KjZF2tA6FnNjKdhqEuVgiVuJtC9VrFs907ay1qgq+ZM2KNTS/QYNyWPLbHyHO4JQa1ZxrZKi1+9FpgA89dgv+zCfhLLJ2iZPxj6tZV6SDdsra+PV9tdos/mSRWZe8LYnn0DNobJsU+wnoWl4UYjzn4jNUXc3yTjI31O7He3RNPQ4u4dZMI4cyeZdpy5i0wnztxNZiPOPJWMUVXJ3EPmPsmYPp5PLP/9sofYqfvmdIf5Flm/bmmT/VaZxqDrZPUAG/C6MSbd2rFfHnm6H/WL8ntV83k/82VNcwC0Hs8A30A8h3fjOWSLAvD4DMmnN3cEL8c9iQLVJpxuhkSBjp+o/aK4yU33MyPluS+3q/TL7WR0iTijeGnzxD5msFAU63GFD76T84pX/NkTATlrIZX5iUE7/ZPY2gCCkRIQXgHzmvx4KT0O5OeOAxHl7uEp/taxA8Fw7OA8wTdDWJhOe47Ris7PtSDelfHz5OP/yckG9WP2AXTsx3gVM6W+LYmfYeUu44ULNxN278exPDQtvg/XbY7M/F4tndUPMauXlQcUMrVeL0YyTMfvA/Ar9wiwZH7+FpPHmrCbLZePj11WI9OBD9OBgCCK8SttZE8P4jwVJFL/sSyNwUEUmfTj2SL6YIb/CYY/cr999JLSthSphUp9g01a7ANea8iRMGgbs6c72AVSr1ntrJuN0A/Ph9ak5rDa7W6hKb5EPrR61cRZH+D49xCPTBC1OX1DoISReeJrsjqY+4QZ08E+HVDAxm028PhLt5ahFUGOgNFop9JXZ5SeDfb28VAl1HWGOKXL1a33LyFpOvBJIpXFh4kcwc1GEGRuxqxgCVp4rMpMTK1hgzVbyjdRrYpEIiQq9fAhuFx8IKj0Gxx7LSxXGvJLYLqa/paFDOdj9MdmMzTv1cr7P0oSAACNmQt4lOWVx99vJhkgIdwxQQkEVOqNCWqoFJKZoMy41ra23cdqrUNFiUjl4uKMqCsRCPHCzCqPVesNN52AIiprV7QwEy0KyiX1MgEUL0GKYmcgYNc+sq7aur//+02GaXeftjx8vOc757zn/M95z3vedz4cx2O8pv/y/17zeOmAugVNs668rGnO7LPCc7958zlXXvW97y+ILjRDzTDjDDcnmGpTUuIY4zElTum0+VfF5jbNixqf0/dWY0w/018Df+wwyLzgMcYx1rwZY0o8pd+fMaup5sy/pT9U5EBnoSZ67MSxmnjBvGjTgnkz5tRcNG/OTTXnzZh3w4zrjc/8fTN3OQDoc6IsOUCoKA3Ni86Ozm66fnLNedc0NV1XE54/Z878hU0Lan7YNOOq6Oz582ouvr5pgRnegoEaUJ/SaswKz6kWgPlu08zZsbnGvozPv5zmFEyWWZNlvSbLek2WWZMlWJrDc0tpqWOWJvwHPctMW4/3mqpItKQlmpnYZ6kx+0qNr8w4OF+8bFV8CBpXrPC2eMyEIo0y36CCxlpPq9lkvMv+UmOQb4Sr0doVGoPGM+XS2FakMcI3tqAxFy+No70gK7Yx1jfO+MaxCBaq15SgbUDXPCFVZxzHs9QsriuWOL7maOZMFtvTYhrPLpZ4fIsmpG4xjhfJ4nuKJV7fLTdk/pSf01UsKSnMWWY2VRVLSvNzSpC0TSqW+ITtDOOUItnUUizp42uuigwxjg/JFduKJX19i6KZMVSIZ4kx/0VCh+QlvuZw5UDj9AWZTXQvn+w3r4rfaJx+2KoZVSwp9zUn/ORGyGquLZb0zyOTpPH5YklFXlKmVTLFkgG+ZmPqi5CtzUvyyMp7kfXyWXVmYKs/XvaVFksGK36QVSAx/1wsGZLPpiT7FhRLhuYlsrbpnmLJsLy1AZJ0F0uGS/KY4mw1bWOLJcfl4xyIZMI/FUsqfYumR+/sjZNyHJOX5OMcZOMs4lO75Pnb8kIFDC6WHJ/3MhjJpsuLJSf4mqdHTzSOdlTb6mLJSM1hM3iQNB4pllQXarDV/GFAsWRUITetZt+oYsloZYDcOEiuCxVLavL7oxDn3LwkH+fQ3jh7+ezA5oPJm9x6vkJeCpIT5YV6VgbMVcWSkxQNGRiIpGZdseRkN8/9HMd2r95WZjy3suW9w3a17N/6ufeMqye9ef5xzV8eavMO9F1QYkqzfUx/upWHJosh08f0pTF7PJ7Cq/OXr38l/T+vFc6AWx068zij/sGuP1s9gbGLFatibSYxthDvNugeKd2I8Eco9cCcyrNCzEpCGtdiNjUhWM2M6mWmsRXhm+qGUggj+BYzOxH4Ke0ISosYd7DNyqVwExZQanx/KOFx1hz7a251FjvOEscsdUyLY5Y5ptUxtznmdsfc4Zg7HbOafOxwzjSdTslrjnkdFY/5hcfxOUSoY6efKaeX2k7vHky3G3OPPZsgqivcA+p4vVd7RpnRZpyDQd7E8eofjlbHfMP8wjEjzQBnxBJYJ5iT2dp+pxVF37CFxskl2xvgG4+IhH9y0JPw9wsWCGPGijg3UCDa410BT7jSGywQVZFkwIoKRCT6UoOnK1QWLBB4cF0wGnObxzixzMRALLM64BEBzzDzHiu2RC5ZHvREomcGCkQskwt4qiKTLOHNJS/UrGBtKhqoTfmC3nDl3fitANY6O8LotER7fB9jn6DXmKOgd4KprAnmkocC3ljGR6S7MOiD8StB8blIu0Jvy7pLhCufDHhFRKLbebZi5F0B+DUTD6H2iB3xd6clhCiX/FAalwSmR99DPQyjU/4UaQdabujmdvKQzj6GlBhd4pBQHKgvIgqi8qBxwpXdDeHK8UGA/QRgecKYk4TwJ6xACf5n8mQbvAn/POBuR38R7l4Q47ZAOvufMO62Iwjvs0R7/CFQPt/gjUT/PZDwpyiEJLY6GqiSp/Acn4L1x5FMntwef1RjmmDuA0B3ujZ1h9ylve3xqwFiOiLRqRrrvVWRkRCb6iPRUvw3NZCh7oZY5jn8dzewMqoeNxrzEttfq868ouVXngoEElfE6O4vcIwJAmwrcMewzI82pLMna93nNtSmTgtqrIqc6TLClZOsRixT707JJadqqbE/NWiRiqiKTAApGrWpaQQ3ieqaRh6wIUJGpWG9aIrcyoYdD3qNk8o+gnpdBx5mWSKXPB3gm+qZv48szwN8G8/nDRRjIyjrkTYC6s5AnrEeRlvD9OjugJ2S8B/F+mmBrlCJXM5kPSsI7EE7ovGMJdLZV1m+foq0mzhKgX0ExhcBVtwEtV26QqVMeyOAjTLysB5wGu/ShhJxQ4AaexeEecKYVQHP9OgHoFkV8IqIRDeSgLdg7BDW13l5F2gvYumjAGu/DskRtB60I4yllkhnr0Rzv3bHVKC9DSw/4ytCMpJcP8v8kYFU9lEhUUabXUnCH2b+BCSj5G4aEXzCms1iyiuq21aWZyVFtNKO3nT2KUvkkhvxsK4BG6/idxOMN/DwkTT2YLCE+d0YHxWgGfVl05cLainL2kGJfInGdQ0s3iH2baa+K7QTG9kp7Io0Ruo6epfXfMFaxzKf4XJnwNMe3wKXrNDsMK85KRjvK/vrScBHPGtgHFRHWInGJ2gk7Iiray1RFfkOLg/IxnhCfY9Ejsd6p8sIV74AZrXe9QEC+REwn+JlKc9jWq91zH9Ey7SbeT/nJUveFsv6l7i6HINfIhjjMtrje6mzHmysUJr2ol7Cwm9B4K/H+loYdR1qZhrRqLNEwv8pdXqgHhsLKcvl5H5qQ1doYIDePAIPo2X9RFR7UJsK3Jdl/Qr8P4A7tYgH1F7aLRGJPktQLGQkuhnVT2FsBuEIhbuZ8jibZyOMkNb+GaxfAlzl/gpV5Y+ZG5O7clRaUO1sSGXv19wlbPi1MJeAcJvLSGf34XIDW+qPMvYHStvL/jgFt32DpOzHqFdwCiTsyJSNlpge3YlhrzQOs0J/5HGX22ylZ9emBvHSrSZ4gLrpTqezKTxdWY+HFSRzAF5WUHst2ucrSNNvkKbAkGuwUxL+MkANAkOZ6s9vCVW51RAoTdFobYjoCp2DnYuYlq0HZQjJhfXhyolMnTyFTnCSBSSjGl2IscxWHToHWJGtFGEKZF1KghB1428FQHpchopfGrGMJ2inKD2yoTEPsS/NbhpG0RAiTdFobbjEfmBehMY7yr0gZtCaCObfqp2dhGQrLy4w8zY9P5e8HUZfLeZVlkhnA9hhz7fHjwdhHcwS1v1SMVS3t1Cme1nle11Ge3yt1WiPd4hxPC+vWxvTo2CQUTY/OG63I4GttEQs8x+uhjEv2ylCaG24LWotU95GEy8i5FYaFoemCJhsWKQyKujyotH8D90hXFkb1G7z1KaGWIIGOJiE6qLRn4dSU0Lb48NgOvSfEcqymv0omB9jrEb9/S3ydyL9fYsdYayyRFcoDoYTdKWZyVYfwpQwqfeqfk+F+D01fCq2UlqHU0GVIKgwiblM+GcSyEg04gg+V2dcBbGB5G6xI9v2LUsk/MLRqXvDUYx+QLYdPHlkoy9Xu+HY6A/8CWIMJobvMG0IRXKdTvZaopyv7JyByiTmj2Mu5R7LjGbuRnbHcI6kuQ2EXc52y1DMfyIoU0+mPiSosR1VkS12xPq9lqiKXE4cAxrIwyCQ6b66Azvf0ErPYrsswsssmCmXoS2bzu6g2AfpaBwMupPBcjmJ4URP+O+FUQ9shc2Zb8x+S+SS6paTlO0yMl1HQEJ6hu4No3k5iWccgippnIF6f6Tuav8jF1v2a5Czrg4UeUIHNNe4KZZgOb6HyGBvIQwutrGMe7GtirinPaG8Zon2+H7SwcU24f+cdDjg8nDaH9JyqLR24V1nHBdbEQDQFfwduHnCXmxFxDLb7aMznckpXg7x6LA6pH213BK6HdiLrfaBLrbpbBhGp9ZUkXag5YZuetgCCnZ69Acv2qg5aXVVPRv9PGHMQZ35ugEdlIUQ3j9FfAnR/1kNZTamSghjGTi522g3KuqqyDo7EvWblqhNHaQ6uB/lkh5ePme+rjR7ZFRVuQE7g1miuMvIJadQJmUk6jMVkofe/zPa3yG8vKB72pvE6e/QoaqR/XOfJbpCrdh5ZQrZ+BkeUvVKAoWt3RGGsZymVI/G0w123QtEIQMi1PCUAqCIUD3rYqmLDtguRuLF1A1A2a1rSBxGO/syaUfWPW2JSLSTCN7WUfIejkqZ8hEYz1KP7UHyU4z2oIkXEbq5q+l1hV7QleR9iJ1IO3G7TxslbdXlRSNe1Bd6AB7DKBrhyouZv4tnGowXXei1qTXYOJsnHjBNisv9aUddaVtS2alsH1KbJwq/HguEjiLq4OtjROHXY4HAnmuQ0ZinbU09hJhrCb8nLNEVOp0UvFJPvfyOM3YB2Wpj/EIHbyNAAhhpZGmWq651034O6G0w3lKJaYpa2+kUEgUko6ooedHI4r9kidrUXkY0jPmKqj/KAvmoLGwk/AOopOdYggEw8CJCbqWRx6EpArbXRSqjgi4vGo1TFXkImG1a0GctoetYLGNrYDdEKRC7SRQrrEuiVlij9mWesZpHV/+0FnQ3aLqQysYHKqxnUT+Mr4fsSFEstkQu+VNXQ3g1JZYZDxMbsUw1BlfDqMYOXkTIrTQsDk0RMNcGSGVU0OVFo6l1O6EtARGsoNsAGV2iIBJhHuY6UFj09viRetspSCc+IHLJfyWCYbpuL3aJSPTXvaJPXCJcOZTcHyfRMJfIJXUMIapNXdhLjKUacWGMyhJCCcslt+vMyrhEVeQBF0YvHvOhBVeE3dpK+M9iQp5IZ+lnxkyyBKtwPoWmH19zCY8ereKoTVXw8UH7jNoyZo0l3E5jGc8TWAWgUlRPRRBjKeZ+rAV7Hs7vka6DkVUpP8YK5nC+0o7Wugi16K7Q7zTlUoh3eM4H0A6t4ETcdbBYE9Fa+/+cTuY1Dq/e3Ubm8vs4l3wap5ODHEx7LDE9+hmWztI51I9T6nQyPYj2OkrnYyXoB8OsJNlfKwuVqHcDfhBn/mYB74fkCWB9xvOwcO6heevy/bQdgTX4GKGWxWqssQR9Z7MlalO7sPiKrH1McL8ljCPE9Z4YR5EehHGU3ABAhH7hxjKHmTJEW/wAqiM4H3bhplpbfDOSsaB63I6k49xjBJlwU8HIRwd+ksNaI0yjiBRZbeorOBDt8SQEol4ds6FU6bwWd6EOTo1vWoJyAaH9TfkS+X23vit0N+NS/aadQnt6jcrSWK1wp3AufZecL4V5rc7hx2C0EtBH4LlLnVm5up+knEMCH1YziOC7jQVeilZSNh5Gqu7wJEE9rtuFiusJtF5mytOysR1gv4K5nZSltQu2k1SuwiKUanFjGWpK5ZfOHmHuvXZE418swdGG5n51hbMg3gLyOLS2aT8sBvtOzV0F9sNIDtIJvxKjClT6/hbGOue7MVEQVVA8P7cjjFWWUPVHouU637cTmb5Jvkt0dOP2+EGIP4Ndv80OKdyv8bsHyF8zZaP2vxh2eXYcI/QTlCXcZgmiUAVEaLobmFiujr0OyTV8t1oJIz7Zq3p0F89dTa3rEqj7dPg/YImEf4086vK8AWvdBLmJ+Mq1B7YD8hRe9PHwAp11yusdSsGrzG0F14tIW7RHn2M9F/PyJIlq1u5oI8E3o34/WjeKkSDbMV5uA9r1sjEHYj7qP+S5WoxJqOtecQpTv60fACPw+y2eEeAY6TKMyXItPod0vqgEXAyO+1goNyizqvikdX9E1XXIILcGXc+7Cfdm8vUoNr5WvvTlqhGjjbT/5dp1jRys62HkP2Vx02DKURD+1aesXPJBOwJqoyWqIjq56Jf6CKNfRvqMVRWh2PivB2rjHbR8dBv6ghZaBKu+E9U3cbeFkPdqo6xHchhDD9mRxLZYYnq0iZFSziXPA8hupk1g/I00qrH8BPFXE2XcZST8l+F7Aszx2jnnouEwZSaCLn27aIHxS/Kg28IvlQd9exDjebBs0Om9GetvsJ07mcJdQF2nPT4E6R7sTNBB5aO+uf0pOsqYhPIrgrSh2oPf4czdCewf1GMsDZiia8O/0a4T/v7sILo0FXaMSGebVQinWNMJ/2hGPgcbcxzNeAZLVEpW1+nKlMNFiJXVsUCTSvhXWCKWiQATja7QCTifoZ3LCmNDrVBGNcoLGyx/TKhbFghjlqkZnMtk3R0vReJXBudR3j6kCaLfpxjbkK7HYocdKa13LJFLHnY1En59rvfhT50CGwpYRjXKC+7cDBjzvw==(/figma)--&gt;&quot;&gt;&lt;/span&gt;&lt;span style=&quot;&quot;&gt;- Cheep&lt;br&gt;- Follower&lt;br&gt;- Reaction&lt;br&gt;&lt;div style=&quot;&quot;&gt;&lt;span style=&quot;background-color: initial;&quot;&gt;- User&lt;/span&gt;&lt;/div&gt;&lt;/span&gt;&lt;/div&gt;" style="text;html=1;align=left;verticalAlign=middle;resizable=0;points=[];autosize=1;" parent="1" vertex="1">
          <mxGeometry x="620" y="470" width="110" height="120" as="geometry" />
        </mxCell>
        <mxCell id="6Mg8I2pt4XMy21u9XQKC-27" value="&lt;div style=&quot;font-size: 18px;&quot;&gt;&lt;div style=&quot;&quot;&gt;&lt;span data-buffer=&quot;&lt;!--(figma)ZmlnLWtpd2kwAAAAnkMAALWde5zrSVXgq36/pB+372PeL4bhjYqI82J4iEg6+XUn9+Y1+SXdc0edkO6kb4ebTtr80j23WddFREBEfCEiIiKLiOgioiKi4oiIiIiIiIiIiMi6LMu6ruuyLuvu91TV75G+d9j9Z+fzmVunTp06VXXq1KlTpyq//iWvNoii3oVB+2h/oNT1ZxuVejdsF1ptxX/1RinoFsuF+noQktWdMGhl8p6hDuolYD+srNcLVaBc2D5fDQDyBuiGgfBaMLSGczc8V2l2W0G1UZCai/VGu7J2vhuWG51qqdtprrcKJam/5MBuqVGX/HKcbwVrrSAsgzoRFoN60AXdLHfv7QSt8yBXsshW0KwK8mSpsrZGeqpYrQT1dne1RevFQih9O53p29lGp8U4AunZmbDdCgo1W0L+Kpe3I766Um8HrUKxXdlgkNUKHbOioeyaVlBs1OtBkcFmOhP38NorF8d9va5waRgh3vuAlSB0YXubaQJF+6Vuo27IlMlstiptaVLXJ/1Bc7cXDSArUtQ2Y4Co1tgwoN4cjvvD8YXWwUho6o36/UGrQYFqlEy5cLB68AQKA1Cq1Ch2asgLUBcL9Y1CCOSttxqdJoC/1irUhC632mhUg0K922giknalUQeZ32CAjRbQgkiQdLFaMWyXgmq10gwFXEYUbaRmNOZEK1jvVAutbrNRPb9umKzQVL0UlBBOSneyHdwnXTqF2IuCOB2er602RPvOVOo0VjdY5qtSPCeiujosF5pBd7PSLndd3WvcDJgOXlsUTV+tNornyF23WSmtG629Hl41GekNtaBUKQDcWK6sl6v8L8U3hTCwg73ZgV2E3aoWpNFbNgthudJt0zK5R2wUWpXCqun/rW0HPNIA3SLyIHdbTOLWzKMYnlkJjy6EYSVkQrtwbnSk7DGXa19QDdxUPTZhJL1pUQjycbVGqWNafXy429sfbA5nu+3BpZmd8dvCezuFVkCpojNucjRjrjWMtnttOIr4WaBk/SRbamzK+HNXmqd8s9AqVKusdBS81m05sS3Mo6vBmmAXg/p6t1RAIgXT+JLkWTEdySxLZq1iuJ4wcKNaCmTqVtqsneD+RkV6ebLZCkrBGlpW6jZbjWIQir6eYhqCqpSfjvW5G1ZcH88kqFqn2q40DfKqWqHeKVS7lXrTSPvqcnBfwSrkNcVysNEy4LVNqjn0dQ2GbUFRGunZDc1qR5q/sdBqNTbjYd5kc7Esbg47tRp96Z7t1JlMw+AWo5OPCJtBUCx3VzurzCSIW82UY5wwSI1WwRiaR66OBuN+jYUr3UFNuu0yM7EuxhHz3aoZk6xLhda5QFh7bpCin76sRhbbKhaPbK7YqDaSXN7ouKmzEGJODGTWLzVKDdYH+SVbJc4ui7ahoYAnwsZau2t4kFspF1rorssZUxy0ArtITwX3FZGTHfnpspntM2Gh3UnsyFWmFYCrqx1E1QgrbWnimmZvOHbauxQ2WAIgFRpVqjAttCZdBaMTlKRGHhgwQEGhqWJwwPkJDiKn9LlKzYo5jxE9WwFY2GAxic1crOyxa4bbvdHASp9trxW0i0bwaxUZp0ZfTWttq7d+sLMz2HY9zlWwPi02vQILiEJVajWaaVavNbCFzGS9hFnqSAe91ULx3DzKl/VbNCZ/oYFGVVAO0KrTxAyT6mpj0wB0oW37EKIR1W6x0BTNzKU5FlSraLaJvDAtDbYn095sOBlTJ94MaJn5Ra7AmuFWzgWptnnVQU92l/Z0uEcurgPvbjlwM6/rB3tbg2lnPJxF8G0VZKiqWbkvqIYAml6zHQqlV5yMo9k0neFFZh68knIzJF0ryP7o0Q8ndj8ssnED5NbgWOraGnmXMdQL4Ww6uTgojIYXxlRImCl2DSYWQGNeHehZ4mJvH42Mx8NwjWroxF56dkGLXGQQvs0G93YqVfZgDB3InNMpMWHWt8gjPpQPA5qgFrJby2K6eXTvIL+Uyd9JfjmTv4v8iUz+bvIrmfxTyZ/M5O8hf6pYaRWzrZ+2oz07GYpkajgVLbBqNdgIZAQ6Hri3OpmMBr1xY38QK0iuU7crFTFSTXZCYB12VrHNBvbuMwvY6KsRfnkyHT5/Mp71RlR3ljEzt+iykYJ3tsMevlYxPUxrbwymsyFLT3CNJkWZqquNdrtRA/Jqk4NoUDyYRpMp8mFbKGD7KFDFViNkpVVawDo4H8jSQ/XIeThwpqlmgaFgC4uoOPkclp4kT1KsVIEWamJRpcoiU4xbDLSUzJ/JLm+w2CfT2nA6lQ4kq8jMOqk2ABYIy8iO1hYV9kq9aNfaE6/ILgxKpQqujc2x6yHXrK+DUmebgaQ63JDEa5bEyfWDS/uT6ez4GvJxeTDpbH5uoagYgcNj2tcxIlmyXrV3NDmYrU+HfcskZ5dVRuJpBz27yvy0TrM3mw2mY4qgqjTNCsFGG1utzXwezCatQTR8PqwTEZnuGMkk/dAJ5Em19vRgvO3UzytVQnF2hKfCN2c3BdDh7Gg0CAdu7ExdK2w4+9jGiyfRRbTL6goHClyNelE2Fr8d1JpssMZVz8VsEOZskEjysv0GUMe7BYajt33RTmMypjIG+n6ka3qg2SjxTQ1sqY1e09xl0rUi9VZRMjExwL6pUJwc0KGpq7fwcPUQu5scv9Bpy86Vy7DKG1ZnD6LZcOeI7MNyaRaKOJgbgT15+Da/GrQ3rWOAlOAT2lk0BhckR4+wcn/QbTewMkZAcwiUjkmu1Jr48OSkBBorjeYkGsrksp+Ach1XhVXE3rGnHUO2ORXbzF7DKajQBK1caouzInLTB3XM7fgYNCRjlizN2kleiqcOU2D9LjkPk9edlpm4VTZkUr9YbRiPNYfb3o1db/L5ThN/Nuias0O31am3K+a0tMAqK1XEuzEKsFiha9NepuWrOEew/A13VVij9a5UZWsir2sNzuG4psCehW2BT62yuGDAOVuAMyFkeZsznvsCVHjJxjHm6G1GuFTCnSRdpuxccD6udoLsRsOesFaA7TjKZi5PJnlWHPlTtolYcU7bLGfCDal9pj3tje2U2hHewobLMaHdZYdg6xVZQKZYyUyxqaLXOOqTevZws9ZqJCcFP4OKd4pcBmf3hHwGk2wKC81OWLY4x2wxxcS8llKUZbWcIhJOJ+RYbXGO00qKiTmdTFGWE2KKEQmn07ajTCJEMbMzc8iY31VzWMvy6jlcwvUa05LDOqbXZnExz+uySMvy+iwq4XgD5q1S7EoZuRvxHYmXFOpYPbMkb+KY0MCbTDE3B72IFWxn/DQhlmJntVKkQAnrOKNx6TNZT0yT9cipIUssKcoJ3Rwmb+vO4RasVU/yi2GzZbeEpXXUky03QSw70gRxwkJmgbCW7epYmUe2N8V8nDyGLHNEAn0q3J5ORqPScGotCZ12a+wrbABI2BhoWxczNBNrMOhjxGYDyoP7muyF1qYW4SBOlcnp9Q67kPYigkM0Bryo9GiCZ2RArzgZ4Xro3FQtK32Bf7wt/vF7/JOz3gmVL5HTR/zjtUBBnSIe5B9/l39yhlM4m+xTYVtg9Vyl952VhsCr9WbT4SWlF/Zuv5283rv9DhJv7/Y7Sfy9OwSZ27tDkPm9OwS50OxNsciVcX9APe/CwbCvHsgwXVGePS5QeNgbHQyoow/M0eFW5a0hpXpvb6C0v9PbG46OoNeR7NUAHkxm0fZ0uD8j5wvtRm867FHlYG8wHW6vDS8cTBEtu7M7IivUjvkE0EQWTOQS2DQzXzXc722j1HN1CTXgMIgRM3lNDMOdKq/AYE0mVwaY5YAhJXhgYPwp1NnMb7Z2sbcfocxpFdafOV5qkm6c8ZoBRz3pug+im+TERSfaKWAeFINdB1zI8G/Gcs92Cxeef/Hk8Z4ATH9CI2QmJ6GqoNNmqelwsAer4fbmYHhhdzZHRHhOhpSQVPD9h9tzJCkfDhdmo1gb9GZmov5WNzlJUqSKdzYNiRuNV2yGgvdlVKRmoKR5F9tcINAjLvFio1Wqky4V1lpSvlyqG6N2ot6pydBWcNwlvneSfVdEc6pk09Pi0ZOe4eAr6VWFgjlEXF206TWcoiS9NrT561obJn5yvSxw0hvCTROpvrEYbkp6E5Ms+JuLRRNYvCW03tkjygT4SG91ftAjG6269O82EQrpo9gnRX6PLrXNWfkxa9WCjOOxtfWWuAmPC9FZ0sdzKpH2n7CGE036xLJNv6ps2/3qts1/zb02fVLTpl8rJy3SJ1fXViX/dY2mSZ/Sapv065u2/u3Nc3WR0x1VzBDpnaTSz7ta7ark7yaV/FMLq60N0nsKqxuSfxqp9PvpG5bPMzboEOkzV6ubMj/fQCp0zyIVum8snCvLOJ5dPGtOkN9UXDML6jnFpskXip2W0K3iMki+iJGUtLRm+QcEAaU/a6R3kq6T3kVapllpr0Iq/M+W7XhobV36Uy03zore4AkbP6dewSEhbZxtPu3ppM2zzacLn3vPNp9xO2nrbPP2u0nD6tma1GsTQxb6DrujzMuGOEmkm6TSj/tq52qCP1+vGvfu/nrnXJv0m9lIpF/fQhqSfusGAid9oBm2Bd8lFfxzW+daku+1mmVJt1qdVZn37RBHmrTftv0YtOvmjLPDNMn8XdggpEa6u2HLhxt23M/bOGf05eJGq90iHZHeSboXhlhwpcakkp+Q3kW6T3o36beRPpV0SnoPaUT6NNIZqcjpgPQZpIdhiO1X6kFS4XeJVPgdkQq/55MKv39FKvy+nVT4/WtS4fcdpMLv35AKvxfoMLxTGH6nLm6YHr5QAGH5XQIIzxcJIEy/WwDh+mIBhO1LBBC+LxVAGH+PAML5ZQCmq98rgHB+uQDC+fsEEM6vEEA4f78AwvkHBBDOPyiAcP4hAYTzDwsgnF8JYPr8IwII51cJIJx/VADh/GoBhPOPCSCcXyOAcP5xAYTzawUQzj8hgHB+HcBdwvknBRDOrxdAOP+UAML5DQII538rgHB+owDC+acFEM5vEkA4/4wAwvnNAHcL558VQDi/RQDh/HMCCOefF0A4/zsBhPNbBRDOvyCAcH6bAML5FwUQzm8HeKpw/iUBhPMvCyCcf0UA4fwOAYTzrwognN8pgHD+NQGE87sEEM6/LoBw/g2Ae4TzbwognN8tgHD+LQGE80MCCOffFkA4v0cA4fw7Agjn9wognH9XAOH8PoCnCeffE0A4v18A4fz7AgjnDwggnP9AAOH8QQGE8x8KIJw/JIBw/iMBhPOHAZ4unP9YAOH8EQGE858IIJw/KoBw/lMBhPPHBBDOfyaAcP64AML5zwUQzp8AMCbqLwQQzp8UQDj/pQDC+VMCCOe/EkA4f1oA4fzXAgjnzwggnP9GAOH8WX08voSLNmO7VncrHbtqnvimtd7+vjhL2tuZTvbEvZtN+NdbHU22lNZbR7NBpHxtA1vK87m+3JX8WDw7/Lh+b9YztIvK3xj2BxPleTFNdFdnOhKiZi+aDcLJwXQbFl40xbvDQRF3cLpdlyAMDYLijF0Uz7XQfx7xDqWXZtJxfMpot9efPBgBeru4LUQLdvEx8Vr7g1lvOALKDRhvJI4I3ush0YQBUS3ghdlgz4RBbdHi4XCLcy7dWOYMKXKxzborduWd+P/b5Dbe2RRhAC9vTYXnmJbJnTCdUd4NZpKuUnpbBKGeq7yJeLMzcfb9w2E03EJwWuVI3KXSaZWP8PojtaMX4D2OdibTPbWrFodmxl6q1ZKB2ru46mPpOqjl3hgkB5iKFAnmKovBvcT7ZWoX1dXks/cn16gTFrM7ORj1i9K/Wm8Mgv7cMJ1wEqIy3VyJpArAyR0jW0PppvQVWp3al5GumSJsszo92Js8b1ikhSaBbWS8qM8cGkV6mVbXEIS+MBxzWpKWN4f9GQNT185hy9aTXVTXbUtLOMvqzTl1vTjCNeaqhIIqL39xcKTGSu+ArQ7HcSVmVzCl4YUBvfM5qZCz7vPzVU4yzk/Oc0tBDuZDO07P710aRu3eBRrWAtZFauh6vLpMLNw2fu32bk+OFINpBIVOcqahSkmG7EUCNw4HU0Kyg3aP+VXv8rQ/MnFaE7bbYta5SBrR+4hNROcvjI72dyN2D73QTy6DIvYOvbjFEfPitx1MZPG+SeurLJsNOgAJPV7aYTCJdF6p9fJObzTaIiK3RkGkxvrELoo4pbGLq5NLcHmt1ivkgF7v65OzJLjLCXjqToh5dcrhB/1EvqdHkwtyEWBI2pNiPPbGzk40mGF91LI+szeMo39Jvav3yMHftv46ra/pczQ7HPSrphNv8PW1JYtI5XzSDtNJS89Jy0ulxRKekxaLaU5a+R36khXOwuWyWHQjhcecBJYcPiOB5f8HCZw4PtqVvh1c1fSf0Z4sZ/qgvNwWkdN+pPocuK2Ndadzfzem49CQJ8qYMGYRpJWitNNEIbAlMewPow2OfZAQDLB1z7F0FlV+1YlTeUvYPXsSRcoPmkXJQpKy8wC+AMnoc5IrRNuwIreImZxMB9XMRSRWcWc4jWaJXKQtOpTNL6zL5ClvcXuyt9djCKt2x0lDEVvKriAGzRhkAo0W0P7lzHv9Q2ePFy63PYulRDnYqqbEW5CXRl4xc9kZnbZgBA7dPdcqVgeZGXStN2WSnKSz3bIBHaNVUlMy9cHswQnkbjwIZw/pP5/IEv8ko7rcLsjWzc0NMtEy8ZF6QOvwaG9rMnLsI5OhXXZ0C8dMImHgEaaRjSKk74M1RMNmw9TFbNFK4xV4HpoAh31wuJeEApDV+mAs2xsScm1Nspz1QTRYY87Xxe1gHEdjE4zRuArDnZ3GeHTUQuqHvZGh9ktWzyt7ewczGZ3ZfSxfb54vGWe9vELEyqn06SXjR7OmQ2jeobV2BQGoIxj0JCvqi9U1cKWPU+rqtwY7kFy0pTFzFpIphNBbFMnK6HuCEfJ3UpeVM2Nwk4P9Sh9/VvlmhoDfzYqxkibzkMYnkM2CIZF9j1YLcTY03N+nCXtmWXnxCp5vLnTcH644bvBhyjdcoyjC/4WigQhE2JX+/40yZAClhyPCVTiguf7Dlbd3B3tfoTchpgdXBRqnAzOBof+AnpuklK45FefHW5hJZiOhwMtNe2vE7c3YKJw4I2ZLY+raoIriNdR64wN2wKNwMGJdDljKKjeMVifTvnNgrkCQjw62JIS5xR4kjbsxLKR9m1fQj6Cgc2UBBaKmM8nTSRmjge2YPkSfQwyXLCKZZfgPiMdiubzlHRzoc1Z1I1OIiHCiD+34yz0ccMKqIuJmL1nOEac/djvn0udHQxzT6ZGs+fYkdGOBTBCc0PUC1nZ/Mh6M3RJaPBjvjOS2WC79siyXhlEnLjKSWbbdLsb1az38/9jwbcdYy1XvH2yNhtEuzKRh6W570h709qpp96QR73gjfoWzjRjyWHPDmQw7NUfCqrETPkhPMTCOWKwYzvVcF+YNzZX5btz5/8SZvaE3CjMzElexrO37IuWdMm7+ddITdMu4+cYbwOL7U/bGAzkT5FJ/P0+S+PsL0f500OtDsRjtTh5E1pxUVgdIsC/mGfIly2ODTQlXeNk04jInbGWXW7nkgJNHDjjVljOE2VQr4x05zZmubijdP7BGn3Y9FHQ2kYLS4HC4HT94iO9RJEBmHmXoIiFLE8T1DI6rFQnBk8fuS8VWfGxgZ3GVi8XNrjkU62ON4PRIRn0aMUdud2QsSK3SZyqHO0O2d5SeWpbnZ1jDDcSPV9h0fkJbGKil5PZccZsWX71pgZMST3LxBZzP/Q/jiClzLpsQ5x0ipl+wjxOBFl0HVnGtL2DpxdFiKbDh0htaSUYtF9TcZtlLZbnYc0+c9GUM7BiSmgQ/K6Vu/ADvcvICOorzIwrqeVsJ2nD5PKJMUUVRE9HFeo/jrJGhoVL5emGD2Lu5plDcLbbsC0IdbpqAvydplzsRQ+C7S0ZzhZ8LOCNLGALOTKdYLSji95wQqLC1bi4wCBI3Ydtt3tXduBuEZ2uGHKqxDBj4E9HBzg73V1iMoRz7TNdYlNt48TPxNWbEGZUfHV4QO2NOY8w/2UrJrJt/ZBWRaxzMxCMVw085Jo7pwPMTv4T8IhRrE8IUoXlqhd26GIFewqcpbEWT0cFs4Dw7jNx2dlR/r9UJ1+WNddek8ipr3XoQuIvBQnWzcD4E0FVzTpHXN7EpuId9kEOk8rDhyar3xwd7IfaCiYgUvryzEYQbIosNZRngxl44wCpOXQ4nmX4xj0v7YiynY/V0tZzh5Bb6CcvN5VYiWyo8HOpkytVhTq2zn6BG5uhLV7VlQZvxZu43sYwQPIgtYtrMO/YlhZWbc9vxoWQXNj5xKGBbRCA3Z1al5cUbCddsrcY5wXjuRbgfrK3Zp2s5LhMaLYHy7q3SAnaQPcfwy+yUti1r52MHwm2P8eYqBMw0YxXNofeRYFyViBmNrQd5TybbFrnLYAwvywWBgzCaLzPMEO4LSt3NcsCKLleqpW5jrWuLudfrxo/yGSGr/bwrkYpeYbqd9IIjGkIsjC8gRUJS7ACZrDcc44a3jKEn69tNp8rBj7oH0yE91P1htD/qHZnFsCIOuMka3af/zdEBURTX2r7JIEmq4ZwTwqDCRTvQpilrDUY9zra7tkJu3yBthb2BDZ9RxU01IO5VCWfJ+kq52sFoNpTWB9O14WDU37BTwQRts6CQPcqgs7fkXI0zQDmY1HoSW1Mqee3j3geJwSbxnFX2rREGysV2OJ9Y6AWp05274F9MGgjG/X05/yGGgQNlI6UbuKf78eRvcVdue/IKT/lJZQBsxagptRhNhtyuaKpBYmlF8iGQlOMqV0qlqnlrhe00usydVoyyb3biF0+2am1oO0czEUjh8kovuwoTatQAE4YWI5agutrYtBaIBVVwomFrbtkfnaS17DL0ks3L3HmjqkC6MB67fRWLR4RhdmSpb3KLVXjbxaq5rjSvJbzkQaDPXV03RuckkxTla4X7kiL2zfvSokXLMildKnLjGrS6XJdVOrJYlhNzcEIMBGK0bwJWTI6b6nUayk75yTWg7lqhVjGP5E6ZrLvOPW0ym3HjZ1ioQdqXq6pBG03qypM0VjCYq5k0duoUcY1FNAsl977xWouo2Sdp19mc6ZXb/K5vSGVzKXxDsVFrot4Gf+Plwlaenom8X8t8p6Uowqi3NZD4j963lHLQeB3n+5SoNuhJlFqCOaLVoZhwlbNrRyVrRrtV5MVrx78iB07FxtBruS0QdsDebOIgP8aaRt7gqdxsEvb2bJb915ishlFXsSYzTv6o7QJ7YYxeG17CXrCJOe+/NjkcOD90MuqfM/aIaATGei0xxF6GtjwkGD49qhCDp0pkrhykQxXTaZsvHvP+cS8HIxGe6ZOJuV3EwI1tNdrbSZsaUebMqcS5LnZM8C23OexfGLBPsDixZB5xHFOXJoP+kDibDCA3G2InZ729/Uo0efo93IzCGsdiCqFwZlBCPOgXJJjtb+Omx5mcFMTr0y8F8ks+pkhtlivtYLVRaMk61uaVmawLj93soiMuVJtluUWWB12i0kDa/EjD/QLLHdgddR0VBKlCNBg7FL+mND9JiXNeiLFAK0KUg60Hd9FVWu2w0ZHqOQI7eB2ZjHoH+ltHOATkxmwY3kvMGVUEJakNpz91f7cXDdSC8gxgkffss1fHb5Gep/xM1hI8bSZDOIHKkVrU08d2pvKSWtQzhlHTnjclNoBOvlVzNuPguy89hvbd3ijVJtP3N3nqBVmkUzH1Zk//mNshf8u4BQUJZEhs4Ze1+t/W72ALWVR3OND2YDCMwsnOzG2NoRTRjbdpbhAm485+n0l3XftFcGvD0Sim+Qny1i+NMT8FpnFoD5iSyiYRl33J9qCNNNSXNVfLJluaG+xvxR4R8M9pZHIFd+gFHrfImaLUt/oXzbXyMf/oIW/yPM6P4QHLCTWYDozNMTu+cPpzNq7D2mQyHg25hhkdxS18Em9ml0gg69+NF8k9QCDcoTPDNgVviAuSERv0z8Ro54knBW9OCswBPC342bhAnPEU/ZYYnekP5wLbDcp/TUcG2QcpJIST1AetwA3OEsYlf5gpkQ4L7kMZnO2UYP8og5UeCe7DmVNbs4eFidQPaf3b+oo9XE1I6eV7UI+QdWdjjOjEX9PtONu0+wXnfpy9hsS5IvUaX38xnmvjTqaT/VGtng83g51fQf8KKKmQDQt9e7ZgA/5WRb7DohMrnNG1j2n1ahfPmlfUH9AHcewH7tlG3siVHja98zDFn43DS4hJTMHH4ryZ5j+Tk4ntxTmzkD+OxIp3Mqg/j+kGiae6wn29vXgszlf6cspFhFoa7ETqy55+GZ5tBo0oI/VPnv5ezw1QBvzzWn1bmrUGQqaCjdHJTfASOvrXk0Ozzgl12AIzgO+fbxoLxAWL7NOR+mdPv5z4CIHEwnSwerDFZIkj/otJRCqUsBYj1l/ScygiXZ/Q+p+NQTbHubdoNYkztov7cYWqbJ0qr37b20u3kV/21L+Ya1U5OrKXXx/DtnIF0927MO3t74r1xqVYVjccQ1nCswk2ftG5rG48jrOk52YsqwKX9NmfLX21evQV0LZCOynZYBHIDY56knrMZUhL3BF8ka1I3aAeG8O2aEOymSujm9Tj5jGWbBNfIb4To2NpzhZ/i0iozibFFfXXxLAt+lbDTpTg1Vo9Kc7YsgecprQdVr1Gq39vJM+BfdgbE3fZ25uMqxLMwX+ToMW/mSvFW7k0O+hxakwpXsCCSkhKQ1bhQMbB5pel+s4sld0RRV5ZkhdmSTAwcmEP+ruy6BCvhyV2/2A6oehF2aL6gX2La98B76vvvkKh0wE1VS++QilXScYPUTP1kmxxUd7pHqqXZnHJFnZJfY9mZ8YixcxH6qctZWIHPgBFj/HYC8xb1Hs88WbINzkfI0/DSKs/jtFV5EP+Tzg/Xqoy9RLM+St2QtM71pxzjD49jzLOxzs99TeezFIHR7FqwkZxPxbVH+jZ5ALRgH5j3Giv4S4iqYgJ1H+YFHDjNlfyIZ3cD6vf8NVfaTEWwu0hX300VR1BRepVWr/INL467A/TZn/U4Nr2oltQz1KvZqhRuddvtattyhjsG72B3K1WODLLFYz6VE69JPOAZcGBVpGfSdj8ojFPixay6G9I374sOdAWPIuaSTh8OcnYwm+MMDUcu1cktahvIkCYPIw5mWRs4XP66CC2jSkfcxV/KpO1BIU93Gn6dpWkFlUSsBI1bDCRsmvmEJZoTXDGIr7dU7+Z2cUbdiwM69rLkLbqOuaDo1IS3bkum7ck5cj4GO59yrK6JZu3JHWLMhZNPVo9MpO1BPdaDAtCPVbdlmRsYcvmzc9NH68eleZscbiD45H6I09Ms7b8flvBooTiq7IIS/PNA+P5ROqTWn+tg21JNxVM0YUz7zyGsoQ70u76YLI3kLu0f9b6rizC0lywLcdIobp7HmXpduW6nyWLWk72q4MdLGQqdUT8gzpL0BJBH6P4oZRidTKbTfauwOWHj9NcidErU6K0ZCi74z7KzppF537kOE17gltAaUryKhMWwBVmmUbYe0aN+M1K+1E5exa2jgW1X+htTcQBYXxl42yA+0mHs71N0K93aBligvwphzRjSrBvcFgmFy8eRZcl8yaHpCmrtAz7ZxzONpWg3+zQ0lSC/FmHNE0l2Lc4bGjm16IxpVmh/Jy3y25lvYFEJjN1m7r1SnirGs1Ifq4oRkatKsy5y9jC55m8jAtjTx8uZvOWZGRQzV5ftg1I9rJ5S0KDoIrMBKbHLFK1pi4Z5NkD+/PPsjoyeVtaUh/WJltOuu0Y0sAf2yKstnFk0oKP2AIiFrh2Z9Wf2Kz1Rsh/1Oab7Gxs+eHw+VLrrPrbObRpv0KMJaJLn7NF2Y7bopL6965odzjqu6rr04n8ZunvbInrlplCsP9hDmuVAPTnLdqwMfy5hN9BOF+w+Hjvpoqqqu/jCAWyhWc6jQb3y9RfYtK/36LN71Hr6ndszvXZzRQtvdfbG44ZNE5sTv2u7Ndx5n1zNUwv0BEOHDPVVH/G5XQ4RrfXe3uspd5UFtjHPRTIXaXKIdg47N8rC9LeaoYS308KXp4WrNLOhdTOYfq+T6esjFvwKa1+LINrU4sr2tdkUKX0tvbHNfE7xmeo7lOvzVA1cQsG08NBaK4y6PSvcKAgSGfcEEPfUu/IoORntSvqV9O+EjuTq9nPavVOzWKJbzbbFKm2+vVMU22iX5MDmeXfyFLWemT439ik39Rk4pLMCN4tQRruQkyeXZapHfXkvu6hTAOheZcaomSzgnnLKkbmj9KuVlLWkfp5X38mLTJTgYRMAE+9w1f/Q9vrDeNVv9TTH3R5iRDi9tg7kJd5+i9i2ciRHx7qBzz1Dyku4BgO5r+mmCojNad1XCauJBO8qc3Wyz7831Is9S3un1JcEa1jskxX2Vc9/b/SMvG9kkuCV3nqf2eKGKZ6jaf+m9dL4roRNlz/F28P9cA/FE8wwm/TL/A5oR/7+tBJ9V+0wXbQF2csltV/Z17MCeQKz7fergkQPWzxBouTHqiXe+oj3phFcOxR2ds0N6rb4Lky3L5YZZM7wJFUr/TVd3kjnFcU93A4eNDQvs9nrKZzzifF1dWM1XnTRQQmQ0t2ox/nirU/mDRRoS2WmvoNIlyyuvf2Dbv3+urfxXVpJiKmJ0vu0zn1D96DJs4rb9o4nyPEARZD/WAGXbQfs1hkYiyyZCUQHmzNpoP4Wxfv8dQPu/Jib5sDUAGGEbNER7jSsSWV8f7BLLldfJmvfsIVyDbPXRoL8XUOU54cYsWMWj3kqX+LNdo0+BDbf1Hkzqh/GhHJAkEMrhtcelsyUx2Sv3PsaoNZry+ieLmvXuxwwaHIUL3U1y9xmCaeBbvLUW0wPrAG/4d8/T2emefW5MHYKkfqYx4hAYPGnh3sjedKfsWWUMFqVaQ+4XEYMkhLvik7lUH/KlFCt4YxWfKSirndGZoLf5mI/3pZeZNVNdwe7nPCi4n+0YukJNwfYK+n9Yloy4r6bt88vMIUf0Cr/2lJ2oIx1T6o1f/K4AgwsfWqF/v9ocQi9mgF4VT6mPH/SBxfDmmtyWRG9vMuGw+Zlr7ANaypVTUlckVuVtjfe+qLcZFjaLauf/DUf47xtkqzdxBhLv/Row7hbNZFaSgaLVP4ZSsCjtrB+GBvjXWPXqlX+ep/WtNKgYwoLni1r76TMBV7Gip7wgDWGXl2z3z1Y8xyhevpNGeLV2Xh2D0qGMtUifU+cxnSEhcHJhrLXJl12LBPLa6+HGvJgwhbWMFsTc3jVMzMTfMYS1bdGzKe6pAEkptJXM4W12ZiutCFi9h1CB6RzVuSxhYLae47OU9Ujz+Os6T3sUBQpKxfiL/4hMuxlvw8B/8+UXTzYRnaU09RTz6GsoTPtUIICTiAi9g79NfNoywdlobIlJmESBySZ6qnzGMs2dbIKIhEjok1av31mbyl2LbPjkUHCIqr29OsLe/voGYoeHSR0I+ZQ6YqugxpibFopu3JGnOgFXtIkrUEh3Ysq0jd6kVcH+oHJaTI2vuS1i/TSM7opmgBZa/QkXFI0h/p369+ku1ADjnhHktrF9Ewqa93dIQ5ImIMW+pN2rbYFuFE4ca6ADD8BUfIRDFP2+biBZmqb2Gb2k5x9B4mv8SFH7eQxt2cDsbx4lrhXsdySYzyCz31Lt1zLzZe5KnfiTc8G6IVdNXMwIbb7vLqvXpMXaJkZM26/6JWv2sCsKNjz9Q+p9X74gLxO8SoxQT08vfislS6FZEiIxGCv9Pq/ZdTFNLHYF/Q6vcNAcphbjcfUH9qZNHDRZlygSNydPdPcpQqjHFHZQJkc/2k9byL8KRJ5CbzcVb9ZcpAroCEw8Mw+JS+ODgifHbhApJ9l68+rQ8nOJKB7DLN3SnxVeT9N1p6Kvsi8Zjd1cHOZIrDSXROBviA/o/uqqCKPxCxUen/pGdMt0TbRPLqtb76z0wIHd1tcJHAOqWjuCAT7CKhR2A68t24E9EsPQG8lLjV1qBvGLzHV6/wCCTu1gYYYIN6VQ6HDqVgnmWW6Z7TpPd66ke8aLi3P+KgFj8JbfbGg5EM97Veb5uRmJBXuV2ryvJ4R0691ZNgWwuLo96ZU7+QIaq6a/23eYdCAsY0/+YcsaQYU8TqHOwxMvGi99X7PfVLSZkcTlePQvZySj7k4ePEJYKjMFJvyel3ZrHsfe/T6tcSVGtAbABdNsr4mhyXEHGJdMVcG+FH59SvJ/g2szyuYyro+KcSbLg92YfybTn912w17LxHqMgl3D71Oc/c5IfmVp4TkHqRv4VWMREbcV261Zdu/Q/vWAnoz+a45OC+hhVprURwia2kL6WI/Dv9KYYiJj+Hgq+oF/pihSc7OyFzdhCJbD6SU//BYwulXry4BP0pT/2eQ8fekKA/6yHmvSF7sRBaLupdOfX79CNzq0vzH/DQGbZwPMe3euoPGDlHOVymHbmHeiin/tSzmon+GCVmPA9pHKJtsTotG15Ozd97c/g/U4u1bsGK+guvP9km0k1AO8v7PTn1l/DmXgaxZ580MOOe/ox1YwqwPbTOTHW4ZYXzWaOMhdlsOtwiJBSpD+bU35pRmBk0Q/loTv0nfOM9/KnkExLfzq1WjHKfjPgO9d8RCArE1VREQ0yjIvJvfyCa+N2e32P/2idLod6jpV51It8vUR7HBSNFvyZY6S1CUMvyQlTxX7PQCeXJgW431uWdguC7MdKr2Q9Q+Z26g3KOTLLdBJs3Hzlea7Q27fuJBZNfLRTPOcSiQZinZks4obi8xlG2fra3gLQJqwzxXQj7aR0ZI5cisj/cxJ1bS6itMHLgwkwVi80Po4atZvMLtt2S21XmDhEeUsdYcCCWRwZYXmOLAb3MWztR2vQXCO/ztJ4vDCg5gtVFowLpy7943ZSc4qc8PgCPY6UBRTDx5Rxnr/rpz2GGRuxWYg8sxQc95W/MYdSja5VQHp4gb3X8qZeWD9Kut+QbzOmLKy9FVuol+3bKjx+NxS+3cvbdVVorbxHunVb8pls+gJzB2udRi/PI+GnU0jw6eUO1vFEJK6tVUS77IK1UaMvbm5X4BdvJ5D3ZqeQjvNKU6UT3+JhPz9OY1i8jOpMS2X5cmddVl5Fdmd3Vq41WCYQ0mIjwGod0NRP8tQ5vWkyw1zmsbSBBX28+u1Zvd+VTPEGrXQmkvRusKIuNjjzUzMzSjbVK+mTwJnkXGGdulpJEkLdIUZJ7hHnElzzwu9Vk42eBjzQ50412pVGX5m9LX+A9KtZG2R2TrTPV+w9n9D5LElCO8ifqDZYFyZaVrAChBvWA8opAdvujYob3R+E9VxZQIExZpzO8nj319pzwc4uzLVw5MWP3OR9nt62U5cdh+bB0AUTCftinV+kL18tYi48EeYbtJy9j62gCCFKWEUgMn1cwO2jTNQBZhtWnYXVZeUBhymbfFUjPLGmFQINxSOTZmXmOplar9pvgjll2u04b+1zSWKY8oDBtTJCEQOKWYjos/bhnXBr7AvMzUHAcxSrXmTEzr/6M2CYHVDbIz3sqd0hMwWS+4Kn83kHEtii5L3pqwbJuJ+SenglcHYwvEI3HalqCjZiDh1s8w9HDtKeltYQlW8AEh6AknYvo1KwNt1oEqVfKRgySIINIzT7Wa9uvoWlHl4046Pg1/5z8HaFl6EIQwg4m6rxZy6hw5i1Ka7CjvPwYGVnzTvf7gx36yjp4/mRvazhY69mfnNeteP3tbPV6UvFLiDT7lDxfvDKdyqXmV2XNr5afrLQqJXaIbmi+Qt+lG3S+Ui8HrQr2olKtWithC/y5FtJHNWxx8RDcYvwXlIFlvmEybHLzNUsigmUryrEdJOEZJNob2RpU99nKs+Gh3L6ZCVe9InXzM5m6F/hqISuGxf2pPM7iGGJ4RTi3ainbl+W5vli050t8w8JYKDku2cyrtf0Nh82h0nOV29IB+dmT+dCSES6Jjn90hCAx4/Vi0JVfAoGYr9081lG0lkUprrzJrmg9dOcl+UWdw77I114lg55nAo+Z9OnFvpKDJHL7CsRtoVRe9oW1or/4gvKtbumvtm5WIKdPHAT7ZUz3iU1lfpFFqmXY3aCEwtjH+V6hzeZVDkroDiTySdGwa//AhBTjiXTY2qSlThbvHgvPh3eV776LysLs1IuFdgBo3926V7uerZaapbmfbFh4g8M1amRQLkpbt3rnb5qcTAcxqyRma0WzWCjKhkgjKgzEp2qbaU3nt8SW7cThG2Q3DKo4FKbUeddAeboqknJea7Yxbuw4ykymchBHzz28YwPQ9RkaiUcK6IaYrSedZA3tO5QbTbbOEAozjFf4yh9uG545yz1SP+DrfGSaHvQbBkcpy6htn8ewBha59N8BuYQxYkvjonWyx8bGlGhZQezzcxcQ6qr2+WYQFlsV8y0zVWzKpGn3iS+vGIoh9M8WNgoJTU4O/KT5s6GR8YLxWO8V1GLzfLtskEvrYkiXQ4M+EW5WjFO6cq4hj7aBTrY6oWBOrRbMx+pOc+SRj96ahXimIp4/4bMgE/PF7NnX2HFhCa2JC9l3SIzdLBCUko/xPuyzUCZr3yGRkzV8smq9NtajSvBEGCsvNwJE8+C2dcCJ3N4bvc5nhthV8GtE+vF7QXk7P6gfEGmZksutphVUzniPZqWoTj3N6MTFZ9PpVu035Xzbh7E9ZXgnRoCGzRsxDJEc1LCgeXXiCl1g65SwQ3LG5uDKAN/kq+X+POrN6NU8SiSKoXiLr3L9yYNjtkVct6SxPDoYIYvBePsoxS6IeBDzdNawwcq8WpTn3dPI9L+xU6UcnVsq2bPe/MD0fAekT1pKzVhV3igD4lBOXLF4dCLAGOMZb+neTsMYGL8cFCgGyoVXkoaKv0itqubTc7plvuCILzBP5tliZYvxKbLFTlpY6Jr9kDQkKrgvgdPf+QplHL/08kPZ+zSzReW3oka2IFK/7Ov5n5ZFTCwuqHyKaA9iZwQRcD7hHBgu3uIwbaENmitq9p4ENXcXjdomBZmraJ/tpp3GLXH2Lgtb5gknowFSQfwx3CXqLexJJKNMZBwU+cWkbxvumNA2TiVzzcDfw+ZcnIyJvcCkNyqYXsjO2XMQQuDE7whkt09/kl0wJMq7Je2GOEksTcSZ4tqQqg182QSTHSVXwuzQhuY+lUtppPd2QJlRhuZi8djNu/y0Vq6eKTdsWvLD1Bhj3xEsSThldMXo9vLlUfITaYPs71xDE1fanhL8o7EV2981rn+lXC3rk6yfac8SuBW3pU7NjIxjiRuRnJ7HbYh5U6/NqTNmwpww3+2pq2Dnmm/R+szGsuIec5+FiRx3pqPKuD54kCMSqGvmWau3+eraeZRZ3czedaax8OJwvz0RESPf6xPU6lFhz5wAltUNiNDOeUQ1fWOSTXXk7b6+6VhXrRQyfb35GEElVvXDQeK5Sdj6lkSpQvot91FN87SAUI/biAkkZ57pp79+xONwq6TERf32ACN1Ljgf/1QJw36ujj/Bub9OuKZaNTZI37fauK+LiwbsNcO7SXx2wnaxLDEDcrlz6dozISvZnyOV16i1wbq23om1KNNp+8zV8w7Mj7TMg3Ym3KsxOvpoLR5NZf/uRKN5vlvqiG2KXTBLLLZDKus9mx/0O2hgpQ9fL0GtHiVIf4dY7DnjmeYi29C7fU6DMaklrCDLM2IaHDZmYPGLAfujvYnwTrkxRNPtjoG82XCGStHSLP6wmy3IPSj35ehKftfGZ7E9A2HURiKULyb0FXmbW+5F8lvopR3WG9qUxYnXdYiWy9XXCS4tLwxRM9mXyK8g+MzEnzQtbFjLawRwCo1xDyo8/8CMCqwcZ9Gi0AUuBcVhAMJ07KD8KvPGGk9eeHhLB2ZsOh60eCRx1ziTZbuSu+L48lcY38I85aaT23EBxVJc2qA7cqWFr7PdGx/2Irk1Grink2wZ+9wajly3WTyeyZcGstBMFNhWWrdamKvJ3z5hm9u20dwnK23LDdPqZLtnxrOlvAw6ZNNjldrPefWPc7ScyuaZSwuDSPVFTssE5C9ypoeGI/i+Wb9wDY/ZBPMIBy7uijMxmV6biWdp4T8fsqAkVm8+gwLk2tW7kxmB/pnLehEHMAfHNiCpbGczP7E5R/WVGDDP1gBVYhM1GbuynKu2isHe5zw5q/Tlpyr5pM0wtbMFU9G2bn7YiSO8hlOILrYn+3sTXLNtIuuikfQHW5ex0eBQuHmc4YTqTd0dWYyXUB++MaEIlHMSimNS5Mrpgq3g5S2XOlRwpaVh1EQO9EL0JcmEolJgfGZUggGyIxDU0bmeGYY8ojUbcSQrh1nFz8GKI6B+KC1i8bbwRNyIStKOE3ikPsKxup0Y/8RRwwqmFyGqFRAwMXcpGukYh1l6tkWsxo4GazhhwzeNfRxXdDx4MMl4l01LSabFB4onEAzTN4zKlrIyrg8ePDYE5rGfdO4TEvqIj/czkbPcBwvXxUqKjkWNmCPJmVb08Wbj7oVzfOhdFPPJoHPmB6jqs1husXtFs8CwZ9H8OnQr1+ml+XWETLHLmzNKGNdAdFEMU5t57ePJfcX6kg/jOi0zxC3MHFihakyL3Gb3iCsRCdxxdVA0hlEcjEbEaSuCWUgwnG4NZnF+TptmqMqXr2oTIDdnLlUglm9BggG1WqVtM958VfY580IEyewbLghMHldeYE7lMTt7VaysmMFQJofoq/xGj9UYmY7FEtejXjSLlc5yV59EqS5Hh7Dh8vVznM6y7HOoPfYr4e9vzethvBQqnAjle4deZOgTe+fHQ7M/xWW6Lm9aenSFjoZJjxxT14lIfZ4jy1wnjRkm7puaeW7+Ym5rIkvLknWwQKVEXpH6O18vUkYcyH5yg0AYioDJQeDsPGwqbZv3NuRkkoaL5Lgg3vegXyTUgQZQpTzAq9sa9GZMKes/kHiYCW2pVW5lkpzusDPTqHTIuy2iZfqMOBfR/JgpPfWcU0ggV+Inz2WJywZqff287Ipm93w/q3mPfg7UB3yVLgb1gF6abNHQIePE2C33B+zYg7rleQJbgHkwmxk3075esSKON7BIfciXz5I609+wk8ytja9P0dSU3q6o02bOYpqyNQSshDNz+OYVthyqPyAnAEcSsy+JZDGpV++TS5UmUl/w9TXbmVn6Ip7/4dx8/L2vrmPZb06JXyG76+Ujw2v43yGzjRJpdUPGJMWmLVKf8vWNMybYmaJP++omyYaJFD/jq5uTSSmYrSNkom7ZmWwfRI1xG2JXV6tH7Cbz/w++ujUZXphudAXDtSQ9/qivH3k4vMK29jFf35bIihHIA4NgNBCv1lKxypM50L3xZHwk89+JUcb1AMLUYTA4fUSWL9toyKQTl+rt7957MJgepeHSeae93ib+wb0hV7Lmz3vpY/UwAxFbr7ieddqiJQ4u+1gc1v9WzPNLWBIptX2Okpny9NYIxTTBMmcmUHwrRNwsxozYObUbXbduqkjdXfAssavbyxJszwx8a7BnjbW9p0HVcKrBm6w/AxKpLKocDa3K+SGPIyd3PIvEkNDTFgsBKfdDsG2oGdjevqm8GIHqyOfy8Odr6SURpiXtAhVEIyGicakAxJL9ypzZq8PZZB8vHRaJtzGtT/Y4Etjxe3NmYRgVRXWJ6kkNYhOuhu3QPO045fIi4hgscUhXp5Nef5tOcf02R709L/d/wdjO6OtUvSAn3qJrR704h5GNF3Izi7Y3cuqFObVQgzGyUN5jhUr0JtuUx3o2gHnX4LRCvcvTRpnj/D8SYR4Kb+nQFZX/n3z1aKNB6sVaLwi02oswLnb/uU0ul3ojZ+YWe9vbdEHl1FIkocMQZ9GWLMf5tnT12epEnC+y+9OYQT9HrZgXVXQ7r04a0GkssQ+TXUuOpadtw83e0QhRgzgTzS0auTX9Z19flRl8siS+7Kurd+C0YQ98DOMaw72CorHK2F+OGgezSEQx3h5hognNyKaGLlxrCOXRMlvQA+o6NIVwEgZwxF446oz7Yl62L6qX5fQNBtUaZFA3bsV6EamX5vRN08G2tXXh4NsOBmiciykvqptNO6tT1HAXf5oD+BodtkO/xZQFRE4Ih4vc3uapR+zLIeBovF1gHjFBkN2afAKAK8CBOZ7Id3YfiWM6O5JnhBV7l1elS4zgUduj4f6W/PgnscatwQX+jdRncvox9A5JOgsS2el/eU49NrgC3p5RnNSPGZ7jJcndsSeqZXEJdUZ1LS5Sr8jpnHxTsyCvtDNNcwS8wAiZk/iDUrAsDXd2irsHEkVZSVlhErS2nt5C8lWxOsWsDnZ/48xWhFPOwk6F8zZXYZCsF3QPoS1sC/eoYH77iZq0d1EIQdHE4hZBPdEo1Ls8ZIVNt3ePaEIv7V+OW74S8ToDkik7sX9l/IqML14B3PMzhHiEsLR2X1YtY3Ry4Eopp33Jrkp7QpbbEqhpWqjPc8jvXwm70IqflBrlU577e2ylLonZv1T8N4x1QlqSdecRawIu2/iFnsaFhs8rc/h8PbttC7VBqhNyaRsU6jBTa9VGQXZMHbblL6MBeYVqxfzBeHutByAf1msFoftrz/mauZRcyF6bL5pnNOa6nNyS3EHFN+3LcfutgT0Xp/1Y+sr9SJq3DeazDS7MNbiYbXApbrAwtjdW3AE9zA33ivJ2mGeX4xzC5UQvkkh7zvirFv9clR9c2p9ig1m4FvV6doo9dy+t3phjm3UPNi3mIe5sdrDBodhji3oTl+/SsIzeYrhel69DOr5JmFpdK0/IkrtX99d4bVYzC/KHFu2DJXvxZe6D3Z8GL1VESYBywb2dQlUmMV9vcDctOTIL3EbL3xo3Il9MMl0ub2OSpfVWgN61TAH55Ww+S3jC/mWrFTNFJ2mF5JSdvMqa9OY0ter2z7Geob/mm2fdaqNxzlyvX1UP3NdDr67Qi1anXRbKa1KJoNmDJJOI53U5Je/5HbowvXAg26qJfCeaXotnxgSEmWV7QQlNuhqgwUEz+Ei9IZe+41qL543ahNhwgDl6UFP3ojXRFYETLjKbOJKGjVwQ6D4Io9yvhopOzmv8a/BH4qoh9/bYAGoPxSzqsTWI+F9zbz8SemGyIe1w5aMZstmM35rpeEoQUIp/K99fkW0f5ocZmrkBmGe8zJX82bmQSHcgOmMec5g4vL1c5Zw//yLQM+/u0id2/rpZoTnhIg9nhCZvPmhpsuQWwrL8DWuXs+vVZZZQmob5SuCyhbqxLThhv+WX5FdcPjYMJ9OXeqeKjJWteta71OTiaEfexyl/M5DvyCo0tdVAEIxk2JC+efbevzfaYIfBzXeKgEek5WJeXuKranzNWWi1K0VjZrT8jWy7Er16YYPEL7hP8ubK8qd68uU7+XehfBf/Lpbv5t+lsvx5nuXyPfx7oiynZxHUSnLHenKtwbWrQKdY9izvEPC00JwpC/YqDC/J1XNXtNeYJzfXduTf62pBvUN6fVX+XtkNJcHdWGrz700lGfHNa5X1juFxC1Cx0HQDeESN4xHprdgMkkeK5bwtqPHvo2QWjAV+dFhjRgEeI716LKIWPo+7l38eX1qT2k8orK5KN5/oHjt8VUta/uqWDOBrnD1+kvwRXNKvLWIASJ+MMSD5urBg/pTeU86tSj+/HktHcntoBHSHDOZOQdwlg7vb/Vm2p66av8p2z2pJZuZpYdOYqKebLjxj0yTPbFaKbTvgbwgbnZb5oN2zKjUZzzcSz5ARPrtaWDV/Hv2bKvWm+SO8z1nttNtGLgX7igVoVfrvrshZGe148krAVoaBqHEB+wi81ui0La91LqYwmmYmyzVopFvy19CrJfsF7LPVYN2+FjonZrwlP/VQz43VrW4vu+4uNO2Nk23qttVCnSUIVCTo1qwGTDtNi8xLbqFW6mvCIHCDXHMTvI6myoeaLZ8yAR0LVcKg0DJ/xPBs9oHPqVTdH8U669Tqia4+jvM1R2rH6fGlirwfbpg+PLGUfr75q2JBPVlqsh0Afp2dgKc4cd4uKdok/bwDN0d6cSdbiLT6VDQ++1Xwp7UamyRPJ4kZPwNYeJtePbMtj6wAnt3Gm1g1ulVIplMXy0HxHHeIwJ58FbgYGI32q/ZZUo5Od1xP8jGcqbMQ48T2iXgXk9lfiufZtrkcU5wIiy2uLy12xXyAUaDTYbNST/p1hl6TXE2CEhtlvEa0ybZ6bbsVBNIq8HXM92rD4q+XEZDeIPKzqBulg6Q3SWrbvNn0JBbWLTQh5ICPELakt0rqWD1SpIYDAbha4M5V6M5VGzJb1VqhdW/H1KjZF2tA6FnNjKdhqEuVgiVuJtC9VrFs907ay1qgq+ZM2KNTS/QYNyWPLbHyHO4JQa1ZxrZKi1+9FpgA89dgv+zCfhLLJ2iZPxj6tZV6SDdsra+PV9tdos/mSRWZe8LYnn0DNobJsU+wnoWl4UYjzn4jNUXc3yTjI31O7He3RNPQ4u4dZMI4cyeZdpy5i0wnztxNZiPOPJWMUVXJ3EPmPsmYPp5PLP/9sofYqfvmdIf5Flm/bmmT/VaZxqDrZPUAG/C6MSbd2rFfHnm6H/WL8ntV83k/82VNcwC0Hs8A30A8h3fjOWSLAvD4DMmnN3cEL8c9iQLVJpxuhkSBjp+o/aK4yU33MyPluS+3q/TL7WR0iTijeGnzxD5msFAU63GFD76T84pX/NkTATlrIZX5iUE7/ZPY2gCCkRIQXgHzmvx4KT0O5OeOAxHl7uEp/taxA8Fw7OA8wTdDWJhOe47Ris7PtSDelfHz5OP/yckG9WP2AXTsx3gVM6W+LYmfYeUu44ULNxN278exPDQtvg/XbY7M/F4tndUPMauXlQcUMrVeL0YyTMfvA/Ar9wiwZH7+FpPHmrCbLZePj11WI9OBD9OBgCCK8SttZE8P4jwVJFL/sSyNwUEUmfTj2SL6YIb/CYY/cr999JLSthSphUp9g01a7ANea8iRMGgbs6c72AVSr1ntrJuN0A/Ph9ak5rDa7W6hKb5EPrR61cRZH+D49xCPTBC1OX1DoISReeJrsjqY+4QZ08E+HVDAxm028PhLt5ahFUGOgNFop9JXZ5SeDfb28VAl1HWGOKXL1a33LyFpOvBJIpXFh4kcwc1GEGRuxqxgCVp4rMpMTK1hgzVbyjdRrYpEIiQq9fAhuFx8IKj0Gxx7LSxXGvJLYLqa/paFDOdj9MdmMzTv1cr7P+8UAACNmQt4VNW1x/eZSYY3hJcJyltRVJgECoqQmQQlY631eT9ba5kUlNRS5XFxRmuvRCAEHzO38lm1LYo3naBSq9Re0cJMSFFRBHxNAHloNCrYGUDs45Pr9VHv77/PJBwf372Xj8Nes9baa/3XWnuvvc/BcXzGb3o/tv/tjkDfSYvqrr36qrrr506MzDvr52dffc3Fly6K3WQGmkHGGWxOMsNMUZFjjM8UOcUzFlwTn1c3P2YCTvdbjTE9TG8N/LFDidnkM8Yx1rwZZYp8xZfOvrZu5IT/TX+gyH7OTZrosxNHa+IF82N1i+bPvn7kJfOvv3nkebPn3zj7BhMw/7eZXzgA6DZGlhwg9Cm+vG7hghvmxhYsmlt3w9SR5/2krm5hF+vmkZEF11+/4Ka6RR7W5XWzr4nNXTDfw7riBq+GGdyAs5FEOLbRmJW+0y1Yc1HdnLnxecb+GF/4cYbTNU3ue37Ffc+vu+/5dfc9v+K+aIUxM/F8S3GxY5Ylg4d8jabiLv9PyqKxooZYdnK3ZcZ0FJtAX+MAdMnyNYkBvhVmVg9/g89UeDT6BoZ3aTyKxtox/uVf1hgemOBqNLbVjEJj5JnSeNGjMSEwo0tjnnDs94PMa2NG4HITuJziWqh+U4S2AV19Mvgd4zi+ZWZJxCtxAvUV6XEsIl+DWXKOV+IL1BtTaRy/JHu8En+gviw6yThFvuWmY4pXUiTJAOMUI1my2CspDtxyY/Zz4wSQzFrtlQQCiyvSt8jPclP9klfSTdbw041In+jtlXQPLK6N3SE/jaZ6jFfSo+DHQVIx2SvpWYi0CMnmq7ySXvID6u5IShZ7Jb0Di2PZUcbp4VtqzN8o3ICCJFAfKe1nnJ7kxha0k0+V69ckfmacXkQzcrhX0k81IBpHkuu8kpICMkmqn/ZK+hckPpA9YbySAYXqGCQVY72SgfJja83SuMwrGeSxtvJGr2RwwZofScmDXskJyg2olbWmLV5JqSRkTTX46/teSVmhBgEkHce8kiFdtV5hxnbzSk6UNfx0Q7LwRK/kpEKteyOpPs0rGSrUoz3VebQgKVSnT2d1OvnsMGaQAa21jmKvZETBf18k5l+8kpGFaCTpWOSVjCpIZG3z3V7J6IK1fpK0eyUnS/KwW52m0V7JKYXqaLVXfNsrGVPIgGq9eZZXcqqn1ivv8EpOK1hTrUf+wSsZqxxUCjUIXvdKThc2UKvWFZ97JWdIYmu9wmzu55WcWchBAMmGUq9knKfWC0/2SsbLGn5U6w1neSXBQqSq9e3neSXlQt1Va9rfqIKkUGtja+3h0ys7c7PcNPX3SiYWclOCZPNMr+Rbgfra2MnG6Y+k6SGvZJLm4F/9q/qoVzK5EKfdB329krMKuVGmO4Z7JWcXMjAAycIar2RKoD6W5RhQrZ+4zis5pyueRrPkHq9kqrARj2pdkvZKpilrlS6Cle94JZUFBEVkuqTIKwlJUqj1lMFeSbgQj2pdMcwrqSrkQLXOjfVKqmUNP6p1RaVXMt1Ta3OBV3KuUJPrrlrPK0gKtR7YWetOPqde/aHUzYqG00WZ7pLUyD/RaBWYa7ySSCFr3ZCMXOeVnF9AZpBUv+2VfNtTg4VlXskFBWuqgQl7Jd9RNJXKDXWr80ouFDZyo/1WkvRKvisJqLWmZn0J20VdNWg0l7Z6JRd31YAusdsruUTW8KPOculnXsmlhUhVg497eiWXCfVo08Nx7A2r87plfLdy1fAP2tXw7taP/eN+POW180+o//Rwk79f4IIiU5zrZnpzS/JxacSQ6Wa6c9H0+XxdP50v//yK9Gs/+zh9b3W4aV5udG/hHnIOzx768BTdL6j1air0Ejult+4BdK3JxH4V2VwMfZcm/azBVH+PSUdQns6zkmXwLpvhBJTCNMA5bNoVbM/7SM06xl0U6egKrm+aXEoqTm0wm+sw8BC9YhjeGjHyGl4MRk6nt16CkRvxtpqJf2ZVvIqR9+lrATrYQN3yZCiCAaBX78BAEPhRjC1m3A70XkycBBpgr1yKwbUYgT9rf6N57W9smt5sjyEruAzK0M0gwlj1mxgagYGFhNOCgWIMjGPSxYRRC7o44wOE9tRAysFKPv7X3OoscZyljlnmmAbHLHdMo2NWOOY2x9zumDsc8xD12+5MMDucopcd8woqPvMrnxNwqIiu/T1MLxDNZJnf4r4Y3G6WnGTfDW4zZlgf9wXhRP0e5htuRphTHQzySxy//uHVxjGnmV85Zqjp6wxZCuskM4ZjOeg0ohgY9LLPOPlUcwiB8YlIBqdWQTweFuHP5PZaojb2Ubg8PbHKHyntUdVWc2ZVMlhSFSkdXuVvqymtMqY/zNKqfOqLsGXUxtrDkdKSqmjsubCfMJD8LtxW8xHP/WF/eXpvOJ1LhqOxx+3oi2f7HyfaajaFfWXRtZbw51PPWaI8vQuLz8va++FM7qWwMUfD8ewbYhxDegjGsbAFIKIs2rMqnv2AKQOq/PHsQVSHVDUnduFmWJVfsCKlo0H1iB19yeC5xwky4aaCkTKWpztgrRWm4USKrDz9GRyI5kQKAlGnjjnkN0469wD+J7WQiWstkU+diXRzJYF3hJoT8zHcxPNxCKjVofJ0JdLqUDx7h7CLsR5GU6g2tlu56qAkxyjCGeShqMpfFp1D4vqQ/N/YEY0nLJHJvRBuTvRQidpJRHFVefoojE/C/mTQkIw884uZ9moYGz1JxnrAafyFQhNxY9iXye0HYYEwZk3YVxt7GzRrwn4R0dhGcv06jO3C+go/9gOtFUsHwv7mxDokR9H6jR1hLLNEJnc1mu+GgTYdaHuAFWSkmmXRoZTmSeYPpTQPCslQDNa7kmQwwvwKJMPlbgYRfBjKp65lyvMhlkYjRVsdisZW25HF+pgl8qmNeFgXwsYL+N0M41U8HJDGXgwWMb8d48PDlLk7q6CXoBZXlUVbQpHST9FYGKJ4h8O1sWxlW81ObOSmsWgyGJnU0llec4RaJ4N3U6fLWlk4d+OmV5WvreZbhFYgjDmkkFTgQ2HWYQ2m/o74+3j/p1I6FyhFpH45wCldWfQestcHJOvsSOles4QWeDpH+fMpHz8+Zr4qtldG+6O+ATv9KW7CZeRT08iVtsBHIRaIj+36U0I7jJdNWoavkZ9gSya3zo6Edq8l2moasfP8NLLxUzykK8uiV4J4SggcERh3hhRLPPt4iJ06+TjRlQER6idKAVBElEVnYmIGGagQtiuQ+DF1I1B2K8sJGM2s+ZQdWSEZS0RjO4hgT4gpb+ComCkHwDhRO+IIkh9h9AiaeBHRVvMIng4w0jOSwTchdiLdgdsOtaSMVZcXjXhJWKI2FscoGpHSK5i/i2cGjFYXenl6LTa+xZMIm8dttVehwc6OZ+ssQScE3POVVPKdUCa3iDiaGD9xd3YyGMZ/NUm7U8tXW/wpjDbBeF3F15RjID2TElNaGVWt5UUjZXnGEuXptxjRMOYz9tIxUheg5thIBvtS46dITl8YeBEht9Io4NAUAXvLRSqjgi4vGo1TFl0FzCal+klLNCe2oGursxuiGIjtZIXc18YO8uNH5O0gDPyJaKt5iEc9J6NU7wZNG1LZeFslfxL1D/C1yo6Ua4kl8qkfuRrCqynx7HiY2Ihnh2HwIRjDsIMXEXIrDYtDUwTMtQFSGRV0edFoPqFcrH4SsTNMn96C/+1hG3w8u5MipGG8KUPrSc8BnrUwDqnuq9H4EI2kHQnoOkuURb8L7IOyMR4wb1CR8Vjf4TLYV8RwLujWh+ky3wPEY/xYxvOwmuk65j+gdO1m3i/5kWM7L5H1T3E1E4OfIhjlMpoTb1GvI9hYqR72FupFtijs0UqsPwpjUkuk9A47ojHJEsng31lhByuxcRNr70720PRQW02/sC8aG4KHEbJ+MqpHUJsO3GdlfRb+f4272+1IMM2WiMaeJCi6rM5KWdYoO5bh7oqNMGq0sp/A+veBq8Y4S0fGD5gbl7teqDSguiOUzt2nuUsp0aMwl4LwRZeRyXXgcgPN4x8y9lfOHT9rfixuu1eRsh+grl2hC4PdFRstURvbiWG/ND6gQv/gccttnuHmq27EEW1sW7L9WI2qi0Diihg543nwNkq3ma0AG0VrfRBcY3SYziM5Z9Ba54F8gsuIlE6xGvFspTsln5quqwH2p6uJD7VEWbQCTGio/WmKRmtDhIxKw3rRFLmVDTvexrUsk3sYOwB2icO6Hh2s9BBdol5VxuHUB9d4nTs/xFuBMOYUleGH+C3C5RyenLr5fFK4Df3FINwkxgqA/CeMu+zINrjXEs2JVay6p7UM/gNkaZKTwlZLiMvjY3hOTMP6I0imTiUhGjPs1nsB0J5x11Quw2nyY4CYFtajxkobri5E0Vgx/uvU9dtJ5lP4b2eh9Qn7RCgI89431jIZnIjzApHJccgaM8USwDkfr7rwzANON+X2Thh9qtI5NX8WkC5qIrQrmxOW8TQx9SH7aYD3qcJYmrnvq1c9DecvSNfByGl5PkwXyON8tR2tdRG6NLXVvKMpV0Ls4zkfQNvVvCbjroVAJ6P1qIr31fW3lWqXp0tw1a70HST09kwml2YJXl2Jz5XUoS+qK4m+QT19Jfv6z0jTbJq8GvdBCtMTNyXA7KnbTNASujNZDe0iTdFobYhoqzkbO5cwLadzoQbJhZWR0slMnTqNQE6xgGRUowsxnt2qkA5Srq3ElwZZm9IiRO34WwkQDlgRukpJI5716XATxO7sAUFkX7sQu5P0GRhFQ4g0RaO14RLvAvMSNPapWQhiFi1l9CXl+hQkW/nhAjN7WC351G0wumslXGOJTC6MneHKyokgnASziIpeKYYa7S2U5S029z0uQzWSRnOiRYwT+fGKtVEbA4OM6qIhLxoJbLUl4tk/uBrGPGunCKG14V54H2XKHjTxIkJupWFxaIqAyYZFKqOCLi8azX9znEVKy3nL+lRvGwMswbbpT0IDXPd687CSldDmxCCYDs1liLKsV4fhMN/H2Ei1ntfJ38ks/i12hLHGErqJ8XKo3TCHs2kAUyKk3q+GezrEX+gYp2MrrTqcDqokQUVIzFXCP4dAhqKha9XHumevgdhAcrfYkW3yuiW0q3QagPQYRt8m2w6efLLRndfFwdjoDXzuinqp1KGraLmRqyeUE+UCZWccKlOYfypzWe7x7AjmbmR3DLaNmrB7cT5kWcyfExQdJ1L6HkGNbimLbrEj1u+xhK6n2lzkoQRkev/djp3TVOlr2S6L8XItzLTL0BnDrmaxl+go6A+6MWCZSWLo68ngPTAqga2w6fx8/7BEPqXjfYqy3ZNMTyIgIR2n02MEP07hORVBmTTGod4bqVtts4LmoJYRzz70Db3DEuzXKl4zJoGiQOh1jwNgmiUox8WIDPZughHQbrwLPHrPeMKOhPKyJZoT75IOumYy+DHpcMDlo5UeVjm0tHbhXW9Mf1TH1eZFnk/tg1sgIqW/1wLfh59t9tEbIpPT/DjMs5rnsPbVnZZQ28yn3lMfvZLt8wbJjcDYoZoqUrdtKnRzgL0dz/ZB67JWIjpEcS5rzeSe5cC4qNWfzq2iOBe0ttXcBqOmFTAZlt/eTWT4vyBym1jTuHt/E6GdwWo9sIl1gavnxLiYtZCCMZMkTNjEBWYuuHMZdlrOPWejsf7oWuIuUvlJiCzf7RKR0n2uqDyt7xwQZdEm8nDvJoL6NZ6OYDjJOKgVLLeGM7mJrZHSKJPPVRxTbUCdgZk6NTD30wMhaDlS0XSuG/efAmFM13eKAqEWTLG/OE6URVNhK+oisOcaZDSmXKm0ff4brkOW6BKJMPeT+y4rzYmjblJ42XAjz6f+DU+DdNFe4hLR2J86RR+6RKR0IDGcINEgl8intJ8Rlacv7CRGEx4ujFGcEHqdyKe2afNnXUI5RSKULh6zoVg5uy7M63ULC+ssS2BPJdRr+zMEs7+yreYuxmW62kxjpbzMJtc4TKt1GmfVRUS6DOZ1WpwPw2gkkgMk5Be2z7JA7gtzYLJA7tfRFMV3EwlfhlZKNu5Hqveg34cjpY+EKazuEr9D61mmPC4b2g9/hLmNQDKKaBtrgfNBhD5viRvPcoXQbSOTO8rce+yIxr9aghWC5rt6bZkI8TqQT0XrRW3GJWDfqblrwP4BkkOs+s/EKANVgJRHsM43BmNiIOpDM/ilHWGssYQuO9FYL31j2EZkPajAfqLjvbM5cQjin2D/iOewwv0Cv3uB/AVTNqqWYlCV5sT244ReJCjYi5YgCn11i9LyNzCxl+4x65D8hGvgahiJqWxivXSpeG41VdelUPeGiPjXlkgG18pjiLg2YK2dIDcTX68we2sbIMfyYxsaF2gjKK+3KwUvMLcRXK1IG9RbnqKeS/jxexJVr4tEEwn+Oer3ofUzMZJkO86PFUC7QTauh1iA+uU8PxZjCuozecYy9Ts6FYfg9xyeIeAY6jKMyXFWnE06W5WAK8BxL4VygzJrONU738PBr5vFpBYZpAPqzGon3J+Trwex8YXypY+D1Rit5rpyp9pqNZfA9TAKXwv52sGUYyD8ytfCfOo3dgTURkuURdsARaPXdy5dF/SlsCzKYuM/JFgb+9AKcAjxLVaFFkHV9eb8Gu62EPJb2ijrkXyAoVV2JLENlqiN1TGylPOp8wCym2kVjH+WxjAs/474hxFlwmUkg1fhuwLmeO2cc9FwmDIHQZtePRpg/JY86LvIb5UHvUGK8TRYNoSI4Tmsv8p23sEUvnrooGpODEC6FzsVajoB1re9Vegb6EcklKOVtKF6BL+DmbsT2JdVYiwDGL1Or7Lj/+cAZjnraJhASAVC5y5Lf4olSMOFmgWEGHg4gPWipTLwmdKOMHZYQl+jojHqoq/Yuhylc4bqHVaitIl3YVAXPg5gERhVk9wj6y5hD2ARvODxbMUIB3A+9ScmHkbtATvi7w5LCJE9gPVRUgewLnUsP/lTpC1ouaGbfycPyWBvQHA0sNOOE5lcvTbEWOKroAAjGHnLNOYELmGzWarFhLVOH8nyWKphhcsqzToZXGmJeDaKXzTaak4CxGx1MFY6NnRiyahGeaHRFM5Etf8uwpjlaornMlnf8a5EEtRKms82DyBNEmeHat2EdD0WW+xIFvZZIp/6wNVIBpXxAP6UbGwoYBnVKC+4czNgzP8A(/figma)--&gt;&quot;&gt;&lt;/span&gt;&lt;span style=&quot;&quot;&gt;Repositories:&lt;br&gt;- CheepRepository&lt;br&gt;- FollowerRepository&lt;br&gt;- ReactionRepository&lt;br&gt;- UserRepository&lt;/span&gt;&lt;br&gt;&lt;/div&gt;&lt;/div&gt;" style="text;html=1;align=left;verticalAlign=middle;resizable=0;points=[];autosize=1;" parent="1" vertex="1">
          <mxGeometry x="790" y="470" width="190" height="120" as="geometry" />
        </mxCell>
      </root>
    </mxGraphModel>
  </diagram>
</mxfile>
